%TF.GenerationSoftware,KiCad,Pcbnew,10.0.5*%
%TF.CreationDate,2026-08-15T07:42:58-07:00*%
%TF.ProjectId,bsidesorl-v1,62736964-6573-46f7-926c-2d76312e6b69,R0*%
%TF.SameCoordinates,Original*%
%TF.FileFunction,Soldermask,Top*%
%TF.FilePolarity,Negative*%
%FSLAX46Y46*%
G04 Gerber Fmt 4.6, Leading zero omitted, Abs format (unit mm)*
G04 Created by KiCad (PCBNEW 10.0.5) date 2026-08-15 07:42:58*
%MOMM*%
%LPD*%
G01*
G04 APERTURE LIST*
%ADD10C,0.400000*%
%ADD11R,1.800000X1.800000*%
%ADD12C,1.800000*%
%ADD13R,1.700000X1.700000*%
%ADD14C,1.700000*%
G04 APERTURE END LIST*
D10*
X144050990Y-115856528D02*
X144049110Y-115826291D01*
X144047320Y-115796212D01*
X144045619Y-115766292D01*
X144044006Y-115736529D01*
X144042482Y-115706924D01*
X144041046Y-115677477D01*
X144039697Y-115648186D01*
X144038435Y-115619051D01*
X144037260Y-115590072D01*
X144036170Y-115561249D01*
X144035166Y-115532580D01*
X144034247Y-115504066D01*
X144033413Y-115475707D01*
X144032662Y-115447501D01*
X144031996Y-115419448D01*
X144031413Y-115391548D01*
X144030912Y-115363801D01*
X144030494Y-115336205D01*
X144030158Y-115308761D01*
X144029903Y-115281468D01*
X144029729Y-115254326D01*
X144029636Y-115227334D01*
X144029622Y-115200492D01*
X144029689Y-115173799D01*
X144029834Y-115147255D01*
X144030059Y-115120859D01*
X144030361Y-115094611D01*
X144030742Y-115068510D01*
X144031200Y-115042556D01*
X144031735Y-115016749D01*
X144032346Y-114991088D01*
X144033033Y-114965572D01*
X144033797Y-114940201D01*
X144034635Y-114914974D01*
X144035548Y-114889891D01*
X144036535Y-114864952D01*
X144037597Y-114840155D01*
X144038732Y-114815501D01*
X144039940Y-114790988D01*
X144041220Y-114766616D01*
X144042573Y-114742385D01*
X144043997Y-114718294D01*
X144045493Y-114694343D01*
X144047060Y-114670530D01*
X144048697Y-114646855D01*
X144050405Y-114623318D01*
X144052182Y-114599918D01*
X144054029Y-114576653D01*
X144055944Y-114553525D01*
X144057928Y-114530531D01*
X144059980Y-114507671D01*
X144062100Y-114484944D01*
X144064287Y-114462350D01*
X144066542Y-114439887D01*
X144068863Y-114417555D01*
X144071250Y-114395353D01*
X144073703Y-114373280D01*
X144076222Y-114351336D01*
X144078806Y-114329518D01*
X144081455Y-114307826D01*
X144084169Y-114286259D01*
X144086947Y-114264816D01*
X144089789Y-114243496D01*
X144092695Y-114222297D01*
X144095664Y-114201218D01*
X144098697Y-114180258D01*
X144101793Y-114159414D01*
X144104952Y-114138687D01*
X144108173Y-114118073D01*
X144111458Y-114097571D01*
X144114805Y-114077178D01*
X144118214Y-114056894D01*
X144121686Y-114036716D01*
X144125220Y-114016640D01*
X144128817Y-113996665D01*
X144132477Y-113976787D01*
X144136199Y-113957004D01*
X144139985Y-113937312D01*
X144143835Y-113917707D01*
X144147749Y-113898184D01*
X144151728Y-113878739D01*
X144155772Y-113859367D01*
X144159883Y-113840062D01*
X144164062Y-113820816D01*
X144168310Y-113801623D01*
X144172629Y-113782472D01*
X144177021Y-113763355D01*
X144181489Y-113744260D01*
X144186036Y-113725172D01*
X144190665Y-113706074D01*
X144195382Y-113686948D01*
X144200193Y-113667770D01*
X144205104Y-113648508D01*
X144210127Y-113629127D01*
X144215273Y-113609579D01*
X144220560Y-113589799D01*
X144226012Y-113569703D01*
X144231662Y-113549169D01*
X144237562Y-113528013D01*
X144243796Y-113505940D01*
X144250516Y-113482415D01*
X144258060Y-113456268D01*
X144267242Y-113424659D01*
X144274979Y-113398032D01*
X144278655Y-113385315D01*
X144282196Y-113372991D01*
X144285595Y-113361053D01*
X144288845Y-113349499D01*
X144291942Y-113338323D01*
X144294879Y-113327521D01*
X144297651Y-113317088D01*
X144300251Y-113307019D01*
X144301484Y-113302120D01*
X144302673Y-113297310D01*
X144303816Y-113292590D01*
X144304912Y-113287957D01*
X144305960Y-113283412D01*
X144306961Y-113278955D01*
X144307912Y-113274583D01*
X144308814Y-113270298D01*
X144309666Y-113266098D01*
X144310466Y-113261984D01*
X144311215Y-113257953D01*
X144311911Y-113254006D01*
X144425645Y-117027328D02*
X144433479Y-117012403D01*
X144441223Y-116997479D01*
X144448877Y-116982554D01*
X144456441Y-116967628D01*
X144463918Y-116952700D01*
X144471307Y-116937769D01*
X144478609Y-116922834D01*
X144485824Y-116907894D01*
X144492954Y-116892948D01*
X144499998Y-116877995D01*
X144506958Y-116863034D01*
X144513834Y-116848064D01*
X144520627Y-116833085D01*
X144527338Y-116818095D01*
X144533966Y-116803092D01*
X144540513Y-116788077D01*
X144546978Y-116773047D01*
X144553364Y-116758002D01*
X144559670Y-116742941D01*
X144565897Y-116727862D01*
X144572045Y-116712764D01*
X144578116Y-116697646D01*
X144584109Y-116682507D01*
X144590025Y-116667346D01*
X144595865Y-116652160D01*
X144601629Y-116636949D01*
X144607318Y-116621712D01*
X144612932Y-116606447D01*
X144618472Y-116591152D01*
X144623938Y-116575826D01*
X144629331Y-116560468D01*
X144634652Y-116545076D01*
X144639900Y-116529649D01*
X144645077Y-116514184D01*
X144650183Y-116498680D01*
X144655218Y-116483136D01*
X144660183Y-116467550D01*
X144665079Y-116451919D01*
X144669905Y-116436242D01*
X144674663Y-116420517D01*
X144679352Y-116404742D01*
X144683974Y-116388915D01*
X144688529Y-116373034D01*
X144693017Y-116357096D01*
X144697439Y-116341099D01*
X144701794Y-116325042D01*
X144706085Y-116308920D01*
X144710311Y-116292732D01*
X144714472Y-116276476D01*
X144718569Y-116260147D01*
X144722603Y-116243744D01*
X144726574Y-116227264D01*
X144730482Y-116210703D01*
X144734329Y-116194057D01*
X144738113Y-116177325D01*
X144741837Y-116160501D01*
X144745500Y-116143583D01*
X144749103Y-116126567D01*
X144752646Y-116109447D01*
X144756129Y-116092221D01*
X144759555Y-116074883D01*
X144762922Y-116057428D01*
X144766231Y-116039852D01*
X144769483Y-116022150D01*
X144772678Y-116004315D01*
X144775818Y-115986342D01*
X144778901Y-115968224D01*
X144781930Y-115949954D01*
X144784905Y-115931526D01*
X144787826Y-115912931D01*
X144790693Y-115894162D01*
X144793509Y-115875209D01*
X144796272Y-115856063D01*
X144798985Y-115836713D01*
X144801647Y-115817149D01*
X144804260Y-115797359D01*
X144806824Y-115777329D01*
X144809341Y-115757045D01*
X144811811Y-115736492D01*
X144814236Y-115715652D01*
X144816616Y-115694506D01*
X144818953Y-115673033D01*
X144821249Y-115651210D01*
X144823504Y-115629010D01*
X144825721Y-115606403D01*
X144827902Y-115583357D01*
X144830048Y-115559831D01*
X144832163Y-115535782D01*
X144834249Y-115511158D01*
X144836310Y-115485898D01*
X144838349Y-115459929D01*
X144840372Y-115433163D01*
X144842385Y-115405492D01*
X144844394Y-115376781D01*
X144846410Y-115346855D01*
X144848444Y-115315485D01*
X144850516Y-115282352D01*
X144852648Y-115246999D01*
X144854881Y-115208712D01*
X144857280Y-115166272D01*
X144859980Y-115117203D01*
X144863358Y-115054601D01*
X144864270Y-115037593D01*
X144867218Y-114982728D01*
X144870217Y-114927696D01*
X144871749Y-114900114D01*
X144873310Y-114872485D01*
X144874904Y-114844808D01*
X144876538Y-114817081D01*
X144878217Y-114789303D01*
X144879945Y-114761471D01*
X144881729Y-114733584D01*
X144883573Y-114705641D01*
X144885483Y-114677640D01*
X144887465Y-114649579D01*
X144889523Y-114621456D01*
X144890582Y-114607371D01*
X144891663Y-114593271D01*
X144892765Y-114579153D01*
X144893890Y-114565020D01*
X144895038Y-114550870D01*
X144896210Y-114536703D01*
X144897406Y-114522519D01*
X144898628Y-114508318D01*
X144899875Y-114494099D01*
X144901148Y-114479863D01*
X144902449Y-114465609D01*
X144903778Y-114451336D01*
X144905135Y-114437046D01*
X144906521Y-114422737D01*
X144907937Y-114408409D01*
X144909383Y-114394063D01*
X144910861Y-114379697D01*
X144912370Y-114365312D01*
X144913912Y-114350908D01*
X144915487Y-114336483D01*
X144917095Y-114322039D01*
X144918739Y-114307575D01*
X144920417Y-114293090D01*
X144922131Y-114278585D01*
X144923881Y-114264059D01*
X144925669Y-114249512D01*
X144927494Y-114234944D01*
X144929358Y-114220354D01*
X144931261Y-114205743D01*
X144933203Y-114191110D01*
X144935186Y-114176455D01*
X144937211Y-114161778D01*
X144939277Y-114147079D01*
X144941385Y-114132357D01*
X144943536Y-114117612D01*
X144945732Y-114102843D01*
X144947971Y-114088052D01*
X144950256Y-114073237D01*
X144952587Y-114058399D01*
X144954963Y-114043537D01*
X144957387Y-114028650D01*
X144959859Y-114013740D01*
X144962379Y-113998804D01*
X144964949Y-113983844D01*
X144967568Y-113968860D01*
X144970237Y-113953850D01*
X144972958Y-113938814D01*
X144975730Y-113923754D01*
X144978555Y-113908667D01*
X144981433Y-113893555D01*
X144984364Y-113878416D01*
X144987350Y-113863251D01*
X144990391Y-113848060D01*
X144993488Y-113832841D01*
X144996641Y-113817596D01*
X144999851Y-113802324D01*
X145003119Y-113787024D01*
X145006446Y-113771696D01*
X145009831Y-113756341D01*
X145013276Y-113740957D01*
X145016782Y-113725546D01*
X145020348Y-113710106D01*
X145023977Y-113694637D01*
X145027667Y-113679140D01*
X145031421Y-113663613D01*
X145035239Y-113648057D01*
X145039121Y-113632472D01*
X145043068Y-113616857D01*
X145047080Y-113601212D01*
X145051159Y-113585538D01*
X145055306Y-113569832D01*
X145059519Y-113554097D01*
X145063802Y-113538330D01*
X145068153Y-113522533D01*
X145072574Y-113506704D01*
X145077065Y-113490844D01*
X145081628Y-113474953D01*
X145086262Y-113459030D01*
X145090968Y-113443075D01*
X145095748Y-113427087D01*
X145100601Y-113411068D01*
X145105529Y-113395016D01*
X145110531Y-113378931D01*
X145115610Y-113362813D01*
X145120764Y-113346661D01*
X145125996Y-113330477D01*
X145131306Y-113314259D01*
X145136693Y-113298007D01*
X145142160Y-113281720D01*
X145147707Y-113265400D01*
X145153334Y-113249045D01*
X145159042Y-113232656D01*
X145164831Y-113216232D01*
X145170703Y-113199772D01*
X145176658Y-113183278D01*
X145182697Y-113166748D01*
X145188820Y-113150182D01*
X145195028Y-113133580D01*
X144633044Y-112498003D02*
X144637789Y-112489866D01*
X144642544Y-112481750D01*
X144647309Y-112473657D01*
X144652084Y-112465586D01*
X144656870Y-112457537D01*
X144661666Y-112449510D01*
X144666471Y-112441505D01*
X144671288Y-112433522D01*
X144676113Y-112425561D01*
X144680950Y-112417621D01*
X144685796Y-112409704D01*
X144690652Y-112401809D01*
X144695518Y-112393936D01*
X144700394Y-112386085D01*
X144705280Y-112378255D01*
X144710176Y-112370448D01*
X144715082Y-112362662D01*
X144719997Y-112354898D01*
X144724922Y-112347157D01*
X144729858Y-112339437D01*
X144734802Y-112331739D01*
X144739757Y-112324062D01*
X144744721Y-112316408D01*
X144749695Y-112308775D01*
X144754679Y-112301165D01*
X144759672Y-112293575D01*
X144764675Y-112286008D01*
X144769688Y-112278463D01*
X144774709Y-112270939D01*
X144779741Y-112263437D01*
X144784782Y-112255957D01*
X144789832Y-112248498D01*
X144794892Y-112241062D01*
X144799962Y-112233646D01*
X144805040Y-112226253D01*
X144810128Y-112218881D01*
X144815226Y-112211531D01*
X144820332Y-112204203D01*
X144825448Y-112196896D01*
X144830574Y-112189611D01*
X144835708Y-112182347D01*
X144840852Y-112175105D01*
X144846004Y-112167885D01*
X144851166Y-112160686D01*
X144856337Y-112153509D01*
X144861518Y-112146353D01*
X144866707Y-112139219D01*
X144871905Y-112132107D01*
X144877113Y-112125016D01*
X144882329Y-112117946D01*
X144887554Y-112110898D01*
X144892789Y-112103872D01*
X144898032Y-112096867D01*
X144903284Y-112089883D01*
X144908545Y-112082921D01*
X144913815Y-112075980D01*
X144919093Y-112069061D01*
X144924381Y-112062163D01*
X144929677Y-112055287D01*
X144934982Y-112048432D01*
X144940296Y-112041598D01*
X144945618Y-112034786D01*
X144950949Y-112027995D01*
X144956289Y-112021226D01*
X144961637Y-112014478D01*
X144966994Y-112007751D01*
X144972359Y-112001045D01*
X144977734Y-111994361D01*
X144983116Y-111987698D01*
X144988507Y-111981057D01*
X144993907Y-111974437D01*
X144999315Y-111967837D01*
X145004731Y-111961260D01*
X145010156Y-111954703D01*
X145015589Y-111948168D01*
X145021030Y-111941654D01*
X145026480Y-111935161D01*
X145031938Y-111928689D01*
X145037405Y-111922239D01*
X145042879Y-111915810D01*
X145048362Y-111909402D01*
X145053853Y-111903015D01*
X145059352Y-111896649D01*
X145064860Y-111890304D01*
X145070375Y-111883981D01*
X145075899Y-111877678D01*
X145081430Y-111871397D01*
X145086970Y-111865137D01*
X145092518Y-111858898D01*
X145098074Y-111852680D01*
X145103637Y-111846483D01*
X145109209Y-111840307D01*
X145114789Y-111834152D01*
X145120376Y-111828019D01*
X145125972Y-111821906D01*
X145131575Y-111815814D01*
X145137186Y-111809743D01*
X145142805Y-111803694D01*
X145148432Y-111797665D01*
X145154066Y-111791657D01*
X145159709Y-111785670D01*
X145165359Y-111779704D01*
X145171016Y-111773760D01*
X145176682Y-111767836D01*
X145182354Y-111761933D01*
X145188035Y-111756050D01*
X145193723Y-111750189D01*
X145199419Y-111744349D01*
X145205122Y-111738529D01*
X145210833Y-111732731D01*
X145216551Y-111726953D01*
X145222277Y-111721196D01*
X145228010Y-111715460D01*
X145233751Y-111709745D01*
X145239499Y-111704051D01*
X145245255Y-111698377D01*
X145251018Y-111692725D01*
X145256788Y-111687093D01*
X145262565Y-111681482D01*
X145268350Y-111675891D01*
X145274142Y-111670322D01*
X145279942Y-111664773D01*
X145285748Y-111659245D01*
X145291562Y-111653738D01*
X145297383Y-111648251D01*
X145303211Y-111642785D01*
X145309046Y-111637340D01*
X145314889Y-111631916D01*
X145320738Y-111626512D01*
X145326595Y-111621129D01*
X145332458Y-111615766D01*
X145338329Y-111610425D01*
X145344206Y-111605104D01*
X145350091Y-111599803D01*
X145355982Y-111594524D01*
X145361880Y-111589264D01*
X145367786Y-111584026D01*
X145373698Y-111578808D01*
X145379617Y-111573611D01*
X145385543Y-111568434D01*
X145391475Y-111563278D01*
X145397415Y-111558143D01*
X145403361Y-111553028D01*
X145409314Y-111547934D01*
X145415274Y-111542860D01*
X145421240Y-111537806D01*
X145427213Y-111532774D01*
X145433193Y-111527762D01*
X145439179Y-111522770D01*
X145445172Y-111517799D01*
X145451172Y-111512848D01*
X145457178Y-111507918D01*
X145463191Y-111503008D01*
X145469210Y-111498119D01*
X145475236Y-111493251D01*
X145481268Y-111488403D01*
X145487306Y-111483575D01*
X145493351Y-111478767D01*
X145499403Y-111473981D01*
X145505461Y-111469214D01*
X145511525Y-111464468D01*
X145517595Y-111459743D01*
X145523672Y-111455037D01*
X145529755Y-111450353D01*
X145535845Y-111445688D01*
X145541940Y-111441044D01*
X145548042Y-111436421D01*
X145554151Y-111431818D01*
X145560265Y-111427235D01*
X145566385Y-111422672D01*
X145572512Y-111418130D01*
X145578645Y-111413608D01*
X145584784Y-111409107D01*
X145590928Y-111404626D01*
X145597080Y-111400165D01*
X145603236Y-111395725D01*
X145609400Y-111391304D01*
X145615569Y-111386905D01*
X145621744Y-111382525D01*
X145627924Y-111378166D01*
X145634111Y-111373827D01*
X145640304Y-111369508D01*
X145646503Y-111365209D01*
X145652707Y-111360931D01*
X145658918Y-111356673D01*
X145665134Y-111352436D01*
X145671356Y-111348218D01*
X145677584Y-111344021D01*
X145683817Y-111339844D01*
X145690056Y-111335687D01*
X145696301Y-111331551D01*
X145702552Y-111327434D01*
X145708808Y-111323338D01*
X145715070Y-111319262D01*
X145721338Y-111315207D01*
X145727611Y-111311171D01*
X145733890Y-111307156D01*
X145740174Y-111303161D01*
X145746464Y-111299185D01*
X145752759Y-111295231D01*
X145759060Y-111291296D01*
X145765366Y-111287381D01*
X145771678Y-111283487D01*
X145777995Y-111279613D01*
X145784318Y-111275758D01*
X145790646Y-111271924D01*
X145796979Y-111268110D01*
X145803318Y-111264317D01*
X145809662Y-111260543D01*
X145816011Y-111256790D01*
X145822366Y-111253056D01*
X145828725Y-111249343D01*
X145835091Y-111245649D01*
X145841461Y-111241976D01*
X145847836Y-111238323D01*
X145854217Y-111234690D01*
X145860603Y-111231077D01*
X145866994Y-111227484D01*
X145873390Y-111223911D01*
X145879791Y-111220359D01*
X145886197Y-111216826D01*
X145892608Y-111213313D01*
X145899025Y-111209821D01*
X145905446Y-111206348D01*
X145911872Y-111202895D01*
X145918303Y-111199463D01*
X145924739Y-111196050D01*
X145931180Y-111192658D01*
X145937626Y-111189285D01*
X145944077Y-111185933D01*
X145950533Y-111182601D01*
X145956993Y-111179288D01*
X145963459Y-111175996D01*
X145969929Y-111172723D01*
X145976404Y-111169471D01*
X145982883Y-111166238D01*
X145989368Y-111163026D01*
X145995857Y-111159833D01*
X146002350Y-111156661D01*
X146008849Y-111153508D01*
X146015352Y-111150376D01*
X146021859Y-111147263D01*
X146028372Y-111144170D01*
X146034888Y-111141098D01*
X146041410Y-111138045D01*
X146047935Y-111135012D01*
X146054466Y-111131999D01*
X146061001Y-111129006D01*
X146067540Y-111126033D01*
X146074084Y-111123080D01*
X146080632Y-111120147D01*
X146087185Y-111117234D01*
X146093742Y-111114341D01*
X146100303Y-111111468D01*
X146106869Y-111108614D01*
X146113439Y-111105781D01*
X146120013Y-111102967D01*
X146126592Y-111100174D01*
X146133175Y-111097400D01*
X146139762Y-111094646D01*
X146146353Y-111091912D01*
X146152948Y-111089198D01*
X146159548Y-111086504D01*
X146166152Y-111083830D01*
X146172760Y-111081176D01*
X146179372Y-111078541D01*
X146185988Y-111075927D01*
X146192608Y-111073332D01*
X146199232Y-111070758D01*
X146205860Y-111068203D01*
X146212493Y-111065668D01*
X146219128Y-111063153D01*
X146225769Y-111060658D01*
X146232413Y-111058182D01*
X146239061Y-111055727D01*
X146245712Y-111053291D01*
X146252368Y-111050876D01*
X146259027Y-111048480D01*
X146265691Y-111046104D01*
X146272358Y-111043748D01*
X146279029Y-111041412D01*
X146285703Y-111039096D01*
X146292382Y-111036799D01*
X146299064Y-111034523D01*
X146305750Y-111032266D01*
X146312439Y-111030029D01*
X146319133Y-111027812D01*
X146325829Y-111025615D01*
X146332530Y-111023438D01*
X146339233Y-111021280D01*
X146345941Y-111019143D01*
X146352651Y-111017025D01*
X146359366Y-111014927D01*
X146366084Y-111012849D01*
X146372806Y-111010791D01*
X146379530Y-111008753D01*
X146386259Y-111006735D01*
X146392990Y-111004736D01*
X146406464Y-111000799D01*
X146419950Y-110996940D01*
X146433450Y-110993162D01*
X146446963Y-110989462D01*
X146460489Y-110985842D01*
X146474027Y-110982302D01*
X146487578Y-110978841D01*
X146501141Y-110975459D01*
X146514716Y-110972157D01*
X146528303Y-110968934D01*
X146541901Y-110965790D01*
X146555512Y-110962726D01*
X146569133Y-110959741D01*
X146582765Y-110956836D01*
X146596409Y-110954010D01*
X146610063Y-110951264D01*
X146623728Y-110948597D01*
X146637403Y-110946009D01*
X146651088Y-110943501D01*
X146664784Y-110941073D01*
X146678489Y-110938724D01*
X146692204Y-110936454D01*
X146705928Y-110934264D01*
X146719661Y-110932153D01*
X146733404Y-110930122D01*
X146747155Y-110928170D01*
X146760915Y-110926298D01*
X146774683Y-110924506D01*
X146788460Y-110922793D01*
X146802245Y-110921160D01*
X146816037Y-110919606D01*
X146829837Y-110918132D01*
X146843645Y-110916737D01*
X146857460Y-110915423D01*
X146871282Y-110914187D01*
X146885111Y-110913032D01*
X146898946Y-110911956D01*
X146912788Y-110910960D01*
X146926636Y-110910044D01*
X146940490Y-110909207D01*
X146954350Y-110908451D01*
X146968216Y-110907774D01*
X146982087Y-110907176D01*
X146995963Y-110906659D01*
X147009844Y-110906222D01*
X147023730Y-110905864D01*
X147037620Y-110905586D01*
X147051515Y-110905388D01*
X147065414Y-110905271D01*
X147079317Y-110905233D01*
X147093223Y-110905275D01*
X147107133Y-110905397D01*
X147121046Y-110905599D01*
X147134962Y-110905881D01*
X147148881Y-110906243D01*
X147162803Y-110906685D01*
X147176727Y-110907208D01*
X147190653Y-110907810D01*
X147204581Y-110908493D01*
X147218511Y-110909256D01*
X147232442Y-110910099D01*
X147246374Y-110911022D01*
X147260308Y-110912026D01*
X147274242Y-110913109D01*
X147288177Y-110914273D01*
X147302111Y-110915518D01*
X147316047Y-110916842D01*
X147329981Y-110918247D01*
X147343916Y-110919732D01*
X147357850Y-110921298D01*
X147371783Y-110922944D01*
X147385714Y-110924671D01*
X147399645Y-110926478D01*
X147413574Y-110928365D01*
X147427501Y-110930333D01*
X147441426Y-110932382D01*
X147455348Y-110934511D01*
X147469268Y-110936720D01*
X147483186Y-110939010D01*
X147497100Y-110941381D01*
X147511011Y-110943832D01*
X147524918Y-110946364D01*
X147538821Y-110948976D01*
X147552721Y-110951669D01*
X147566616Y-110954443D01*
X147580506Y-110957298D01*
X147594392Y-110960233D01*
X147608273Y-110963249D01*
X147622148Y-110966345D01*
X147636018Y-110969522D01*
X147649881Y-110972780D01*
X147663739Y-110976119D01*
X147677591Y-110979539D01*
X147691435Y-110983039D01*
X147705273Y-110986620D01*
X147719104Y-110990282D01*
X147732927Y-110994025D01*
X147746743Y-110997848D01*
X147760550Y-111001753D01*
X147774350Y-111005738D01*
X147788141Y-111009804D01*
X147801923Y-111013951D01*
X147815696Y-111018179D01*
X147829460Y-111022487D01*
X147843214Y-111026877D01*
X147856959Y-111031347D01*
X147870693Y-111035898D01*
X147884417Y-111040530D01*
X147898130Y-111045243D01*
X147911833Y-111050037D01*
X147925524Y-111054912D01*
X147939204Y-111059867D01*
X147952872Y-111064904D01*
X147966528Y-111070021D01*
X147980172Y-111075219D01*
X147993803Y-111080498D01*
X148007421Y-111085858D01*
X148021027Y-111091298D01*
X148034618Y-111096820D01*
X148048196Y-111102422D01*
X148061760Y-111108105D01*
X148075310Y-111113869D01*
X148088846Y-111119713D01*
X148102366Y-111125639D01*
X148115871Y-111131645D01*
X148129361Y-111137732D01*
X148142836Y-111143900D01*
X148156294Y-111150148D01*
X148169736Y-111156477D01*
X148183161Y-111162887D01*
X148196570Y-111169377D01*
X148209962Y-111175948D01*
X148223336Y-111182600D01*
X148236692Y-111189332D01*
X148250031Y-111196145D01*
X148263351Y-111203038D01*
X148276653Y-111210012D01*
X148289936Y-111217066D01*
X148303200Y-111224201D01*
X148316444Y-111231417D01*
X148329669Y-111238712D01*
X148342873Y-111246088D01*
X148356057Y-111253545D01*
X148369221Y-111261081D01*
X148382364Y-111268699D01*
X148395486Y-111276396D01*
X148408586Y-111284173D01*
X148415128Y-111288092D01*
X148421665Y-111292031D01*
X148428196Y-111295990D01*
X148434721Y-111299969D01*
X148441241Y-111303968D01*
X148447755Y-111307987D01*
X148454264Y-111312026D01*
X148460767Y-111316085D01*
X148467264Y-111320164D01*
X148473755Y-111324263D01*
X148480241Y-111328382D01*
X148486721Y-111332521D01*
X148493195Y-111336680D01*
X148499662Y-111340858D01*
X148506125Y-111345058D01*
X148512580Y-111349276D01*
X148519031Y-111353515D01*
X148525474Y-111357774D01*
X148531913Y-111362053D01*
X148538344Y-111366351D01*
X148544770Y-111370670D01*
X148551189Y-111375009D01*
X148557602Y-111379367D01*
X148564009Y-111383745D01*
X148570410Y-111388144D01*
X148576804Y-111392562D01*
X148583192Y-111397000D01*
X148589573Y-111401458D01*
X148595948Y-111405936D01*
X148602316Y-111410434D01*
X148608678Y-111414952D01*
X148615033Y-111419489D01*
X148621382Y-111424047D01*
X148627724Y-111428624D01*
X148634059Y-111433221D01*
X148640388Y-111437838D01*
X148646710Y-111442475D01*
X148653025Y-111447131D01*
X148659333Y-111451808D01*
X148665635Y-111456504D01*
X148671929Y-111461220D01*
X148678217Y-111465956D01*
X148684497Y-111470712D01*
X148690771Y-111475487D01*
X148697037Y-111480283D01*
X148703297Y-111485098D01*
X148709549Y-111489932D01*
X148715794Y-111494787D01*
X148722032Y-111499661D01*
X148728263Y-111504555D01*
X148734487Y-111509469D01*
X148740703Y-111514402D01*
X148746912Y-111519356D01*
X148753113Y-111524329D01*
X148759307Y-111529321D01*
X148765494Y-111534333D01*
X148771673Y-111539366D01*
X148777845Y-111544417D01*
X148784009Y-111549489D01*
X148790165Y-111554580D01*
X148796314Y-111559690D01*
X148802455Y-111564821D01*
X148808589Y-111569971D01*
X148814714Y-111575140D01*
X148820833Y-111580329D01*
X148826943Y-111585538D01*
X148833045Y-111590767D01*
X148839139Y-111596014D01*
X148845226Y-111601282D01*
X148851305Y-111606569D01*
X148857375Y-111611876D01*
X148863438Y-111617202D01*
X148869492Y-111622548D01*
X148875539Y-111627913D01*
X148881577Y-111633298D01*
X148887607Y-111638703D01*
X148893629Y-111644127D01*
X148899643Y-111649570D01*
X148905648Y-111655033D01*
X148911645Y-111660516D01*
X148917634Y-111666018D01*
X148923614Y-111671539D01*
X148929586Y-111677080D01*
X148935549Y-111682640D01*
X148941505Y-111688220D01*
X148947451Y-111693819D01*
X148953389Y-111699438D01*
X148959318Y-111705076D01*
X148965239Y-111710733D01*
X148971151Y-111716410D01*
X148977054Y-111722106D01*
X148982949Y-111727821D01*
X148988834Y-111733556D01*
X148994711Y-111739310D01*
X149000579Y-111745084D01*
X149006439Y-111750877D01*
X149012289Y-111756689D01*
X149018130Y-111762521D01*
X149023963Y-111768372D01*
X149029786Y-111774242D01*
X149035600Y-111780131D01*
X149041405Y-111786040D01*
X149047202Y-111791968D01*
X149052988Y-111797915D01*
X149058766Y-111803881D01*
X149064535Y-111809867D01*
X149070294Y-111815872D01*
X149076044Y-111821896D01*
X149081784Y-111827939D01*
X149087515Y-111834002D01*
X149093237Y-111840083D01*
X149098949Y-111846184D01*
X149104652Y-111852304D01*
X149110346Y-111858443D01*
X149116029Y-111864601D01*
X149121704Y-111870778D01*
X149127368Y-111876975D01*
X149133023Y-111883190D01*
X149138668Y-111889425D01*
X149144304Y-111895679D01*
X149149930Y-111901951D01*
X149155546Y-111908243D01*
X149161152Y-111914554D01*
X149166748Y-111920884D01*
X149172335Y-111927233D01*
X149177911Y-111933601D01*
X149183478Y-111939988D01*
X149189034Y-111946394D01*
X149194581Y-111952818D01*
X149200117Y-111959262D01*
X149205643Y-111965725D01*
X149211159Y-111972207D01*
X149216665Y-111978707D01*
X149222161Y-111985227D01*
X149227647Y-111991765D01*
X149233122Y-111998323D01*
X149238587Y-112004899D01*
X149244042Y-112011494D01*
X149249486Y-112018108D01*
X149254920Y-112024741D01*
X149260343Y-112031392D01*
X149265756Y-112038063D01*
X149271159Y-112044752D01*
X149276551Y-112051460D01*
X149281932Y-112058187D01*
X149287303Y-112064932D01*
X149292663Y-112071697D01*
X149298013Y-112078480D01*
X149303351Y-112085282D01*
X149308679Y-112092102D01*
X149313996Y-112098942D01*
X149319303Y-112105800D01*
X149324598Y-112112676D01*
X149329883Y-112119572D01*
X149335157Y-112126486D01*
X149340420Y-112133418D01*
X149345672Y-112140370D01*
X149350913Y-112147340D01*
X149356142Y-112154328D01*
X149361361Y-112161335D01*
X149366569Y-112168361D01*
X149371765Y-112175405D01*
X149376951Y-112182468D01*
X149382125Y-112189550D01*
X149387288Y-112196650D01*
X149392439Y-112203768D01*
X149397580Y-112210905D01*
X149402709Y-112218061D01*
X149407826Y-112225235D01*
X149412933Y-112232427D01*
X149418027Y-112239638D01*
X149423111Y-112246868D01*
X149428182Y-112254115D01*
X149433243Y-112261382D01*
X149438291Y-112268666D01*
X149443329Y-112275970D01*
X149448354Y-112283291D01*
X149453368Y-112290631D01*
X149458370Y-112297989D01*
X149463361Y-112305366D01*
X149468339Y-112312761D01*
X149473306Y-112320174D01*
X149478261Y-112327605D01*
X149483205Y-112335055D01*
X149488136Y-112342523D01*
X149493055Y-112350010D01*
X149497963Y-112357514D01*
X149502858Y-112365037D01*
X149507742Y-112372578D01*
X149512613Y-112380138D01*
X149517473Y-112387715D01*
X149522320Y-112395311D01*
X149527155Y-112402925D01*
X149531978Y-112410557D01*
X149536789Y-112418208D01*
X149541588Y-112425876D01*
X149546374Y-112433562D01*
X149551148Y-112441267D01*
X149555910Y-112448990D01*
X149560659Y-112456731D01*
X149565396Y-112464490D01*
X149570121Y-112472267D01*
X149574832Y-112480062D01*
X149579532Y-112487875D01*
X149584219Y-112495706D01*
X149588894Y-112503555D01*
X149593556Y-112511422D01*
X149598205Y-112519308D01*
X149602842Y-112527211D01*
X149607466Y-112535132D01*
X149612077Y-112543071D01*
X149616676Y-112551028D01*
X149621262Y-112559003D01*
X149625835Y-112566996D01*
X149630395Y-112575006D01*
X149634943Y-112583035D01*
X149639477Y-112591081D01*
X149643999Y-112599146D01*
X149648508Y-112607227D01*
X149653004Y-112615328D01*
X149657486Y-112623445D01*
X149661956Y-112631581D01*
X149666413Y-112639734D01*
X149670856Y-112647905D01*
X149675287Y-112656094D01*
X149679704Y-112664301D01*
X149684108Y-112672525D01*
X149688499Y-112680768D01*
X149692877Y-112689027D01*
X149697241Y-112697305D01*
X149701592Y-112705600D01*
X149705930Y-112713913D01*
X149710254Y-112722243D01*
X149714565Y-112730592D01*
X149718863Y-112738957D01*
X149723147Y-112747341D01*
X149727418Y-112755742D01*
X149731675Y-112764161D01*
X149735918Y-112772596D01*
X149740149Y-112781051D01*
X149744365Y-112789522D01*
X149748568Y-112798011D01*
X149752757Y-112806517D01*
X149756933Y-112815041D01*
X149761094Y-112823582D01*
X149765242Y-112832141D01*
X149769377Y-112840717D01*
X149773497Y-112849311D01*
X149777604Y-112857922D01*
X149781697Y-112866551D01*
X149785775Y-112875197D01*
X149789841Y-112883861D01*
X149793891Y-112892541D01*
X149797929Y-112901240D01*
X149801952Y-112909955D01*
X149805961Y-112918689D01*
X149809956Y-112927439D01*
X149813937Y-112936207D01*
X149817903Y-112944991D01*
X149821856Y-112953794D01*
X149825794Y-112962613D01*
X149829719Y-112971450D01*
X149833628Y-112980304D01*
X149837524Y-112989176D01*
X149841406Y-112998064D01*
X149845273Y-113006970D01*
X149849125Y-113015893D01*
X149852964Y-113024833D01*
X149856788Y-113033791D01*
X149860598Y-113042765D01*
X149864393Y-113051757D01*
X149868173Y-113060766D01*
X149871939Y-113069792D01*
X149875691Y-113078835D01*
X149879428Y-113087895D01*
X149883150Y-113096973D01*
X149886858Y-113106067D01*
X149890551Y-113115178D01*
X149894230Y-113124307D01*
X149897893Y-113133453D01*
X149901542Y-113142615D01*
X149905177Y-113151795D01*
X149908796Y-113160991D01*
X149912401Y-113170205D01*
X149915990Y-113179435D01*
X149919565Y-113188683D01*
X149923125Y-113197947D01*
X149926670Y-113207229D01*
X149930200Y-113216527D01*
X149933715Y-113225842D01*
X149937215Y-113235174D01*
X149940701Y-113244523D01*
X149944170Y-113253889D01*
X149947625Y-113263272D01*
X149951065Y-113272671D01*
X149954490Y-113282088D01*
X149957899Y-113291521D01*
X149961293Y-113300971D01*
X149964672Y-113310438D01*
X149968036Y-113319922D01*
X149971384Y-113329422D01*
X149974717Y-113338939D01*
X149978035Y-113348473D01*
X149981338Y-113358024D01*
X149984624Y-113367591D01*
X149987896Y-113377175D01*
X149991152Y-113386776D01*
X149994393Y-113396393D01*
X149997618Y-113406027D01*
X150000828Y-113415678D01*
X150004022Y-113425345D01*
X150007200Y-113435030D01*
X150010363Y-113444730D01*
X150013510Y-113454447D01*
X150016642Y-113464181D01*
X150019758Y-113473932D01*
X150022858Y-113483698D01*
X150025942Y-113493482D01*
X150029011Y-113503282D01*
X150032064Y-113513099D01*
X150035101Y-113522932D01*
X150038122Y-113532782D01*
X150041127Y-113542647D01*
X150044117Y-113552530D01*
X150047090Y-113562429D01*
X150050048Y-113572345D01*
X150052989Y-113582277D01*
X150055915Y-113592225D01*
X150058824Y-113602190D01*
X150061718Y-113612171D01*
X150064595Y-113622169D01*
X150067456Y-113632183D01*
X150070301Y-113642213D01*
X150073130Y-113652260D01*
X150075943Y-113662323D01*
X150078740Y-113672403D01*
X150081520Y-113682498D01*
X150084284Y-113692610D01*
X150087031Y-113702738D01*
X150089763Y-113712883D01*
X150092478Y-113723044D01*
X150095177Y-113733222D01*
X150097859Y-113743414D01*
X150100525Y-113753625D01*
X150103174Y-113763850D01*
X150105807Y-113774093D01*
X150108424Y-113784350D01*
X150111024Y-113794625D01*
X150113607Y-113804916D01*
X150116174Y-113815223D01*
X150118724Y-113825545D01*
X150121258Y-113835885D01*
X150123774Y-113846240D01*
X150126275Y-113856611D01*
X150128758Y-113866999D01*
X150131225Y-113877403D01*
X150133675Y-113887822D01*
X150136108Y-113898258D01*
X150138525Y-113908709D01*
X150140924Y-113919178D01*
X150143307Y-113929661D01*
X150145673Y-113940161D01*
X150148022Y-113950677D01*
X150150354Y-113961209D01*
X150152669Y-113971756D01*
X150154967Y-113982321D01*
X150157248Y-113992900D01*
X150159512Y-114003496D01*
X150161759Y-114014108D01*
X150163989Y-114024736D01*
X150166202Y-114035379D01*
X150168397Y-114046039D01*
X150170576Y-114056714D01*
X150172737Y-114067406D01*
X150174881Y-114078112D01*
X150177008Y-114088836D01*
X150179118Y-114099574D01*
X150181210Y-114110329D01*
X150183285Y-114121099D01*
X150185343Y-114131886D01*
X150187383Y-114142688D01*
X150189406Y-114153506D01*
X150191411Y-114164340D01*
X150193400Y-114175190D01*
X150195370Y-114186054D01*
X150197323Y-114196936D01*
X150199259Y-114207832D01*
X150201177Y-114218745D01*
X150203077Y-114229673D01*
X150204960Y-114240617D01*
X150206826Y-114251576D01*
X150208674Y-114262552D01*
X150210503Y-114273543D01*
X150212316Y-114284550D01*
X150214110Y-114295572D01*
X150215887Y-114306610D01*
X150217647Y-114317663D01*
X150219388Y-114328733D01*
X150221112Y-114339817D01*
X150222817Y-114350918D01*
X150224505Y-114362033D01*
X150226175Y-114373165D01*
X150227827Y-114384312D01*
X150229462Y-114395475D01*
X150231078Y-114406653D01*
X150232676Y-114417847D01*
X150234256Y-114429056D01*
X150235819Y-114440281D01*
X150237363Y-114451521D01*
X150238889Y-114462777D01*
X150240397Y-114474048D01*
X150241887Y-114485335D01*
X150243358Y-114496637D01*
X150244812Y-114507955D01*
X150246247Y-114519287D01*
X150247664Y-114530636D01*
X150249063Y-114542000D01*
X150250444Y-114553379D01*
X150251806Y-114564774D01*
X150253150Y-114576184D01*
X150254476Y-114587609D01*
X150255783Y-114599050D01*
X150257072Y-114610506D01*
X150258343Y-114621978D01*
X150259595Y-114633464D01*
X150260828Y-114644967D01*
X150262043Y-114656484D01*
X150263240Y-114668017D01*
X150264418Y-114679565D01*
X150265578Y-114691129D01*
X150266718Y-114702707D01*
X150267841Y-114714301D01*
X150268944Y-114725910D01*
X150270029Y-114737535D01*
X150271096Y-114749174D01*
X150272143Y-114760829D01*
X150273172Y-114772499D01*
X150274182Y-114784184D01*
X150275174Y-114795884D01*
X150276146Y-114807600D01*
X150277100Y-114819331D01*
X150278035Y-114831077D01*
X150278951Y-114842838D01*
X150279848Y-114854615D01*
X150280726Y-114866405D01*
X150281586Y-114878212D01*
X150282426Y-114890033D01*
X150283247Y-114901871D01*
X150284050Y-114913722D01*
X150284833Y-114925589D01*
X150285597Y-114937471D01*
X150286342Y-114949368D01*
X150287068Y-114961280D01*
X150287775Y-114973207D01*
X150288463Y-114985149D01*
X150289131Y-114997107D01*
X150289780Y-115009078D01*
X150290411Y-115021066D01*
X150291021Y-115033068D01*
X150291613Y-115045085D01*
X150292185Y-115057117D01*
X150292738Y-115069165D01*
X150293272Y-115081226D01*
X150293786Y-115093304D01*
X150294281Y-115105395D01*
X150294756Y-115117502D01*
X150295212Y-115129624D01*
X150295648Y-115141761D01*
X150296065Y-115153912D01*
X150296463Y-115166079D01*
X150296841Y-115178260D01*
X150297199Y-115190457D01*
X150297538Y-115202667D01*
X150297857Y-115214894D01*
X150298156Y-115227134D01*
X150298436Y-115239390D01*
X150298696Y-115251660D01*
X150298937Y-115263946D01*
X150299158Y-115276246D01*
X150299359Y-115288561D01*
X150299540Y-115300890D01*
X150299701Y-115313235D01*
X150299718Y-115314614D01*
X144873195Y-117644682D02*
X144878991Y-117637131D01*
X144884773Y-117629564D01*
X144890503Y-117622034D01*
X144896219Y-117614488D01*
X144901883Y-117606977D01*
X144907534Y-117599450D01*
X144913134Y-117591958D01*
X144918721Y-117584449D01*
X144924259Y-117576974D01*
X144929783Y-117569482D01*
X144935258Y-117562023D01*
X144940721Y-117554547D01*
X144946136Y-117547103D01*
X144951538Y-117539642D01*
X144956893Y-117532211D01*
X144962235Y-117524764D01*
X144967532Y-117517346D01*
X144972816Y-117509912D01*
X144978055Y-117502506D01*
X144983280Y-117495084D01*
X144988462Y-117487689D01*
X144993631Y-117480278D01*
X144998757Y-117472893D01*
X145003870Y-117465493D01*
X145008941Y-117458117D01*
X145013998Y-117450726D01*
X145019015Y-117443358D01*
X145024017Y-117435975D01*
X145028980Y-117428616D01*
X145033929Y-117421241D01*
X145038839Y-117413888D01*
X145043735Y-117406520D01*
X145048592Y-117399174D01*
X145053436Y-117391812D01*
X145058241Y-117384471D01*
X145063033Y-117377114D01*
X145067788Y-117369778D01*
X145072529Y-117362426D01*
X145077233Y-117355095D01*
X145081923Y-117347747D01*
X145086578Y-117340419D01*
X145091218Y-117333075D01*
X145095823Y-117325749D01*
X145100414Y-117318408D01*
X145104971Y-117311084D01*
X145109513Y-117303746D01*
X145114021Y-117296424D01*
X145118515Y-117289087D01*
X145122976Y-117281766D01*
X145127422Y-117274430D01*
X145131835Y-117267110D01*
X145136234Y-117259774D01*
X145140600Y-117252454D01*
X145144953Y-117245119D01*
X145149273Y-117237798D01*
X145153579Y-117230462D01*
X145157853Y-117223140D01*
X145162113Y-117215803D01*
X145166342Y-117208479D01*
X145170556Y-117201140D01*
X145174740Y-117193815D01*
X145178909Y-117186474D01*
X145183048Y-117179146D01*
X145187173Y-117171802D01*
X145191268Y-117164471D01*
X145195348Y-117157124D01*
X145199399Y-117149790D01*
X145203435Y-117142440D01*
X145207442Y-117135101D01*
X145211435Y-117127747D01*
X145215399Y-117120404D01*
X145219349Y-117113045D01*
X145223270Y-117105697D01*
X145227177Y-117098333D01*
X145231055Y-117090980D01*
X145234919Y-117083611D01*
X145238755Y-117076252D01*
X145242577Y-117068877D01*
X145246372Y-117061512D01*
X145250151Y-117054131D01*
X145253904Y-117046759D01*
X145257642Y-117039372D01*
X145261353Y-117031993D01*
X145265050Y-117024599D01*
X145268720Y-117017213D01*
X145272375Y-117009811D01*
X145276004Y-117002417D01*
X145279619Y-116995008D01*
X145283207Y-116987605D01*
X145286781Y-116980188D01*
X145290329Y-116972777D01*
X145293863Y-116965351D01*
X145297371Y-116957931D01*
X145300864Y-116950496D01*
X145304332Y-116943067D01*
X145307785Y-116935623D01*
X145311214Y-116928185D01*
X145314627Y-116920731D01*
X145318016Y-116913282D01*
X145321390Y-116905818D01*
X145324739Y-116898359D01*
X145328074Y-116890885D01*
X145331384Y-116883415D01*
X145334680Y-116875930D01*
X145337951Y-116868450D01*
X145341208Y-116860954D01*
X145344440Y-116853462D01*
X145347658Y-116845954D01*
X145350852Y-116838450D01*
X145354031Y-116830931D01*
X145357187Y-116823415D01*
X145360328Y-116815884D01*
X145363445Y-116808356D01*
X145366547Y-116800812D01*
X145369627Y-116793271D01*
X145372691Y-116785715D01*
X145375732Y-116778161D01*
X145378759Y-116770591D01*
X145381762Y-116763024D01*
X145384751Y-116755441D01*
X145387717Y-116747860D01*
X145390667Y-116740263D01*
X145393596Y-116732668D01*
X145396509Y-116725058D01*
X145399400Y-116717448D01*
X145402275Y-116709823D01*
X145405129Y-116702200D01*
X145407967Y-116694560D01*
X145410784Y-116686921D01*
X145413584Y-116679266D01*
X145416364Y-116671612D01*
X145419128Y-116663943D01*
X145421870Y-116656273D01*
X145424597Y-116648587D01*
X145427303Y-116640902D01*
X145429992Y-116633201D01*
X145432661Y-116625499D01*
X145435314Y-116617782D01*
X145437946Y-116610064D01*
X145440563Y-116602330D01*
X145443158Y-116594595D01*
X145445738Y-116586844D01*
X145448296Y-116579092D01*
X145450839Y-116571325D01*
X145453362Y-116563556D01*
X145455868Y-116555770D01*
X145458354Y-116547984D01*
X145460824Y-116540181D01*
X145463274Y-116532376D01*
X145465708Y-116524556D01*
X145468121Y-116516733D01*
X145470518Y-116508894D01*
X145472896Y-116501052D01*
X145475257Y-116493195D01*
X145477598Y-116485335D01*
X145479922Y-116477459D01*
X145482227Y-116469580D01*
X145484516Y-116461684D01*
X145486785Y-116453786D01*
X145489037Y-116445871D01*
X145491270Y-116437953D01*
X145493486Y-116430019D01*
X145495683Y-116422081D01*
X145497863Y-116414126D01*
X145500024Y-116406168D01*
X145502168Y-116398194D01*
X145504293Y-116390215D01*
X145506401Y-116382220D01*
X145508490Y-116374221D01*
X145510562Y-116366205D01*
X145512615Y-116358185D01*
X145514651Y-116350148D01*
X145516668Y-116342106D01*
X145518669Y-116334048D01*
X145520650Y-116325985D01*
X145522614Y-116317905D01*
X145524559Y-116309820D01*
X145526488Y-116301719D01*
X145528397Y-116293611D01*
X145530289Y-116285488D01*
X145532163Y-116277358D01*
X145534019Y-116269212D01*
X145535857Y-116261060D01*
X145537677Y-116252891D01*
X145539479Y-116244716D01*
X145541263Y-116236524D01*
X145543029Y-116228326D01*
X145544778Y-116220111D01*
X145546507Y-116211889D01*
X145548220Y-116203650D01*
X145549914Y-116195405D01*
X145551590Y-116187142D01*
X145553248Y-116178873D01*
X145554889Y-116170586D01*
X145556510Y-116162292D01*
X145558115Y-116153982D01*
X145559701Y-116145663D01*
X145561269Y-116137328D01*
X145562819Y-116128985D01*
X145564351Y-116120624D01*
X145565865Y-116112256D01*
X145567361Y-116103871D01*
X145568838Y-116095477D01*
X145570298Y-116087066D01*
X145571740Y-116078647D01*
X145573163Y-116070210D01*
X145574568Y-116061765D01*
X145575956Y-116053303D01*
X145577325Y-116044831D01*
X145578676Y-116036343D01*
X145580008Y-116027845D01*
X145581323Y-116019330D01*
X145582619Y-116010805D01*
X145583897Y-116002263D01*
X145585157Y-115993712D01*
X145586399Y-115985143D01*
X145587622Y-115976564D01*
X145588827Y-115967968D01*
X145590014Y-115959362D01*
X145591183Y-115950738D01*
X145592333Y-115942104D01*
X145593465Y-115933452D01*
X145594578Y-115924790D01*
X145595673Y-115916111D01*
X145596750Y-115907420D01*
X145597808Y-115898712D01*
X145598848Y-115889993D01*
X145599869Y-115881257D01*
X145600872Y-115872509D01*
X145601856Y-115863743D01*
X145602822Y-115854966D01*
X145603770Y-115846171D01*
X145604698Y-115837365D01*
X145605608Y-115828541D01*
X145606500Y-115819705D01*
X145607373Y-115810851D01*
X145608227Y-115801985D01*
X145609063Y-115793101D01*
X145609880Y-115784205D01*
X145610678Y-115775291D01*
X145611458Y-115766364D01*
X145612218Y-115757420D01*
X145612960Y-115748463D01*
X145613683Y-115739487D01*
X145614388Y-115730499D01*
X145615073Y-115721493D01*
X145615739Y-115712473D01*
X145616387Y-115703436D01*
X145617016Y-115694384D01*
X145617625Y-115685315D01*
X145618216Y-115676232D01*
X145618788Y-115667131D01*
X145619340Y-115658016D01*
X145619874Y-115648883D01*
X145620388Y-115639736D01*
X145620884Y-115630570D01*
X145621360Y-115621390D01*
X145621817Y-115612192D01*
X145622507Y-115597453D01*
X145195028Y-113133580D02*
X145199109Y-113125400D01*
X145203197Y-113117250D01*
X145207294Y-113109128D01*
X145211398Y-113101036D01*
X145215510Y-113092972D01*
X145219629Y-113084939D01*
X145223756Y-113076932D01*
X145227891Y-113068956D01*
X145232033Y-113061007D01*
X145236183Y-113053089D01*
X145240341Y-113045197D01*
X145244505Y-113037336D01*
X145248678Y-113029501D01*
X145252857Y-113021697D01*
X145257045Y-113013919D01*
X145261240Y-113006171D01*
X145265442Y-112998450D01*
X145269651Y-112990759D01*
X145273869Y-112983094D01*
X145278092Y-112975459D01*
X145282324Y-112967850D01*
X145286563Y-112960271D01*
X145290809Y-112952719D01*
X145295062Y-112945196D01*
X145299323Y-112937698D01*
X145303590Y-112930231D01*
X145307866Y-112922789D01*
X145312147Y-112915377D01*
X145316437Y-112907991D01*
X145320732Y-112900634D01*
X145325036Y-112893302D01*
X145329346Y-112886000D01*
X145333664Y-112878724D01*
X145337987Y-112871477D01*
X145342319Y-112864254D01*
X145346657Y-112857062D01*
X145351003Y-112849894D01*
X145355354Y-112842755D01*
X145359714Y-112835642D01*
X145364079Y-112828557D01*
X145368453Y-112821498D01*
X145372831Y-112814467D01*
X145377219Y-112807461D01*
X145381611Y-112800484D01*
X145386012Y-112793532D01*
X145390417Y-112786608D01*
X145394832Y-112779709D01*
X145399251Y-112772839D01*
X145403678Y-112765993D01*
X145408111Y-112759176D01*
X145412552Y-112752382D01*
X145416998Y-112745618D01*
X145421452Y-112738877D01*
X145425911Y-112732166D01*
X145430378Y-112725477D01*
X145434850Y-112718818D01*
X145439330Y-112712182D01*
X145443815Y-112705575D01*
X145448308Y-112698991D01*
X145452806Y-112692436D01*
X145457312Y-112685904D01*
X145461823Y-112679400D01*
X145466342Y-112672920D01*
X145470866Y-112666468D01*
X145475398Y-112660039D01*
X145479934Y-112653638D01*
X145484478Y-112647260D01*
X145489027Y-112640911D01*
X145493584Y-112634584D01*
X145498145Y-112628286D01*
X145502715Y-112622010D01*
X145507289Y-112615762D01*
X145511871Y-112609537D01*
X145516457Y-112603340D01*
X145521051Y-112597165D01*
X145525650Y-112591018D01*
X145530257Y-112584894D01*
X145534867Y-112578797D01*
X145539486Y-112572723D01*
X145544109Y-112566676D01*
X145548741Y-112560652D01*
X145553375Y-112554655D01*
X145558019Y-112548680D01*
X145562666Y-112542733D01*
X145567321Y-112536808D01*
X145571980Y-112530910D01*
X145576647Y-112525034D01*
X145581318Y-112519186D01*
X145585998Y-112513359D01*
X145590680Y-112507560D01*
X145595371Y-112501782D01*
X145600066Y-112496031D01*
X145604769Y-112490302D01*
X145609475Y-112484600D01*
X145614189Y-112478920D01*
X145618907Y-112473266D01*
X145623633Y-112467634D01*
X145628363Y-112462029D01*
X145633101Y-112456445D01*
X145637841Y-112450889D01*
X145642591Y-112445353D01*
X145647343Y-112439844D01*
X145652104Y-112434356D01*
X145656868Y-112428895D01*
X145661640Y-112423455D01*
X145666415Y-112418042D01*
X145671198Y-112412649D01*
X145675985Y-112407284D01*
X145680779Y-112401938D01*
X145685577Y-112396620D01*
X145695192Y-112386051D01*
X145704828Y-112375575D01*
X145714488Y-112365194D01*
X145724169Y-112354906D01*
X145733872Y-112344710D01*
X145743596Y-112334608D01*
X145753343Y-112324598D01*
X145763111Y-112314680D01*
X145772901Y-112304854D01*
X145782712Y-112295120D01*
X145792544Y-112285477D01*
X145802397Y-112275925D01*
X145812272Y-112266463D01*
X145822167Y-112257092D01*
X145832083Y-112247811D01*
X145842020Y-112238619D01*
X145851978Y-112229517D01*
X145861956Y-112220505D01*
X145871954Y-112211581D01*
X145881973Y-112202746D01*
X145892012Y-112194000D01*
X145902071Y-112185341D01*
X145912151Y-112176771D01*
X145922250Y-112168289D01*
X145932369Y-112159894D01*
X145942508Y-112151586D01*
X145952666Y-112143365D01*
X145962844Y-112135231D01*
X145973041Y-112127183D01*
X145983258Y-112119222D01*
X145993494Y-112111346D01*
X146003749Y-112103557D01*
X146014023Y-112095853D01*
X146024316Y-112088235D01*
X146034627Y-112080702D01*
X146044958Y-112073254D01*
X146055307Y-112065891D01*
X146065674Y-112058613D01*
X146076060Y-112051419D01*
X146086464Y-112044309D01*
X146096886Y-112037284D01*
X146107326Y-112030343D01*
X146117784Y-112023485D01*
X146128260Y-112016711D01*
X146138754Y-112010021D01*
X146149265Y-112003414D01*
X146159793Y-111996890D01*
X146170339Y-111990449D01*
X146180902Y-111984091D01*
X146191482Y-111977816D01*
X146202078Y-111971623D01*
X146212692Y-111965514D01*
X146223322Y-111959486D01*
X146233968Y-111953541D01*
X146244631Y-111947678D01*
X146255309Y-111941897D01*
X146266004Y-111936198D01*
X146276714Y-111930581D01*
X146287440Y-111925046D01*
X146298181Y-111919592D01*
X146308937Y-111914221D01*
X146319709Y-111908930D01*
X146330495Y-111903722D01*
X146341296Y-111898594D01*
X146352111Y-111893548D01*
X146362940Y-111888584D01*
X146373783Y-111883701D01*
X146384640Y-111878898D01*
X146395510Y-111874177D01*
X146406393Y-111869538D01*
X146417289Y-111864979D01*
X146428198Y-111860501D01*
X146439119Y-111856105D01*
X146450052Y-111851789D01*
X146460997Y-111847555D01*
X146471953Y-111843401D01*
X146482920Y-111839328D01*
X146493898Y-111835337D01*
X146504886Y-111831426D01*
X146515884Y-111827597D01*
X146526891Y-111823848D01*
X146537908Y-111820180D01*
X146548933Y-111816594D01*
X146559967Y-111813088D01*
X146571008Y-111809664D01*
X146582057Y-111806320D01*
X146593112Y-111803058D01*
X146604174Y-111799877D01*
X146615242Y-111796777D01*
X146626314Y-111793758D01*
X146637392Y-111790820D01*
X146648473Y-111787964D01*
X146659558Y-111785189D01*
X146670645Y-111782495D01*
X146681734Y-111779883D01*
X146692825Y-111777352D01*
X146703916Y-111774903D01*
X146715007Y-111772535D01*
X146726097Y-111770249D01*
X146737184Y-111768044D01*
X146748270Y-111765921D01*
X146759351Y-111763880D01*
X146770428Y-111761920D01*
X146781498Y-111760042D01*
X146792563Y-111758246D01*
X146803619Y-111756532D01*
X146814666Y-111754900D01*
X146825704Y-111753349D01*
X146836729Y-111751880D01*
X146847742Y-111750494D01*
X146858741Y-111749189D01*
X146869725Y-111747966D01*
X146880692Y-111746824D01*
X146891640Y-111745765D01*
X146902568Y-111744787D01*
X146913474Y-111743891D01*
X146924356Y-111743077D01*
X146935213Y-111742344D01*
X146946043Y-111741693D01*
X146956844Y-111741123D01*
X146967613Y-111740634D01*
X146978348Y-111740226D01*
X146989048Y-111739899D01*
X146999709Y-111739653D01*
X147010329Y-111739486D01*
X147020906Y-111739400D01*
X147031437Y-111739394D01*
X147041918Y-111739466D01*
X147052347Y-111739618D01*
X147062722Y-111739849D01*
X147073037Y-111740157D01*
X147083291Y-111740543D01*
X147093479Y-111741005D01*
X147103597Y-111741544D01*
X147113642Y-111742158D01*
X147123610Y-111742847D01*
X147133497Y-111743610D01*
X147143297Y-111744445D01*
X147153006Y-111745352D01*
X147162619Y-111746330D01*
X147172132Y-111747377D01*
X147181539Y-111748492D01*
X147190834Y-111749673D01*
X147200012Y-111750919D01*
X147209066Y-111752228D01*
X147217992Y-111753599D01*
X147226782Y-111755028D01*
X147228876Y-111755381D01*
X145502082Y-118300330D02*
X145557297Y-118196029D01*
X145609627Y-118097179D01*
X145635062Y-118049075D01*
X145660013Y-118001816D01*
X145684485Y-117955373D01*
X145708478Y-117909718D01*
X145731998Y-117864822D01*
X145743580Y-117842651D01*
X145755045Y-117820659D01*
X145766392Y-117798843D01*
X145777623Y-117777199D01*
X145788737Y-117755725D01*
X145799734Y-117734416D01*
X145810616Y-117713268D01*
X145821382Y-117692280D01*
X145832033Y-117671446D01*
X145842570Y-117650764D01*
X145852991Y-117630229D01*
X145863299Y-117609839D01*
X145873493Y-117589591D01*
X145883573Y-117569479D01*
X145893540Y-117549501D01*
X145903395Y-117529654D01*
X145913137Y-117509934D01*
X145922767Y-117490337D01*
X145932285Y-117470861D01*
X145941692Y-117451500D01*
X145950988Y-117432253D01*
X145960173Y-117413115D01*
X145969248Y-117394082D01*
X145978213Y-117375153D01*
X145987068Y-117356322D01*
X145995814Y-117337586D01*
X146004451Y-117318943D01*
X146012980Y-117300388D01*
X146021400Y-117281917D01*
X146029713Y-117263529D01*
X146037918Y-117245218D01*
X146046015Y-117226981D01*
X146054006Y-117208815D01*
X146061891Y-117190717D01*
X146069669Y-117172683D01*
X146077342Y-117154709D01*
X146084909Y-117136792D01*
X146092371Y-117118928D01*
X146099728Y-117101114D01*
X146106981Y-117083347D01*
X146110568Y-117074479D01*
X146114130Y-117065622D01*
X146117665Y-117056774D01*
X146121175Y-117047937D01*
X146124659Y-117039108D01*
X146128117Y-117030287D01*
X146131549Y-117021475D01*
X146134955Y-117012670D01*
X146138336Y-117003873D01*
X146141691Y-116995082D01*
X146145021Y-116986297D01*
X146148325Y-116977519D01*
X146151604Y-116968746D01*
X146154857Y-116959978D01*
X146158085Y-116951215D01*
X146161287Y-116942455D01*
X146164465Y-116933700D01*
X146167616Y-116924947D01*
X146170743Y-116916198D01*
X146173845Y-116907451D01*
X146176921Y-116898706D01*
X146179972Y-116889962D01*
X146182998Y-116881220D01*
X146186000Y-116872478D01*
X146188976Y-116863736D01*
X146191927Y-116854994D01*
X146194853Y-116846252D01*
X146197755Y-116837508D01*
X146200632Y-116828763D01*
X146203484Y-116820016D01*
X146206311Y-116811266D01*
X146209114Y-116802514D01*
X146211892Y-116793758D01*
X146214645Y-116784999D01*
X146217374Y-116776235D01*
X146220079Y-116767467D01*
X146222759Y-116758694D01*
X146225414Y-116749915D01*
X146228046Y-116741130D01*
X146230653Y-116732339D01*
X146233235Y-116723541D01*
X146235794Y-116714736D01*
X146238328Y-116705923D01*
X146240838Y-116697103D01*
X146243324Y-116688273D01*
X146245786Y-116679435D01*
X146248224Y-116670587D01*
X146250638Y-116661729D01*
X146253029Y-116652861D01*
X146255395Y-116643983D01*
X146257737Y-116635093D01*
X146260056Y-116626191D01*
X146262351Y-116617278D01*
X146264622Y-116608352D01*
X146266869Y-116599413D01*
X146269093Y-116590460D01*
X146271294Y-116581494D01*
X146273470Y-116572514D01*
X146275624Y-116563519D01*
X146277754Y-116554508D01*
X146279860Y-116545483D01*
X146281943Y-116536441D01*
X146284003Y-116527383D01*
X146286040Y-116518308D01*
X146288053Y-116509215D01*
X146290043Y-116500105D01*
X146292010Y-116490977D01*
X146293954Y-116481830D01*
X146295875Y-116472664D01*
X146297773Y-116463479D01*
X146299648Y-116454273D01*
X146301500Y-116445048D01*
X146303329Y-116435801D01*
X146305135Y-116426533D01*
X146306919Y-116417244D01*
X146308679Y-116407932D01*
X146310417Y-116398598D01*
X146312133Y-116389241D01*
X146313826Y-116379860D01*
X146315496Y-116370456D01*
X146317143Y-116361027D01*
X146318769Y-116351573D01*
X146320371Y-116342095D01*
X146321952Y-116332590D01*
X146323510Y-116323060D01*
X146325046Y-116313503D01*
X146326559Y-116303919D01*
X146328050Y-116294308D01*
X146329519Y-116284669D01*
X146330966Y-116275002D01*
X146332391Y-116265306D01*
X146333794Y-116255581D01*
X146335175Y-116245826D01*
X146336534Y-116236041D01*
X146337870Y-116226226D01*
X146339186Y-116216380D01*
X146340479Y-116206503D01*
X146341750Y-116196594D01*
X146343000Y-116186652D01*
X146344228Y-116176679D01*
X146345434Y-116166672D01*
X146346619Y-116156631D01*
X146347782Y-116146557D01*
X146348924Y-116136448D01*
X146350044Y-116126304D01*
X146351143Y-116116125D01*
X146352220Y-116105911D01*
X146353276Y-116095660D01*
X146354311Y-116085373D01*
X146355324Y-116075049D01*
X146356316Y-116064687D01*
X146357287Y-116054287D01*
X146358237Y-116043849D01*
X146359166Y-116033373D01*
X146360074Y-116022857D01*
X146360960Y-116012301D01*
X146361826Y-116001706D01*
X146362671Y-115991069D01*
X146363495Y-115980392D01*
X146364298Y-115969674D01*
X146365081Y-115958914D01*
X146365842Y-115948111D01*
X146366583Y-115937266D01*
X146367304Y-115926377D01*
X146368003Y-115915445D01*
X146368683Y-115904469D01*
X146369341Y-115893449D01*
X146369979Y-115882384D01*
X146370597Y-115871273D01*
X146371194Y-115860117D01*
X146371771Y-115848914D01*
X146372328Y-115837665D01*
X146372864Y-115826368D01*
X146373381Y-115815025D01*
X146373877Y-115803633D01*
X146374352Y-115792193D01*
X146374808Y-115780704D01*
X146375244Y-115769165D01*
X146375660Y-115757577D01*
X146376056Y-115745939D01*
X146376432Y-115734250D01*
X146376788Y-115722511D01*
X146377124Y-115710719D01*
X146377440Y-115698876D01*
X146377737Y-115686981D01*
X146378014Y-115675033D01*
X146378271Y-115663031D01*
X146378509Y-115650976D01*
X145622507Y-115597453D02*
X145623782Y-115568275D01*
X145624985Y-115538932D01*
X145626119Y-115509376D01*
X145627184Y-115479555D01*
X145628182Y-115449402D01*
X145629116Y-115418839D01*
X145629987Y-115387767D01*
X145630798Y-115356061D01*
X145631551Y-115323559D01*
X145632250Y-115290040D01*
X145632900Y-115255194D01*
X145633507Y-115218556D01*
X145634080Y-115179370D01*
X145634637Y-115136239D01*
X145635215Y-115085950D01*
X145635725Y-115038300D01*
X145636138Y-114999647D01*
X145636565Y-114961525D01*
X145637030Y-114923889D01*
X145637553Y-114886697D01*
X145637843Y-114868254D01*
X145638155Y-114849906D01*
X145638493Y-114831647D01*
X145638859Y-114813473D01*
X145639256Y-114795377D01*
X145639686Y-114777355D01*
X145640152Y-114759401D01*
X145640657Y-114741510D01*
X145641203Y-114723676D01*
X145641793Y-114705893D01*
X145642430Y-114688158D01*
X145643117Y-114670463D01*
X145643855Y-114652805D01*
X145644649Y-114635177D01*
X145645500Y-114617574D01*
X145646411Y-114599991D01*
X145647385Y-114582423D01*
X145648424Y-114564863D01*
X145649532Y-114547307D01*
X145650711Y-114529749D01*
X145651963Y-114512185D01*
X145653292Y-114494608D01*
X145654699Y-114477013D01*
X145655433Y-114468207D01*
X145656188Y-114459395D01*
X145656964Y-114450575D01*
X145657762Y-114441748D01*
X145658581Y-114432912D01*
X145659422Y-114424068D01*
X145660286Y-114415213D01*
X145661173Y-114406348D01*
X145662082Y-114397472D01*
X145663015Y-114388584D01*
X145663972Y-114379683D01*
X145664953Y-114370769D01*
X145665958Y-114361842D01*
X145666988Y-114352900D01*
X145668043Y-114343942D01*
X145669124Y-114334969D01*
X145670230Y-114325980D01*
X145671363Y-114316973D01*
X145672522Y-114307948D01*
X145673708Y-114298905D01*
X145674920Y-114289843D01*
X145676161Y-114280760D01*
X145677429Y-114271658D01*
X145678725Y-114262534D01*
X145680050Y-114253388D01*
X145681403Y-114244219D01*
X145682786Y-114235028D01*
X145684198Y-114225812D01*
X145685640Y-114216572D01*
X145687112Y-114207306D01*
X145688614Y-114198015D01*
X145690147Y-114188697D01*
X145691712Y-114179352D01*
X145693308Y-114169979D01*
X145694936Y-114160578D01*
X145696595Y-114151147D01*
X145698288Y-114141686D01*
X145700013Y-114132194D01*
X145701771Y-114122672D01*
X145703563Y-114113117D01*
X145705389Y-114103530D01*
X145707248Y-114093909D01*
X145709143Y-114084255D01*
X145711072Y-114074566D01*
X145713036Y-114064841D01*
X145715036Y-114055081D01*
X145717071Y-114045284D01*
X145719143Y-114035450D01*
X145721252Y-114025577D01*
X145723397Y-114015667D01*
X145725579Y-114005716D01*
X145727799Y-113995726D01*
X145730057Y-113985695D01*
X145732352Y-113975623D01*
X145734687Y-113965509D01*
X145737060Y-113955352D01*
X145739472Y-113945151D01*
X145741924Y-113934907D01*
X145744416Y-113924618D01*
X145746948Y-113914284D01*
X145749521Y-113903904D01*
X145752134Y-113893477D01*
X145754789Y-113883002D01*
X145757485Y-113872480D01*
X145760223Y-113861909D01*
X145763003Y-113851288D01*
X145763003Y-113851288D02*
X145769100Y-113838600D01*
X145775176Y-113826003D01*
X145781128Y-113813709D01*
X145787061Y-113801501D01*
X145792878Y-113789578D01*
X145798677Y-113777738D01*
X145804368Y-113766165D01*
X145810041Y-113754673D01*
X145815613Y-113743433D01*
X145821169Y-113732269D01*
X145826628Y-113721345D01*
X145832073Y-113710494D01*
X145837428Y-113699869D01*
X145842769Y-113689315D01*
X145848024Y-113678976D01*
X145853267Y-113668706D01*
X145858428Y-113658638D01*
X145863578Y-113648638D01*
X145868651Y-113638831D01*
X145873714Y-113629089D01*
X145878703Y-113619530D01*
X145883682Y-113610035D01*
X145888592Y-113600714D01*
X145893493Y-113591455D01*
X145898328Y-113582363D01*
X145903154Y-113573330D01*
X145907918Y-113564457D01*
X145912673Y-113555642D01*
X145917369Y-113546979D01*
X145922058Y-113538373D01*
X145926690Y-113529913D01*
X145931314Y-113521506D01*
X145935885Y-113513241D01*
X145940449Y-113505028D01*
X145944962Y-113496950D01*
X145949469Y-113488923D01*
X145953926Y-113481026D01*
X145958378Y-113473179D01*
X145962783Y-113465456D01*
X145967183Y-113457781D01*
X145971537Y-113450226D01*
X145975888Y-113442719D01*
X145980195Y-113435327D01*
X145984498Y-113427981D01*
X145988760Y-113420745D01*
X145993018Y-113413555D01*
X145997237Y-113406472D01*
X146001453Y-113399432D01*
X146005630Y-113392496D01*
X146009805Y-113385602D01*
X146013943Y-113378808D01*
X146018080Y-113372056D01*
X146022181Y-113365400D01*
X146026280Y-113358784D01*
X146030346Y-113352262D01*
X146034410Y-113345779D01*
X146038442Y-113339386D01*
X146042473Y-113333032D01*
X146046473Y-113326764D01*
X146050472Y-113320535D01*
X146054442Y-113314389D01*
X146058411Y-113308281D01*
X146062351Y-113302253D01*
X146066292Y-113296263D01*
X146070205Y-113290350D01*
X146074118Y-113284474D01*
X146078005Y-113278673D01*
X146081892Y-113272908D01*
X146085754Y-113267216D01*
X146089617Y-113261559D01*
X146093456Y-113255972D01*
X146097296Y-113250419D01*
X146101112Y-113244936D01*
X146104930Y-113239485D01*
X146108726Y-113234101D01*
X146112523Y-113228750D01*
X146116299Y-113223463D01*
X146120077Y-113218209D01*
X146123834Y-113213017D01*
X146127593Y-113207857D01*
X146131333Y-113202757D01*
X146135075Y-113197688D01*
X146138799Y-113192678D01*
X146142525Y-113187699D01*
X146146233Y-113182776D01*
X146149943Y-113177884D01*
X146153637Y-113173047D01*
X146157334Y-113168239D01*
X146161014Y-113163485D01*
X146164698Y-113158761D01*
X146168366Y-113154088D01*
X146172037Y-113149444D01*
X146175694Y-113144850D01*
X146179354Y-113140284D01*
X146183001Y-113135768D01*
X146186650Y-113131279D01*
X146190287Y-113126838D01*
X146193928Y-113122424D01*
X146197556Y-113118057D01*
X146201188Y-113113716D01*
X146204808Y-113109421D01*
X146208433Y-113105151D01*
X146212046Y-113100926D01*
X146215664Y-113096726D01*
X146219271Y-113092569D01*
X146222883Y-113088438D01*
X146226486Y-113084348D01*
X146230092Y-113080283D01*
X146233690Y-113076258D01*
X146237293Y-113072259D01*
X146240887Y-113068298D01*
X146244486Y-113064361D01*
X146248078Y-113060463D01*
X146251674Y-113056589D01*
X146255264Y-113052752D01*
X146258859Y-113048938D01*
X146262447Y-113045161D01*
X146266040Y-113041407D01*
X146269628Y-113037688D01*
X146273222Y-113033992D01*
X146276810Y-113030330D01*
X146280404Y-113026691D01*
X146283993Y-113023085D01*
X146287589Y-113019502D01*
X146291180Y-113015951D01*
X146294777Y-113012422D01*
X146298371Y-113008924D01*
X146301971Y-113005448D01*
X146305568Y-113002003D01*
X146309172Y-112998579D01*
X146312773Y-112995185D01*
X146316381Y-112991813D01*
X146319988Y-112988469D01*
X146323601Y-112985147D01*
X146327213Y-112981852D01*
X146330831Y-112978579D01*
X146334450Y-112975333D01*
X146338075Y-112972107D01*
X146341701Y-112968908D01*
X146345333Y-112965730D01*
X146348967Y-112962577D01*
X146352608Y-112959445D01*
X146356250Y-112956337D01*
X146359899Y-112953250D01*
X146363551Y-112950187D01*
X146367210Y-112947144D01*
X146370872Y-112944125D01*
X146374541Y-112941125D01*
X146378214Y-112938149D01*
X146381895Y-112935192D01*
X146385579Y-112932257D01*
X146389272Y-112929342D01*
X146392969Y-112926449D01*
X146396674Y-112923574D01*
X146400384Y-112920721D01*
X146404103Y-112917887D01*
X146407827Y-112915074D01*
X146411560Y-112912279D01*
X146415299Y-112909505D01*
X146419047Y-112906748D01*
X146422802Y-112904012D01*
X146426565Y-112901294D01*
X146430337Y-112898595D01*
X146434117Y-112895914D01*
X146437906Y-112893252D01*
X146441704Y-112890608D01*
X146445510Y-112887982D01*
X146449326Y-112885374D01*
X146453152Y-112882783D01*
X146456987Y-112880210D01*
X146464688Y-112875116D01*
X146472431Y-112870091D01*
X146480217Y-112865133D01*
X146488048Y-112860240D01*
X146495925Y-112855413D01*
X146503852Y-112850650D01*
X146511830Y-112845949D01*
X146519860Y-112841310D01*
X146527944Y-112836733D01*
X146536085Y-112832214D01*
X146544285Y-112827755D01*
X146552545Y-112823354D01*
X146560869Y-112819011D01*
X146569257Y-112814723D01*
X146577712Y-112810491D01*
X146586237Y-112806314D01*
X146594833Y-112802190D01*
X146603504Y-112798120D01*
X146612251Y-112794102D01*
X146621078Y-112790136D01*
X146629986Y-112786221D01*
X146638978Y-112782356D01*
X146648057Y-112778540D01*
X146657227Y-112774774D01*
X146666488Y-112771056D01*
X146675846Y-112767387D01*
X146685302Y-112763764D01*
X146694859Y-112760188D01*
X146704522Y-112756658D01*
X146714293Y-112753173D01*
X146724176Y-112749734D01*
X146734175Y-112746340D01*
X146744292Y-112742989D01*
X146754532Y-112739682D01*
X146764899Y-112736418D01*
X146775396Y-112733197D01*
X146786029Y-112730018D01*
X146796801Y-112726880D01*
X146807717Y-112723784D01*
X146818782Y-112720729D01*
X146830001Y-112717715D01*
X146841379Y-112714741D01*
X146852921Y-112711806D01*
X146864632Y-112708911D01*
X146876520Y-112706055D01*
X146888589Y-112703237D01*
X146900846Y-112700457D01*
X146913299Y-112697716D01*
X146925953Y-112695011D01*
X146938816Y-112692344D01*
X146951896Y-112689714D01*
X146965202Y-112687119D01*
X146978741Y-112684561D01*
X146992523Y-112682038D01*
X147006558Y-112679550D01*
X147020855Y-112677097D01*
X147035425Y-112674678D01*
X147040848Y-112673798D01*
X146378509Y-115650976D02*
X146380111Y-115616264D01*
X146381620Y-115581889D01*
X146383036Y-115547824D01*
X146384362Y-115514041D01*
X146385599Y-115480508D01*
X146386751Y-115447188D01*
X146387818Y-115414037D01*
X146388804Y-115381003D01*
X146389710Y-115348025D01*
X146390538Y-115315025D01*
X146391293Y-115281905D01*
X146391975Y-115248540D01*
X146392589Y-115214759D01*
X146393138Y-115180318D01*
X146393628Y-115144854D01*
X146394065Y-115107771D01*
X146394460Y-115067956D01*
X146394839Y-115022823D01*
X146395143Y-114982294D01*
X146395413Y-114946187D01*
X146395702Y-114911460D01*
X146395862Y-114894583D01*
X146396039Y-114878016D01*
X146396234Y-114861746D01*
X146396453Y-114845761D01*
X146396698Y-114830049D01*
X146396974Y-114814599D01*
X146397284Y-114799398D01*
X146397632Y-114784435D01*
X146398022Y-114769698D01*
X146398456Y-114755175D01*
X146398939Y-114740853D01*
X146399475Y-114726722D01*
X146400067Y-114712768D01*
X146400719Y-114698981D01*
X146401435Y-114685348D01*
X146402218Y-114671858D01*
X146402636Y-114665162D01*
X146403072Y-114658498D01*
X146403526Y-114651863D01*
X146404000Y-114645257D01*
X146404493Y-114638677D01*
X146405007Y-114632122D01*
X146405540Y-114625591D01*
X146406095Y-114619082D01*
X146406671Y-114612594D01*
X146407270Y-114606126D01*
X146407890Y-114599675D01*
X146408533Y-114593240D01*
X146409200Y-114586820D01*
X146409890Y-114580413D01*
X146410604Y-114574018D01*
X146411343Y-114567634D01*
X146412108Y-114561258D01*
X146412897Y-114554890D01*
X146413713Y-114548527D01*
X146414555Y-114542169D01*
X146415424Y-114535813D01*
X146416321Y-114529460D01*
X146417245Y-114523106D01*
X146418198Y-114516750D01*
X146419180Y-114510391D01*
X146420190Y-114504028D01*
X146421231Y-114497659D01*
X146422301Y-114491282D01*
X146423403Y-114484896D01*
X146424535Y-114478500D01*
X146425699Y-114472091D01*
X146426895Y-114465669D01*
X146428123Y-114459233D01*
X146429384Y-114452779D01*
X146430679Y-114446308D01*
X146432007Y-114439817D01*
X146433370Y-114433306D01*
X146434768Y-114426772D01*
X146436201Y-114420214D01*
X146437669Y-114413630D01*
X146439174Y-114407020D01*
X146440715Y-114400382D01*
X146442293Y-114393713D01*
X146443909Y-114387014D01*
X146445563Y-114380281D01*
X146447255Y-114373514D01*
X146448987Y-114366711D01*
X146450757Y-114359871D01*
X146452567Y-114352993D01*
X146454418Y-114346074D01*
X146456310Y-114339113D01*
X146458242Y-114332109D01*
X146460217Y-114325060D01*
X146462233Y-114317965D01*
X146464292Y-114310823D01*
X146466394Y-114303631D01*
X146468540Y-114296388D01*
X146470729Y-114289093D01*
X146472963Y-114281745D01*
X146475242Y-114274342D01*
X146477566Y-114266881D01*
X146479937Y-114259363D01*
X146482353Y-114251785D01*
X146484816Y-114244146D01*
X146487326Y-114236445D01*
X146489884Y-114228679D01*
X146492490Y-114220848D01*
X146495145Y-114212950D01*
X146497848Y-114204983D01*
X146500602Y-114196947D01*
X146503405Y-114188838D01*
X146506258Y-114180657D01*
X146509163Y-114172401D01*
X146512118Y-114164070D01*
X146515126Y-114155660D01*
X146518186Y-114147172D01*
X146521298Y-114138604D01*
X146524464Y-114129953D01*
X146527683Y-114121220D01*
X146530957Y-114112401D01*
X146534285Y-114103496D01*
X146537668Y-114094503D01*
X146541106Y-114085420D01*
X146544601Y-114076247D01*
X146551759Y-114057622D01*
X146559147Y-114038616D01*
X146559147Y-114038616D02*
X146560574Y-114035176D01*
X146562017Y-114031751D01*
X146563476Y-114028337D01*
X146564952Y-114024938D01*
X146567951Y-114018178D01*
X146571014Y-114011469D01*
X146574141Y-114004813D01*
X146577331Y-113998210D01*
X146580585Y-113991659D01*
X146583901Y-113985162D01*
X146587280Y-113978718D01*
X146590720Y-113972327D01*
X146594223Y-113965990D01*
X146597787Y-113959707D01*
X146601412Y-113953478D01*
X146605097Y-113947304D01*
X146608843Y-113941184D01*
X146612649Y-113935119D01*
X146616515Y-113929109D01*
X146620440Y-113923155D01*
X146624423Y-113917256D01*
X146628466Y-113911413D01*
X146632566Y-113905627D01*
X146636724Y-113899897D01*
X146640940Y-113894224D01*
X146645212Y-113888608D01*
X146649541Y-113883050D01*
X146653927Y-113877549D01*
X146658368Y-113872107D01*
X146662864Y-113866723D01*
X146667416Y-113861398D01*
X146672022Y-113856131D01*
X146676682Y-113850925D01*
X146681396Y-113845778D01*
X146686163Y-113840691D01*
X146690982Y-113835665D01*
X146695854Y-113830699D01*
X146700778Y-113825795D01*
X146705753Y-113820953D01*
X146710779Y-113816172D01*
X146715855Y-113811454D01*
X146720981Y-113806799D01*
X146726157Y-113802206D01*
X146731381Y-113797678D01*
X146736653Y-113793213D01*
X146741973Y-113788812D01*
X146747340Y-113784477D01*
X146752753Y-113780206D01*
X146758212Y-113776001D01*
X146763717Y-113771862D01*
X146769267Y-113767789D01*
X146774860Y-113763783D01*
X146780497Y-113759844D01*
X146786177Y-113755972D01*
X146791899Y-113752169D01*
X146797662Y-113748434D01*
X146803467Y-113744767D01*
X146809311Y-113741170D01*
X146815195Y-113737643D01*
X146821118Y-113734185D01*
X146827079Y-113730797D01*
X146833077Y-113727481D01*
X146839111Y-113724235D01*
X146845182Y-113721061D01*
X146851287Y-113717959D01*
X146857427Y-113714929D01*
X146863600Y-113711972D01*
X146869806Y-113709088D01*
X146876043Y-113706277D01*
X146882312Y-113703540D01*
X146888611Y-113700877D01*
X146894939Y-113698288D01*
X146901296Y-113695774D01*
X146907680Y-113693335D01*
X146914091Y-113690971D01*
X146920528Y-113688683D01*
X146926991Y-113686471D01*
X146933477Y-113684335D01*
X146939987Y-113682276D01*
X146946519Y-113680293D01*
X146953072Y-113678388D01*
X146959646Y-113676560D01*
X146966240Y-113674809D01*
X146972852Y-113673136D01*
X146979483Y-113671541D01*
X146982804Y-113670773D01*
X146986130Y-113670025D01*
X146989459Y-113669296D01*
X146992793Y-113668586D01*
X146996130Y-113667897D01*
X146999470Y-113667227D01*
X147002815Y-113666577D01*
X147006162Y-113665946D01*
X147009513Y-113665335D01*
X147012868Y-113664744D01*
X147016225Y-113664173D01*
X147019585Y-113663621D01*
X147022948Y-113663090D01*
X147026313Y-113662578D01*
X147029681Y-113662086D01*
X147033052Y-113661614D01*
X147036425Y-113661161D01*
X147039800Y-113660729D01*
X147043177Y-113660316D01*
X147046556Y-113659924D01*
X147049937Y-113659551D01*
X147053320Y-113659198D01*
X147056704Y-113658866D01*
X147060091Y-113658553D01*
X147063478Y-113658260D01*
X147066866Y-113657987D01*
X147070256Y-113657734D01*
X147073647Y-113657501D01*
X147077038Y-113657288D01*
X147080431Y-113657095D01*
X147083824Y-113656922D01*
X147087218Y-113656769D01*
X147090612Y-113656636D01*
X147094007Y-113656523D01*
X147097401Y-113656430D01*
X147100797Y-113656357D01*
X147104191Y-113656305D01*
X147107587Y-113656272D01*
X147110981Y-113656259D01*
X147114375Y-113656266D01*
X147117769Y-113656293D01*
X147121162Y-113656340D01*
X147124554Y-113656407D01*
X147127947Y-113656495D01*
X147131337Y-113656602D01*
X147134727Y-113656729D01*
X147138115Y-113656876D01*
X147141503Y-113657043D01*
X147144889Y-113657230D01*
X147148274Y-113657437D01*
X147151657Y-113657664D01*
X147155039Y-113657911D01*
X147158418Y-113658178D01*
X147161796Y-113658465D01*
X147165171Y-113658772D01*
X147168546Y-113659098D01*
X147171917Y-113659445D01*
X147175287Y-113659811D01*
X147178653Y-113660198D01*
X147182018Y-113660604D01*
X147185379Y-113661030D01*
X147188738Y-113661476D01*
X147192094Y-113661941D01*
X147195448Y-113662427D01*
X147198797Y-113662932D01*
X147202145Y-113663457D01*
X147205488Y-113664002D01*
X147208830Y-113664566D01*
X147212166Y-113665151D01*
X147215500Y-113665755D01*
X147218830Y-113666378D01*
X147222157Y-113667022D01*
X147225479Y-113667684D01*
X147228798Y-113668367D01*
X147232112Y-113669069D01*
X147235423Y-113669791D01*
X147238729Y-113670533D01*
X147242032Y-113671294D01*
X147245329Y-113672074D01*
X147248623Y-113672874D01*
X147251911Y-113673694D01*
X147255196Y-113674533D01*
X147258474Y-113675391D01*
X147261750Y-113676270D01*
X147265019Y-113677167D01*
X147268285Y-113678084D01*
X147271543Y-113679020D01*
X147274799Y-113679975D01*
X147278047Y-113680950D01*
X147281292Y-113681944D01*
X147284530Y-113682957D01*
X147287764Y-113683990D01*
X147290991Y-113685042D01*
X147294214Y-113686114D01*
X147297429Y-113687204D01*
X147300640Y-113688314D01*
X147303844Y-113689442D01*
X147307043Y-113690590D01*
X147310235Y-113691757D01*
X147313423Y-113692943D01*
X147316602Y-113694148D01*
X147319777Y-113695372D01*
X147322943Y-113696615D01*
X147326106Y-113697878D01*
X147329259Y-113699158D01*
X147332409Y-113700459D01*
X147335549Y-113701778D01*
X147338685Y-113703116D01*
X147341812Y-113704472D01*
X147344934Y-113705848D01*
X147348048Y-113707242D01*
X147351156Y-113708656D01*
X147354255Y-113710088D01*
X147357349Y-113711539D01*
X147360434Y-113713008D01*
X147363514Y-113714497D01*
X147366585Y-113716004D01*
X147369649Y-113717530D01*
X147372705Y-113719074D01*
X147375755Y-113720638D01*
X147378796Y-113722219D01*
X147381830Y-113723820D01*
X147384856Y-113725438D01*
X147387875Y-113727076D01*
X147390884Y-113728731D01*
X147393888Y-113730406D01*
X147396882Y-113732099D01*
X147399869Y-113733811D01*
X147402847Y-113735540D01*
X147405818Y-113737289D01*
X147408780Y-113739056D01*
X147411734Y-113740841D01*
X147414679Y-113742644D01*
X147417617Y-113744467D01*
X147420546Y-113746307D01*
X147423467Y-113748166D01*
X147426378Y-113750042D01*
X147429282Y-113751938D01*
X147432176Y-113753851D01*
X147435063Y-113755783D01*
X147437939Y-113757733D01*
X147440808Y-113759702D01*
X147443667Y-113761688D01*
X147446518Y-113763693D01*
X147449359Y-113765715D01*
X147452193Y-113767757D01*
X147455016Y-113769815D01*
X147457831Y-113771893D01*
X147460635Y-113773988D01*
X147463432Y-113776102D01*
X147466218Y-113778233D01*
X147468996Y-113780384D01*
X147471764Y-113782551D01*
X147474523Y-113784738D01*
X147477272Y-113786941D01*
X147480012Y-113789164D01*
X147482741Y-113791403D01*
X147485463Y-113793662D01*
X147488173Y-113795937D01*
X147490874Y-113798232D01*
X147493565Y-113800543D01*
X147496247Y-113802874D01*
X147498918Y-113805221D01*
X147501581Y-113807588D01*
X147504232Y-113809971D01*
X147506874Y-113812374D01*
X147509505Y-113814793D01*
X147512127Y-113817231D01*
X147514738Y-113819686D01*
X147517340Y-113822160D01*
X147519931Y-113824651D01*
X147522512Y-113827161D01*
X147525082Y-113829688D01*
X147527643Y-113832234D01*
X147530192Y-113834796D01*
X147532731Y-113837378D01*
X147535260Y-113839976D01*
X147537778Y-113842593D01*
X147540285Y-113845227D01*
X147542783Y-113847880D01*
X147545268Y-113850550D01*
X147547744Y-113853239D01*
X147550208Y-113855944D01*
X147552663Y-113858669D01*
X147555105Y-113861410D01*
X147557538Y-113864171D01*
X147559959Y-113866948D01*
X147562369Y-113869744D01*
X147564768Y-113872556D01*
X147567156Y-113875388D01*
X147569533Y-113878237D01*
X147571899Y-113881104D01*
X147574253Y-113883988D01*
X147576596Y-113886892D01*
X147578928Y-113889812D01*
X147581249Y-113892751D01*
X147583558Y-113895707D01*
X147585856Y-113898681D01*
X147588141Y-113901673D01*
X147590417Y-113904684D01*
X147592679Y-113907711D01*
X147594931Y-113910757D01*
X147597170Y-113913821D01*
X147599399Y-113916903D01*
X147601615Y-113920002D01*
X147603820Y-113923120D01*
X147606012Y-113926255D01*
X147608193Y-113929409D01*
X147610362Y-113932580D01*
X147612519Y-113935770D01*
X147614663Y-113938977D01*
X147616796Y-113942203D01*
X147618917Y-113945446D01*
X147621026Y-113948708D01*
X147622903Y-113951643D01*
X147040848Y-112673798D02*
X147048212Y-112673565D01*
X147055568Y-112673353D01*
X147062821Y-112673164D01*
X147070067Y-112672995D01*
X147077214Y-112672849D01*
X147084354Y-112672723D01*
X147091400Y-112672619D01*
X147098438Y-112672535D01*
X147105387Y-112672473D01*
X147112329Y-112672431D01*
X147119184Y-112672409D01*
X147126033Y-112672408D01*
X147132800Y-112672426D01*
X147139559Y-112672465D01*
X147146239Y-112672524D01*
X147152913Y-112672602D01*
X147159511Y-112672700D01*
X147166102Y-112672818D01*
X147172619Y-112672955D01*
X147179131Y-112673112D01*
X147185572Y-112673287D01*
X147192006Y-112673482D01*
X147198373Y-112673696D01*
X147204733Y-112673929D01*
X147211028Y-112674180D01*
X147217316Y-112674451D01*
X147223541Y-112674739D01*
X147229760Y-112675047D01*
X147235918Y-112675373D01*
X147242070Y-112675718D01*
X147248162Y-112676080D01*
X147254249Y-112676461D01*
X147260279Y-112676860D01*
X147266302Y-112677278D01*
X147272270Y-112677712D01*
X147278232Y-112678166D01*
X147284141Y-112678637D01*
X147290044Y-112679126D01*
X147295894Y-112679632D01*
X147301739Y-112680158D01*
X147307534Y-112680699D01*
X147313322Y-112681260D01*
X147319062Y-112681836D01*
X147324796Y-112682432D01*
X147330483Y-112683043D01*
X147336163Y-112683674D01*
X147341798Y-112684320D01*
X147347427Y-112684985D01*
X147353012Y-112685665D01*
X147358590Y-112686365D01*
X147364125Y-112687080D01*
X147369655Y-112687814D01*
X147375142Y-112688563D01*
X147380624Y-112689332D01*
X147386064Y-112690115D01*
X147391499Y-112690917D01*
X147396894Y-112691734D01*
X147402284Y-112692571D01*
X147407634Y-112693421D01*
X147412979Y-112694291D01*
X147418286Y-112695176D01*
X147423588Y-112696079D01*
X147428852Y-112696997D01*
X147434112Y-112697934D01*
X147439335Y-112698886D01*
X147444553Y-112699856D01*
X147449736Y-112700841D01*
X147454913Y-112701845D01*
X147460056Y-112702863D01*
X147465194Y-112703900D01*
X147470299Y-112704951D01*
X147475398Y-112706022D01*
X147480465Y-112707106D01*
X147485527Y-112708209D01*
X147490557Y-112709326D01*
X147495581Y-112710463D01*
X147500575Y-112711613D01*
X147505564Y-112712783D01*
X147510522Y-112713966D01*
X147515476Y-112715168D01*
X147520399Y-112716384D01*
X147525318Y-112717620D01*
X147530208Y-112718869D01*
X147535093Y-112720137D01*
X147539950Y-112721419D01*
X147544802Y-112722720D01*
X147549626Y-112724035D01*
X147554445Y-112725369D01*
X147559238Y-112726716D01*
X147564025Y-112728083D01*
X147568787Y-112729463D01*
X147573543Y-112730863D01*
X147578274Y-112732276D01*
X147583000Y-112733709D01*
X147587702Y-112735155D01*
X147592398Y-112736621D01*
X147597070Y-112738100D01*
X147601736Y-112739598D01*
X147606380Y-112741110D01*
X147611018Y-112742641D01*
X147615633Y-112744186D01*
X147620243Y-112745751D01*
X147624830Y-112747328D01*
X147629413Y-112748926D01*
X147633974Y-112750537D01*
X147638529Y-112752167D01*
X147643063Y-112753811D01*
X147647592Y-112755475D01*
X147652100Y-112757152D01*
X147656603Y-112758849D01*
X147661086Y-112760559D01*
X147665564Y-112762289D01*
X147670021Y-112764033D01*
X147674474Y-112765797D01*
X147678907Y-112767574D01*
X147683335Y-112769371D01*
X147687745Y-112771182D01*
X147692149Y-112773012D01*
X147696534Y-112774857D01*
X147700915Y-112776721D01*
X147705277Y-112778599D01*
X147709635Y-112780497D01*
X147713975Y-112782409D01*
X147718310Y-112784341D01*
X147722627Y-112786287D01*
X147726940Y-112788252D01*
X147731235Y-112790232D01*
X147735526Y-112792232D01*
X147739800Y-112794247D01*
X147744069Y-112796281D01*
X147748322Y-112798329D01*
X147752571Y-112800398D01*
X147756803Y-112802481D01*
X147761031Y-112804584D01*
X147765243Y-112806702D01*
X147769450Y-112808840D01*
X147773642Y-112810992D01*
X147777830Y-112813165D01*
X147782003Y-112815353D01*
X147786170Y-112817561D01*
X147790324Y-112819783D01*
X147794473Y-112822026D01*
X147798607Y-112824285D01*
X147802737Y-112826563D01*
X147806853Y-112828857D01*
X147810964Y-112831171D01*
X147815062Y-112833500D01*
X147819155Y-112835850D01*
X147823235Y-112838215D01*
X147827310Y-112840601D01*
X147831373Y-112843002D01*
X147835431Y-112845424D01*
X147839476Y-112847862D01*
X147843516Y-112850320D01*
X147847545Y-112852795D01*
X147851568Y-112855290D01*
X147855580Y-112857801D01*
X147859586Y-112860333D01*
X147863582Y-112862881D01*
X147867572Y-112865450D01*
X147871551Y-112868036D01*
X147875526Y-112870642D01*
X147879489Y-112873265D01*
X147883447Y-112875909D01*
X147887395Y-112878570D01*
X147891338Y-112881251D01*
X147895271Y-112883950D01*
X147899198Y-112886670D01*
X147903116Y-112889407D01*
X147907028Y-112892165D01*
X147910931Y-112894941D01*
X147914829Y-112897738D01*
X147918717Y-112900552D01*
X147922600Y-112903388D01*
X147926474Y-112906242D01*
X147930343Y-112909117D01*
X147934203Y-112912010D01*
X147938058Y-112914924D01*
X147941904Y-112917857D01*
X147945745Y-112920811D01*
X147949577Y-112923784D01*
X147953404Y-112926778D01*
X147957223Y-112929792D01*
X147961037Y-112932826D01*
X147964843Y-112935880D01*
X147968644Y-112938956D01*
X147972436Y-112942050D01*
X147976224Y-112945167D01*
X147980004Y-112948303D01*
X147983779Y-112951461D01*
X147987546Y-112954638D01*
X147991308Y-112957838D01*
X147995063Y-112961058D01*
X147998813Y-112964299D01*
X148002556Y-112967561D01*
X148006293Y-112970845D01*
X148010024Y-112974150D01*
X148013749Y-112977477D01*
X148017468Y-112980824D01*
X148021181Y-112984194D01*
X148024888Y-112987585D01*
X148028590Y-112990999D01*
X148032285Y-112994434D01*
X148035975Y-112997891D01*
X148039659Y-113001370D01*
X148043338Y-113004871D01*
X148047011Y-113008395D01*
X148050678Y-113011941D01*
X148054340Y-113015509D01*
X148057996Y-113019101D01*
X148061647Y-113022714D01*
X148065292Y-113026351D01*
X148068932Y-113030010D01*
X148072566Y-113033693D01*
X148076195Y-113037398D01*
X148079819Y-113041127D01*
X148083438Y-113044879D01*
X148087051Y-113048654D01*
X148090659Y-113052453D01*
X148094262Y-113056275D01*
X148097859Y-113060122D01*
X148101452Y-113063991D01*
X148105039Y-113067886D01*
X148108622Y-113071803D01*
X148112199Y-113075746D01*
X148115771Y-113079712D01*
X148119339Y-113083703D01*
X148122901Y-113087718D01*
X148126458Y-113091758D01*
X148130010Y-113095822D01*
X148133558Y-113099912D01*
X148137100Y-113104026D01*
X148140639Y-113108165D01*
X148144171Y-113112330D01*
X148147700Y-113116520D01*
X148151223Y-113120735D01*
X148154742Y-113124976D01*
X148158255Y-113129242D01*
X148161765Y-113133534D01*
X148165269Y-113137852D01*
X148168769Y-113142196D01*
X148172264Y-113146566D01*
X148175755Y-113150963D01*
X148179240Y-113155385D01*
X148182722Y-113159835D01*
X148186198Y-113164310D01*
X148189671Y-113168814D01*
X148193138Y-113173342D01*
X148196601Y-113177900D01*
X148200059Y-113182483D01*
X148203514Y-113187094D01*
X148206963Y-113191732D01*
X148210408Y-113196398D01*
X148213848Y-113201091D01*
X148220716Y-113210562D01*
X148227566Y-113220144D01*
X148234398Y-113229840D01*
X148241213Y-113239650D01*
X148248010Y-113249576D01*
X148254790Y-113259618D01*
X148261553Y-113269778D01*
X148268298Y-113280057D01*
X148275026Y-113290456D01*
X148281737Y-113300975D01*
X148288430Y-113311618D01*
X148295107Y-113322383D01*
X148301767Y-113333273D01*
X148308409Y-113344289D01*
X148315034Y-113355432D01*
X148321643Y-113366703D01*
X148328234Y-113378104D01*
X148334808Y-113389636D01*
X148341365Y-113401299D01*
X148347905Y-113413096D01*
X148354428Y-113425028D01*
X148360934Y-113437095D01*
X148367422Y-113449299D01*
X148373893Y-113461642D01*
X148380347Y-113474125D01*
X148386784Y-113486748D01*
X148393203Y-113499515D01*
X148399605Y-113512425D01*
X148405989Y-113525480D01*
X148412356Y-113538682D01*
X148418705Y-113552032D01*
X148425036Y-113565531D01*
X148431349Y-113579181D01*
X148437645Y-113592984D01*
X148443922Y-113606940D01*
X148450181Y-113621051D01*
X148456422Y-113635319D01*
X148462644Y-113649745D01*
X148468848Y-113664331D01*
X148475033Y-113679077D01*
X148481200Y-113693987D01*
X148487347Y-113709060D01*
X148493476Y-113724299D01*
X148499585Y-113739706D01*
X148505675Y-113755281D01*
X148511745Y-113771027D01*
X148517796Y-113786944D01*
X148523827Y-113803035D01*
X148529837Y-113819302D01*
X148535828Y-113835745D01*
X148541798Y-113852367D01*
X148546163Y-113864669D01*
X147054229Y-116554165D02*
X147048549Y-116580846D01*
X147042918Y-116607198D01*
X147037556Y-116632193D01*
X147032236Y-116656893D01*
X147027147Y-116680428D01*
X147022094Y-116703695D01*
X147017241Y-116725948D01*
X147012420Y-116747958D01*
X147007773Y-116769075D01*
X147003155Y-116789970D01*
X146998691Y-116810072D01*
X146994252Y-116829970D01*
X146989950Y-116849159D01*
X146985670Y-116868158D01*
X146981512Y-116886520D01*
X146977374Y-116904706D01*
X146973346Y-116922315D01*
X146969335Y-116939760D01*
X146965424Y-116956680D01*
X146961528Y-116973447D01*
X146957722Y-116989736D01*
X146953928Y-117005881D01*
X146950218Y-117021587D01*
X146946518Y-117037159D01*
X146942893Y-117052328D01*
X146939277Y-117067371D01*
X146935731Y-117082041D01*
X146932192Y-117096593D01*
X146928716Y-117110801D01*
X146925246Y-117124898D01*
X146921835Y-117138676D01*
X146918428Y-117152348D01*
X146915075Y-117165725D01*
X146911725Y-117179003D01*
X146908425Y-117192006D01*
X146905127Y-117204915D01*
X146901874Y-117217568D01*
X146898623Y-117230132D01*
X146895412Y-117242457D01*
X146892203Y-117254699D01*
X146889032Y-117266718D01*
X146885861Y-117278657D01*
X146882724Y-117290389D01*
X146879586Y-117302045D01*
X146876480Y-117313506D01*
X146873373Y-117324897D01*
X146870294Y-117336105D01*
X146867213Y-117347246D01*
X146864159Y-117358216D01*
X146861101Y-117369122D01*
X146858067Y-117379870D01*
X146855030Y-117390556D01*
X146852014Y-117401094D01*
X146848993Y-117411573D01*
X146845992Y-117421914D01*
X146842986Y-117432199D01*
X146839997Y-117442355D01*
X146837002Y-117452458D01*
X146834023Y-117462440D01*
X146831037Y-117472373D01*
X146828064Y-117482192D01*
X146825085Y-117491964D01*
X146822117Y-117501631D01*
X146819141Y-117511253D01*
X146816175Y-117520777D01*
X146813201Y-117530259D01*
X146810235Y-117539650D01*
X146807260Y-117549001D01*
X146804291Y-117558267D01*
X146801313Y-117567496D01*
X146798339Y-117576647D01*
X146795356Y-117585762D01*
X146792375Y-117594805D01*
X146789385Y-117603814D01*
X146786395Y-117612758D01*
X146783394Y-117621670D01*
X146780393Y-117630522D01*
X146777380Y-117639344D01*
X146774365Y-117648112D01*
X146771338Y-117656852D01*
X146768308Y-117665542D01*
X146765265Y-117674207D01*
X146762216Y-117682828D01*
X146759154Y-117691425D01*
X146756086Y-117699983D01*
X146753003Y-117708519D01*
X146749912Y-117717021D01*
X146746807Y-117725502D01*
X146743691Y-117733955D01*
X146740561Y-117742389D01*
X146737418Y-117750800D01*
X146734261Y-117759193D01*
X146731088Y-117767567D01*
X146727901Y-117775926D01*
X146721478Y-117792602D01*
X146714986Y-117809234D01*
X146708420Y-117825836D01*
X146701776Y-117842419D01*
X146695047Y-117858997D01*
X146688228Y-117875585D01*
X146681314Y-117892194D01*
X146674299Y-117908840D01*
X146667175Y-117925536D01*
X146659937Y-117942296D01*
X146652578Y-117959136D01*
X146645090Y-117976070D01*
X146637466Y-117993115D01*
X146629698Y-118010287D01*
X146621776Y-118027603D01*
X146613693Y-118045082D01*
X146605438Y-118062741D01*
X146597000Y-118080602D01*
X146588370Y-118098684D01*
X146579534Y-118117012D01*
X146570479Y-118135608D01*
X146561193Y-118154499D01*
X146551659Y-118173711D01*
X146541862Y-118193276D01*
X146531782Y-118213225D01*
X146521401Y-118233593D01*
X146510697Y-118254421D01*
X146499646Y-118275749D01*
X146488221Y-118297626D01*
X146476391Y-118320104D01*
X146464124Y-118343242D01*
X146451381Y-118367108D01*
X146438119Y-118391777D01*
X146424288Y-118417337D01*
X146409830Y-118443888D01*
X146394676Y-118471550D01*
X146378746Y-118500463D01*
X146361943Y-118530798D01*
X146344147Y-118562761D01*
X146325209Y-118596611D01*
X146304938Y-118632683D01*
X146284845Y-118668296D01*
X147167963Y-114553769D02*
X147168178Y-114572626D01*
X147168405Y-114590853D01*
X147168645Y-114608543D01*
X147168897Y-114625629D01*
X147169161Y-114642222D01*
X147169435Y-114658234D01*
X147169721Y-114673801D01*
X147170016Y-114688809D01*
X147170323Y-114703419D01*
X147170638Y-114717493D01*
X147170965Y-114731222D01*
X147171299Y-114744434D01*
X147171997Y-114769783D01*
X147172732Y-114793706D01*
X147173504Y-114816388D01*
X147174316Y-114838050D01*
X147175176Y-114858981D01*
X147176096Y-114879611D01*
X147177109Y-114900720D01*
X147178308Y-114924338D01*
X147178675Y-114931428D01*
X147179841Y-114954199D01*
X147180374Y-114965118D01*
X147180869Y-114975878D01*
X147181320Y-114986590D01*
X147181723Y-114997369D01*
X147182075Y-115008326D01*
X147182370Y-115019576D01*
X147182605Y-115031230D01*
X147182775Y-115043403D01*
X147182875Y-115056207D01*
X147182902Y-115069755D01*
X147182851Y-115084160D01*
X147182717Y-115099536D01*
X147182497Y-115115995D01*
X147182186Y-115133650D01*
X147181779Y-115152614D01*
X147181272Y-115173001D01*
X147180662Y-115194922D01*
X147179943Y-115218493D01*
X147179111Y-115243824D01*
X147178162Y-115271030D01*
X147177091Y-115300224D01*
X147175895Y-115331518D01*
X147174569Y-115365025D01*
X147173108Y-115400859D01*
X147171508Y-115439132D01*
X147169765Y-115479958D01*
X147167874Y-115523449D01*
X147165831Y-115569719D01*
X147163632Y-115618881D01*
X147161273Y-115671047D01*
X147228876Y-111755381D02*
X147242366Y-111756892D01*
X147256303Y-111758485D01*
X147266188Y-111759639D01*
X147276279Y-111760841D01*
X147285137Y-111761917D01*
X147294145Y-111763035D01*
X147302439Y-111764085D01*
X147310852Y-111765173D01*
X147318775Y-111766218D01*
X147326798Y-111767297D01*
X147334454Y-111768349D01*
X147342196Y-111769433D01*
X147349647Y-111770498D01*
X147357175Y-111771594D01*
X147364462Y-111772677D01*
X147371819Y-111773791D01*
X147378972Y-111774894D01*
X147386189Y-111776029D01*
X147393230Y-111777156D01*
X147400328Y-111778314D01*
X147407272Y-111779467D01*
X147414269Y-111780650D01*
X147421128Y-111781830D01*
X147428037Y-111783040D01*
X147434822Y-111784249D01*
X147441653Y-111785487D01*
X147448371Y-111786724D01*
X147455132Y-111787991D01*
X147461789Y-111789259D01*
X147468488Y-111790556D01*
X147475090Y-111791854D01*
X147481731Y-111793181D01*
X147488283Y-111794511D01*
X147494871Y-111795869D01*
X147501376Y-111797231D01*
X147507915Y-111798621D01*
X147514376Y-111800015D01*
X147520870Y-111801436D01*
X147527290Y-111802863D01*
X147533742Y-111804317D01*
X147540123Y-111805776D01*
X147546535Y-111807262D01*
X147552880Y-111808755D01*
X147559253Y-111810274D01*
X147565564Y-111811800D01*
X147571901Y-111813352D01*
X147578179Y-111814911D01*
X147584482Y-111816498D01*
X147590727Y-111818090D01*
X147596997Y-111819710D01*
X147603213Y-111821336D01*
X147609451Y-111822990D01*
X147615637Y-111824650D01*
X147621845Y-111826338D01*
X147628003Y-111828032D01*
X147634181Y-111829753D01*
X147640311Y-111831482D01*
X147646462Y-111833238D01*
X147652565Y-111835001D01*
X147658688Y-111836790D01*
X147664765Y-111838588D01*
X147670861Y-111840412D01*
X147676913Y-111842244D01*
X147682983Y-111844103D01*
X147689010Y-111845969D01*
X147695055Y-111847862D01*
X147701058Y-111849763D01*
X147707078Y-111851691D01*
X147713057Y-111853627D01*
X147719053Y-111855589D01*
X147725009Y-111857560D01*
X147730980Y-111859557D01*
X147736914Y-111861562D01*
X147742862Y-111863594D01*
X147748773Y-111865635D01*
X147754698Y-111867701D01*
X147760587Y-111869777D01*
X147766490Y-111871878D01*
X147772357Y-111873989D01*
X147778237Y-111876125D01*
X147784083Y-111878271D01*
X147789942Y-111880442D01*
X147795767Y-111882623D01*
X147801603Y-111884829D01*
X147807407Y-111887045D01*
X147813223Y-111889286D01*
X147819006Y-111891537D01*
X147824801Y-111893814D01*
X147830564Y-111896100D01*
X147836338Y-111898412D01*
X147842081Y-111900733D01*
X147847834Y-111903081D01*
X147853557Y-111905437D01*
X147859290Y-111907820D01*
X147864994Y-111910212D01*
X147870706Y-111912629D01*
X147876390Y-111915057D01*
X147882083Y-111917510D01*
X147887748Y-111919973D01*
X147893421Y-111922461D01*
X147899067Y-111924960D01*
X147904720Y-111927484D01*
X147910347Y-111930018D01*
X147915981Y-111932577D01*
X147921589Y-111935146D01*
X147927204Y-111937742D01*
X147932793Y-111940347D01*
X147938389Y-111942977D01*
X147943959Y-111945618D01*
X147949536Y-111948284D01*
X147955088Y-111950961D01*
X147960647Y-111953663D01*
X147966180Y-111956375D01*
X147971720Y-111959113D01*
X147977235Y-111961861D01*
X147982757Y-111964634D01*
X147988254Y-111967418D01*
X147993757Y-111970227D01*
X147999236Y-111973047D01*
X148004721Y-111975892D01*
X148010183Y-111978748D01*
X148015649Y-111981629D01*
X148021093Y-111984521D01*
X148026542Y-111987438D01*
X148031968Y-111990366D01*
X148037399Y-111993320D01*
X148042807Y-111996284D01*
X148048220Y-111999273D01*
X148053611Y-112002273D01*
X148059006Y-112005299D01*
X148064380Y-112008335D01*
X148069757Y-112011397D01*
X148075113Y-112014470D01*
X148080474Y-112017568D01*
X148085813Y-112020678D01*
X148091155Y-112023812D01*
X148096477Y-112026958D01*
X148101802Y-112030129D01*
X148107107Y-112033311D01*
X148112415Y-112036519D01*
X148117703Y-112039738D01*
X148122994Y-112042982D01*
X148128265Y-112046238D01*
X148133538Y-112049519D01*
X148138792Y-112052811D01*
X148144049Y-112056129D01*
X148149286Y-112059458D01*
X148154526Y-112062813D01*
X148159746Y-112066179D01*
X148164969Y-112069570D01*
X148170173Y-112072973D01*
X148175379Y-112076402D01*
X148180566Y-112079842D01*
X148185755Y-112083308D01*
X148190925Y-112086785D01*
X148196098Y-112090288D01*
X148201252Y-112093803D01*
X148206407Y-112097343D01*
X148211545Y-112100895D01*
X148216684Y-112104472D01*
X148221805Y-112108062D01*
X148226928Y-112111676D01*
X148232033Y-112115304D01*
X148237139Y-112118956D01*
X148242227Y-112122621D01*
X148247317Y-112126311D01*
X148252389Y-112130013D01*
X148257462Y-112133741D01*
X148262518Y-112137481D01*
X148267575Y-112141247D01*
X148272615Y-112145025D01*
X148277655Y-112148829D01*
X148282679Y-112152645D01*
X148287703Y-112156487D01*
X148292710Y-112160342D01*
X148297718Y-112164221D01*
X148302710Y-112168114D01*
X148307701Y-112172032D01*
X148312677Y-112175964D01*
X148317652Y-112179920D01*
X148322612Y-112183890D01*
X148327571Y-112187885D01*
X148332515Y-112191893D01*
X148337458Y-112195927D01*
X148342386Y-112199974D01*
X148347313Y-112204046D01*
X148352224Y-112208132D01*
X148357135Y-112212244D01*
X148362031Y-112216368D01*
X148366926Y-112220519D01*
X148371806Y-112224683D01*
X148376685Y-112228872D01*
X148381549Y-112233075D01*
X148386412Y-112237304D01*
X148391261Y-112241547D01*
X148396108Y-112245815D01*
X148400940Y-112250097D01*
X148405771Y-112254404D01*
X148410588Y-112258726D01*
X148415403Y-112263073D01*
X148420204Y-112267435D01*
X148425004Y-112271822D01*
X148429789Y-112276223D01*
X148434572Y-112280650D01*
X148439342Y-112285091D01*
X148444109Y-112289558D01*
X148448863Y-112294040D01*
X148453615Y-112298547D01*
X148458352Y-112303069D01*
X148463088Y-112307617D01*
X148467811Y-112312179D01*
X148472531Y-112316767D01*
X148477237Y-112321370D01*
X148481941Y-112325998D01*
X148486632Y-112330642D01*
X148491321Y-112335312D01*
X148495996Y-112339996D01*
X148500668Y-112344707D01*
X148505328Y-112349432D01*
X148509984Y-112354184D01*
X148514628Y-112358950D01*
X148519269Y-112363743D01*
X148523897Y-112368551D01*
X148528522Y-112373386D01*
X148533134Y-112378235D01*
X148537744Y-112383111D01*
X148542340Y-112388002D01*
X148546934Y-112392920D01*
X148551514Y-112397853D01*
X148556092Y-112402813D01*
X148560657Y-112407788D01*
X148565219Y-112412789D01*
X148569768Y-112417807D01*
X148574314Y-112422850D01*
X148578848Y-112427910D01*
X148583378Y-112432996D01*
X148587896Y-112438098D01*
X148592410Y-112443227D01*
X148596912Y-112448372D01*
X148601410Y-112453543D01*
X148605896Y-112458731D01*
X148610379Y-112463946D01*
X148614849Y-112469176D01*
X148619316Y-112474434D01*
X148623770Y-112479708D01*
X148628221Y-112485008D01*
X148632660Y-112490326D01*
X148637094Y-112495670D01*
X148641517Y-112501031D01*
X148645936Y-112506419D01*
X148650343Y-112511824D01*
X148654745Y-112517255D01*
X148659136Y-112522704D01*
X148663523Y-112528179D01*
X148667898Y-112533672D01*
X148672268Y-112539192D01*
X148676627Y-112544729D01*
X148680982Y-112550293D01*
X148685325Y-112555875D01*
X148689663Y-112561484D01*
X148693990Y-112567110D01*
X148698312Y-112572763D01*
X148702623Y-112578435D01*
X148706929Y-112584133D01*
X148711224Y-112589849D01*
X148715513Y-112595593D01*
X148719792Y-112601354D01*
X148724066Y-112607143D01*
X148728328Y-112612950D01*
X148732585Y-112618784D01*
X148736831Y-112624637D01*
X148741072Y-112630517D01*
X148745302Y-112636416D01*
X148749526Y-112642342D01*
X148753740Y-112648287D01*
X148757948Y-112654259D01*
X148762145Y-112660250D01*
X148766337Y-112666268D01*
X148770518Y-112672306D01*
X148774693Y-112678371D01*
X148778857Y-112684455D01*
X148783016Y-112690566D01*
X148787163Y-112696698D01*
X148791305Y-112702856D01*
X148795436Y-112709035D01*
X148799562Y-112715240D01*
X148803676Y-112721466D01*
X148807785Y-112727719D01*
X148811883Y-112733992D01*
X148815975Y-112740293D01*
X148820056Y-112746614D01*
X148824131Y-112752962D01*
X148828195Y-112759331D01*
X148832253Y-112765728D01*
X148836301Y-112772145D01*
X148840342Y-112778590D01*
X148844373Y-112785055D01*
X148848397Y-112791548D01*
X148852411Y-112798062D01*
X148856418Y-112804604D01*
X148860414Y-112811167D01*
X148864405Y-112817758D01*
X148868384Y-112824370D01*
X148872357Y-112831010D01*
X148876319Y-112837671D01*
X148880275Y-112844360D01*
X148884220Y-112851071D01*
X148888159Y-112857810D01*
X148892086Y-112864570D01*
X148896007Y-112871359D01*
X148899918Y-112878170D01*
X148903821Y-112885008D01*
X148907714Y-112891869D01*
X148911600Y-112898758D01*
X148915476Y-112905669D01*
X148919344Y-112912608D01*
X148923202Y-112919570D01*
X148927053Y-112926560D01*
X148930893Y-112933573D01*
X148934726Y-112940614D01*
X148938549Y-112947678D01*
X148942364Y-112954770D01*
X148946168Y-112961885D01*
X148949966Y-112969029D01*
X148953752Y-112976196D01*
X148957532Y-112983391D01*
X148961300Y-112990610D01*
X148965062Y-112997857D01*
X148968812Y-113005128D01*
X148972555Y-113012427D01*
X148976288Y-113019750D01*
X148980013Y-113027102D01*
X148983727Y-113034477D01*
X148987434Y-113041882D01*
X148991130Y-113049310D01*
X148994818Y-113056767D01*
X148998495Y-113064249D01*
X149002165Y-113071759D01*
X149005824Y-113079294D01*
X149009475Y-113086857D01*
X149013115Y-113094445D01*
X149016748Y-113102063D01*
X149020369Y-113109705D01*
X149023983Y-113117376D01*
X149027586Y-113125072D01*
X149031180Y-113132797D01*
X149034765Y-113140547D01*
X149038340Y-113148327D01*
X149041905Y-113156132D01*
X149045462Y-113163966D01*
X149049008Y-113171826D01*
X149052545Y-113179715D01*
X149056072Y-113187629D01*
X149059590Y-113195573D01*
X149063098Y-113203543D01*
X149066597Y-113211543D01*
X149070085Y-113219568D01*
X149073564Y-113227623D01*
X149077033Y-113235704D01*
X149080493Y-113243816D01*
X149083942Y-113251953D01*
X149087382Y-113260120D01*
X149090811Y-113268313D01*
X149094232Y-113276537D01*
X149097641Y-113284787D01*
X149101041Y-113293067D01*
X149104431Y-113301374D01*
X149107812Y-113309711D01*
X149111181Y-113318075D01*
X149114541Y-113326470D01*
X149117891Y-113334891D01*
X149121231Y-113343343D01*
X149124560Y-113351822D01*
X149127880Y-113360331D01*
X149131189Y-113368868D01*
X149134488Y-113377435D01*
X149137776Y-113386030D01*
X149141055Y-113394656D01*
X149144323Y-113403309D01*
X149147581Y-113411993D01*
X149150828Y-113420705D01*
X149154065Y-113429448D01*
X149157291Y-113438219D01*
X149160507Y-113447021D01*
X149163712Y-113455851D01*
X149166907Y-113464712D01*
X149170092Y-113473601D01*
X149173266Y-113482522D01*
X149176428Y-113491471D01*
X149179581Y-113500452D01*
X149182723Y-113509461D01*
X149185854Y-113518502D01*
X149188974Y-113527572D01*
X149192084Y-113536673D01*
X149195182Y-113545803D01*
X149198270Y-113554965D01*
X149201347Y-113564155D01*
X149204413Y-113573378D01*
X149207468Y-113582630D01*
X149210513Y-113591914D01*
X149213546Y-113601227D01*
X149216568Y-113610573D01*
X149219579Y-113619948D01*
X149222579Y-113629355D01*
X149225567Y-113638792D01*
X149228545Y-113648261D01*
X149231511Y-113657760D01*
X149234467Y-113667291D01*
X149237410Y-113676853D01*
X149240343Y-113686447D01*
X149243264Y-113696071D01*
X149246174Y-113705728D01*
X149249072Y-113715416D01*
X149251960Y-113725136D01*
X149254835Y-113734887D01*
X149257699Y-113744670D01*
X149260551Y-113754484D01*
X149263392Y-113764331D01*
X149266221Y-113774210D01*
X149269039Y-113784121D01*
X149271845Y-113794063D01*
X149274639Y-113804039D01*
X149276104Y-113809299D01*
X147622903Y-113951643D02*
X147630184Y-113961816D01*
X147637350Y-113971868D01*
X147643512Y-113980548D01*
X147649589Y-113989146D01*
X147655037Y-113996891D01*
X147660415Y-114004573D01*
X147665347Y-114011654D01*
X147670218Y-114018685D01*
X147674750Y-114025262D01*
X147679228Y-114031799D01*
X147683436Y-114037976D01*
X147687596Y-114044121D01*
X147691533Y-114049973D01*
X147695428Y-114055799D01*
X147699134Y-114061380D01*
X147702802Y-114066939D01*
X147706308Y-114072291D01*
X147709778Y-114077625D01*
X147713108Y-114082781D01*
X147716404Y-114087923D01*
X147719577Y-114092910D01*
X147722719Y-114097885D01*
X147725751Y-114102725D01*
X147728753Y-114107556D01*
X147731657Y-114112268D01*
X147734533Y-114116972D01*
X147737321Y-114121572D01*
X147740082Y-114126166D01*
X147742763Y-114130666D01*
X147745419Y-114135163D01*
X147748002Y-114139577D01*
X147750560Y-114143988D01*
X147753052Y-114148325D01*
X147755520Y-114152662D01*
X147757927Y-114156932D01*
X147760311Y-114161203D01*
X147762639Y-114165415D01*
X147764945Y-114169629D01*
X147767199Y-114173790D01*
X147769432Y-114177954D01*
X147771617Y-114182070D01*
X147773781Y-114186191D01*
X147775900Y-114190270D01*
X147777999Y-114194355D01*
X147780057Y-114198402D01*
X147782095Y-114202455D01*
X147784094Y-114206476D01*
X147786075Y-114210505D01*
X147788019Y-114214504D01*
X147789944Y-114218512D01*
X147791836Y-114222495D01*
X147793709Y-114226487D01*
X147795550Y-114230459D01*
X147797374Y-114234440D01*
X147799168Y-114238403D01*
X147800944Y-114242378D01*
X147802692Y-114246338D01*
X147804423Y-114250310D01*
X147806127Y-114254270D01*
X147807815Y-114258243D01*
X147809478Y-114262208D01*
X147811124Y-114266186D01*
X147812746Y-114270159D01*
X147814353Y-114274145D01*
X147815937Y-114278130D01*
X147817505Y-114282129D01*
X147819051Y-114286128D01*
X147820582Y-114290143D01*
X147822093Y-114294160D01*
X147823588Y-114298194D01*
X147825064Y-114302234D01*
X147826525Y-114306291D01*
X147827968Y-114310356D01*
X147829395Y-114314438D01*
X147830806Y-114318532D01*
X147832201Y-114322644D01*
X147833579Y-114326769D01*
X147834943Y-114330914D01*
X147836291Y-114335074D01*
X147837625Y-114339255D01*
X147838943Y-114343454D01*
X147840247Y-114347674D01*
X147841537Y-114351914D01*
X147842812Y-114356177D01*
X147844073Y-114360463D01*
X147845320Y-114364771D01*
X147846553Y-114369106D01*
X147847773Y-114373464D01*
X147850172Y-114382261D01*
X147852518Y-114391170D01*
X147854813Y-114400198D01*
X147857057Y-114409353D01*
X147859251Y-114418641D01*
X147861396Y-114428071D01*
X147863493Y-114437649D01*
X147865541Y-114447385D01*
X147867543Y-114457287D01*
X147869498Y-114467363D01*
X147871406Y-114477622D01*
X147873269Y-114488073D01*
X147875086Y-114498726D01*
X147876857Y-114509590D01*
X147878584Y-114520677D01*
X147880265Y-114531996D01*
X147881902Y-114543558D01*
X147883493Y-114555376D01*
X147885040Y-114567462D01*
X147886541Y-114579828D01*
X147887997Y-114592488D01*
X147889408Y-114605456D01*
X147890773Y-114618746D01*
X147892092Y-114632375D01*
X147893365Y-114646358D01*
X147894591Y-114660713D01*
X147895770Y-114675458D01*
X147896901Y-114690613D01*
X147897983Y-114706198D01*
X147899017Y-114722235D01*
X147900000Y-114738747D01*
X147900933Y-114755759D01*
X147901815Y-114773297D01*
X147902644Y-114791390D01*
X147903419Y-114810069D01*
X147904140Y-114829365D01*
X147904805Y-114849313D01*
X147905413Y-114869952D01*
X147905962Y-114891322D01*
X147906451Y-114913469D01*
X147906877Y-114936439D01*
X147907240Y-114960286D01*
X147907537Y-114985068D01*
X147907766Y-115010848D01*
X147907924Y-115037695D01*
X147908008Y-115065688D01*
X147908017Y-115094913D01*
X147907945Y-115125466D01*
X147907791Y-115157456D01*
X147907548Y-115191007D01*
X147907214Y-115226258D01*
X147906782Y-115263371D01*
X147906246Y-115302534D01*
X147905599Y-115343967D01*
X147904833Y-115387932D01*
X147903938Y-115434741D01*
X147903895Y-115436887D01*
X147770089Y-117076007D02*
X147764350Y-117099317D01*
X147758496Y-117122763D01*
X147752525Y-117146344D01*
X147746439Y-117170060D01*
X147740236Y-117193910D01*
X147733916Y-117217894D01*
X147727478Y-117242012D01*
X147720922Y-117266263D01*
X147714248Y-117290646D01*
X147707456Y-117315161D01*
X147700545Y-117339807D01*
X147693514Y-117364583D01*
X147686365Y-117389488D01*
X147679095Y-117414522D01*
X147671706Y-117439683D01*
X147664197Y-117464971D01*
X147656568Y-117490383D01*
X147648819Y-117515920D01*
X147640949Y-117541579D01*
X147632959Y-117567360D01*
X147624849Y-117593260D01*
X147616619Y-117619279D01*
X147608268Y-117645414D01*
X147599798Y-117671663D01*
X147591208Y-117698025D01*
X147582498Y-117724497D01*
X147573670Y-117751078D01*
X147564723Y-117777764D01*
X147555657Y-117804554D01*
X147546474Y-117831445D01*
X147537173Y-117858433D01*
X147527757Y-117885516D01*
X147518224Y-117912691D01*
X147508577Y-117939954D01*
X147498816Y-117967301D01*
X147488942Y-117994729D01*
X147478957Y-118022233D01*
X147468861Y-118049809D01*
X147458657Y-118077453D01*
X147448346Y-118105159D01*
X147437929Y-118132922D01*
X147427409Y-118160736D01*
X147416787Y-118188596D01*
X147406066Y-118216496D01*
X147395248Y-118244427D01*
X147384336Y-118272384D01*
X147373334Y-118300359D01*
X147362243Y-118328343D01*
X147351067Y-118356329D01*
X147339810Y-118384307D01*
X147328476Y-118412267D01*
X147317068Y-118440201D01*
X147305592Y-118468099D01*
X147294050Y-118495950D01*
X147282448Y-118523745D01*
X147270789Y-118551476D01*
X147259076Y-118579136D01*
X147247311Y-118606723D01*
X147235493Y-118634242D01*
X147223613Y-118661711D01*
X147211654Y-118689177D01*
X147199569Y-118716746D01*
X147187252Y-118744669D01*
X147174397Y-118773643D01*
X147163649Y-118797779D01*
X147155665Y-118815705D01*
X147149214Y-118830266D01*
X147146586Y-118836256D01*
X147144369Y-118841372D01*
X147142571Y-118845601D01*
X147141202Y-118848933D01*
X147903895Y-115436887D02*
X147904620Y-115455766D01*
X147905282Y-115475065D01*
X147905877Y-115494781D01*
X147906405Y-115514909D01*
X147906864Y-115535442D01*
X147907251Y-115556375D01*
X147907566Y-115577700D01*
X147907806Y-115599408D01*
X147907970Y-115621491D01*
X147908057Y-115643938D01*
X147908065Y-115666738D01*
X147907993Y-115689879D01*
X147907840Y-115713348D01*
X147907605Y-115737132D01*
X147907287Y-115761215D01*
X147906885Y-115785582D01*
X147906399Y-115810217D01*
X147905828Y-115835103D01*
X147905171Y-115860221D01*
X147904429Y-115885552D01*
X147903600Y-115911079D01*
X147902687Y-115936780D01*
X147901687Y-115962635D01*
X147900602Y-115988624D01*
X147899433Y-116014725D01*
X147898179Y-116040917D01*
X147896842Y-116067177D01*
X147896143Y-116080326D01*
X147895423Y-116093483D01*
X147894682Y-116106647D01*
X147893921Y-116119815D01*
X147893141Y-116132981D01*
X147892340Y-116146148D01*
X147891520Y-116159306D01*
X147890680Y-116172462D01*
X147889821Y-116185600D01*
X147888942Y-116198734D01*
X147888045Y-116211842D01*
X147887128Y-116224943D01*
X147886193Y-116238010D01*
X147885239Y-116251067D01*
X147884269Y-116264082D01*
X147883278Y-116277086D01*
X147882272Y-116290039D01*
X147881247Y-116302978D01*
X147880206Y-116315859D01*
X147879146Y-116328723D01*
X147878072Y-116341523D01*
X147876979Y-116354303D01*
X147875872Y-116367011D01*
X147874747Y-116379697D01*
X147873609Y-116392305D01*
X147872453Y-116404889D01*
X147871284Y-116417388D01*
X147870098Y-116429859D01*
X147868900Y-116442240D01*
X147867685Y-116454592D01*
X147866460Y-116466848D01*
X147865217Y-116479072D01*
X147863965Y-116491194D01*
X147862695Y-116503282D01*
X147861417Y-116515263D01*
X147860123Y-116527209D01*
X147858820Y-116539043D01*
X147857502Y-116550840D01*
X147856176Y-116562519D01*
X147854834Y-116574160D01*
X147853487Y-116585680D01*
X147852123Y-116597159D01*
X147850755Y-116608513D01*
X147849371Y-116619826D01*
X147847983Y-116631009D01*
X147846579Y-116642149D01*
X147845173Y-116653158D01*
X147843751Y-116664121D01*
X147842327Y-116674950D01*
X147840889Y-116685732D01*
X147839449Y-116696377D01*
X147837995Y-116706975D01*
X147836540Y-116717433D01*
X147835071Y-116727843D01*
X147833602Y-116738111D01*
X147832120Y-116748329D01*
X147830638Y-116758405D01*
X147829143Y-116768429D01*
X147827650Y-116778310D01*
X147826144Y-116788139D01*
X147824640Y-116797822D01*
X147823124Y-116807453D01*
X147821610Y-116816938D01*
X147820085Y-116826370D01*
X147818563Y-116835655D01*
X147817029Y-116844886D01*
X147815500Y-116853970D01*
X147813959Y-116863000D01*
X147812423Y-116871883D01*
X147810876Y-116880711D01*
X147809334Y-116889392D01*
X147807782Y-116898018D01*
X147806236Y-116906497D01*
X147804679Y-116914921D01*
X147803129Y-116923198D01*
X147801569Y-116931420D01*
X147800017Y-116939496D01*
X147798454Y-116947517D01*
X147796899Y-116955392D01*
X147795335Y-116963212D01*
X147793779Y-116970888D01*
X147792213Y-116978508D01*
X147790657Y-116985986D01*
X147789091Y-116993408D01*
X147787535Y-117000688D01*
X147785970Y-117007913D01*
X147784415Y-117014997D01*
X147782852Y-117022027D01*
X147781298Y-117028917D01*
X147779737Y-117035753D01*
X147778186Y-117042451D01*
X147776627Y-117049095D01*
X147775080Y-117055603D01*
X147773525Y-117062057D01*
X147771981Y-117068377D01*
X147770429Y-117074643D01*
X147770089Y-117076007D01*
X148679969Y-114747787D02*
X148680702Y-114764218D01*
X148681415Y-114780640D01*
X148682104Y-114796989D01*
X148682773Y-114813329D01*
X148683419Y-114829597D01*
X148684044Y-114845858D01*
X148684647Y-114862047D01*
X148685229Y-114878229D01*
X148685789Y-114894341D01*
X148686329Y-114910446D01*
X148686846Y-114926483D01*
X148687343Y-114942512D01*
X148687817Y-114958475D01*
X148688272Y-114974431D01*
X148688704Y-114990321D01*
X148689117Y-115006205D01*
X148689507Y-115022024D01*
X148689878Y-115037837D01*
X148690226Y-115053587D01*
X148690555Y-115069330D01*
X148690862Y-115085012D01*
X148691149Y-115100687D01*
X148691415Y-115116302D01*
X148691661Y-115131911D01*
X148691886Y-115147461D01*
X148692091Y-115163005D01*
X148692275Y-115178490D01*
X148692438Y-115193970D01*
X148692581Y-115209393D01*
X148692704Y-115224810D01*
X148692807Y-115240171D01*
X148692889Y-115255527D01*
X148692951Y-115270828D01*
X148692993Y-115286123D01*
X148693015Y-115301365D01*
X148693017Y-115316602D01*
X148692999Y-115331785D01*
X148692960Y-115346964D01*
X148692902Y-115362091D01*
X148692824Y-115377213D01*
X148692726Y-115392285D01*
X148692608Y-115407351D01*
X148692470Y-115422368D01*
X148692312Y-115437380D01*
X148692135Y-115452343D01*
X148691938Y-115467302D01*
X148691721Y-115482212D01*
X148691485Y-115497119D01*
X148691229Y-115511978D01*
X148690953Y-115526833D01*
X148690658Y-115541642D01*
X148690343Y-115556447D01*
X148690009Y-115571206D01*
X148689655Y-115585961D01*
X148689282Y-115600672D01*
X148688889Y-115615379D01*
X148688477Y-115630043D01*
X148688045Y-115644703D01*
X148687595Y-115659319D01*
X148687124Y-115673933D01*
X148686635Y-115688504D01*
X148686126Y-115703071D01*
X148685598Y-115717598D01*
X148685050Y-115732121D01*
X148684484Y-115746604D01*
X148683898Y-115761083D01*
X148683293Y-115775522D01*
X148682669Y-115789959D01*
X148682026Y-115804356D01*
X148681363Y-115818751D01*
X148680682Y-115833107D01*
X148679981Y-115847460D01*
X148679262Y-115861776D01*
X148678523Y-115876088D01*
X148677766Y-115890364D01*
X148676988Y-115904638D01*
X148676193Y-115918875D01*
X148675378Y-115933109D01*
X148674545Y-115947308D01*
X148673692Y-115961504D01*
X148672820Y-115975666D01*
X148671929Y-115989825D01*
X148671020Y-116003950D01*
X148670091Y-116018073D01*
X148669145Y-116032162D01*
X148668178Y-116046250D01*
X148667193Y-116060304D01*
X148666189Y-116074356D01*
X148665167Y-116088376D01*
X148664124Y-116102393D01*
X148663064Y-116116380D01*
X148661985Y-116130364D01*
X148660887Y-116144317D01*
X148659769Y-116158268D01*
X148658634Y-116172189D01*
X148657479Y-116186109D01*
X148656306Y-116199998D01*
X148655114Y-116213886D01*
X148653903Y-116227744D01*
X148652673Y-116241601D01*
X148651425Y-116255429D01*
X148650157Y-116269256D01*
X148648872Y-116283055D01*
X148647567Y-116296852D01*
X148646244Y-116310621D01*
X148644901Y-116324390D01*
X148643541Y-116338131D01*
X148642160Y-116351871D01*
X148640763Y-116365585D01*
X148639345Y-116379297D01*
X148637910Y-116392984D01*
X148636454Y-116406669D01*
X148634982Y-116420330D01*
X148633489Y-116433989D01*
X148631979Y-116447623D01*
X148630448Y-116461256D01*
X148628901Y-116474865D01*
X148627333Y-116488473D01*
X148625748Y-116502057D01*
X148624143Y-116515641D01*
X148622520Y-116529201D01*
X148620877Y-116542760D01*
X148619217Y-116556297D01*
X148617537Y-116569833D01*
X148615839Y-116583347D01*
X148614122Y-116596860D01*
X148612386Y-116610351D01*
X148610631Y-116623841D01*
X148608858Y-116637311D01*
X148607066Y-116650780D01*
X148605255Y-116664227D01*
X148603425Y-116677675D01*
X148601577Y-116691102D01*
X148599709Y-116704529D01*
X148597824Y-116717936D01*
X148595918Y-116731343D01*
X148593995Y-116744730D01*
X148592052Y-116758117D01*
X148590091Y-116771485D01*
X148588110Y-116784853D01*
X148586112Y-116798202D01*
X148584093Y-116811551D01*
X148582057Y-116824882D01*
X148580000Y-116838213D01*
X148577926Y-116851526D01*
X148575832Y-116864840D01*
X148573720Y-116878136D01*
X148571588Y-116891432D01*
X148569438Y-116904711D01*
X148567268Y-116917991D01*
X148565081Y-116931254D01*
X148562873Y-116944517D01*
X148560647Y-116957765D01*
X148558401Y-116971013D01*
X148556138Y-116984245D01*
X148553854Y-116997477D01*
X148551552Y-117010694D01*
X148549230Y-117023912D01*
X148546890Y-117037115D01*
X148544530Y-117050319D01*
X148542152Y-117063508D01*
X148539754Y-117076698D01*
X148537337Y-117089873D01*
X148534901Y-117103050D01*
X148532446Y-117116212D01*
X148529971Y-117129376D01*
X148527478Y-117142526D01*
X148524965Y-117155677D01*
X148522433Y-117168815D01*
X148519881Y-117181955D01*
X148517311Y-117195081D01*
X148514721Y-117208209D01*
X148512112Y-117221324D01*
X148509483Y-117234441D01*
X148506836Y-117247545D01*
X148504168Y-117260651D01*
X148501482Y-117273745D01*
X148498775Y-117286841D01*
X148496051Y-117299925D01*
X148493305Y-117313011D01*
X148490541Y-117326086D01*
X148487757Y-117339162D01*
X148484954Y-117352228D01*
X148482131Y-117365296D01*
X148479289Y-117378353D01*
X148476426Y-117391412D01*
X148473545Y-117404461D01*
X148470644Y-117417512D01*
X148467723Y-117430553D01*
X148464782Y-117443596D01*
X148461823Y-117456630D01*
X148458842Y-117469665D01*
X148455843Y-117482692D01*
X148452823Y-117495721D01*
X148449784Y-117508741D01*
X148446725Y-117521764D01*
X148443646Y-117534778D01*
X148440547Y-117547794D01*
X148437429Y-117560802D01*
X148434290Y-117573813D01*
X148431132Y-117586816D01*
X148427953Y-117599821D01*
X148424755Y-117612819D01*
X148421536Y-117625819D01*
X148418298Y-117638813D01*
X148415039Y-117651808D01*
X148411760Y-117664798D01*
X148408461Y-117677789D01*
X148405142Y-117690774D01*
X148401803Y-117703762D01*
X148398444Y-117716744D01*
X148395063Y-117729729D01*
X148391664Y-117742707D01*
X148388243Y-117755689D01*
X148384803Y-117768665D01*
X148381341Y-117781644D01*
X148377860Y-117794618D01*
X148374358Y-117807594D01*
X148370836Y-117820566D01*
X148367292Y-117833541D01*
X148363729Y-117846511D01*
X148360145Y-117859484D01*
X148356541Y-117872453D01*
X148352915Y-117885426D01*
X148349269Y-117898394D01*
X148345602Y-117911365D01*
X148341915Y-117924333D01*
X148338207Y-117937304D01*
X148334478Y-117950272D01*
X148330728Y-117963243D01*
X148326958Y-117976211D01*
X148323166Y-117989182D01*
X148319353Y-118002150D01*
X148315519Y-118015122D01*
X148311665Y-118028092D01*
X148307789Y-118041065D01*
X148303893Y-118054036D01*
X148299975Y-118067010D01*
X148296036Y-118079983D01*
X148292076Y-118092959D01*
X148288094Y-118105934D01*
X148284091Y-118118912D01*
X148280068Y-118131889D01*
X148276022Y-118144870D01*
X148271955Y-118157849D01*
X148267867Y-118170833D01*
X148263757Y-118183816D01*
X148259626Y-118196803D01*
X148255473Y-118209789D01*
X148251299Y-118222779D01*
X148247103Y-118235769D01*
X148242885Y-118248763D01*
X148238646Y-118261758D01*
X148234384Y-118274756D01*
X148230102Y-118287755D01*
X148225797Y-118300758D01*
X148221470Y-118313761D01*
X148217121Y-118326769D01*
X148212751Y-118339778D01*
X148208358Y-118352791D01*
X148203944Y-118365805D01*
X148199506Y-118378824D01*
X148195048Y-118391844D01*
X148190566Y-118404868D01*
X148186063Y-118417895D01*
X148181537Y-118430926D01*
X148176990Y-118443958D01*
X148172419Y-118456996D01*
X148167827Y-118470036D01*
X148163211Y-118483080D01*
X148158574Y-118496127D01*
X148153913Y-118509178D01*
X148149230Y-118522233D01*
X148144525Y-118535292D01*
X148139797Y-118548354D01*
X148135046Y-118561422D01*
X148130272Y-118574492D01*
X148125475Y-118587568D01*
X148120656Y-118600647D01*
X148115813Y-118613731D01*
X148110948Y-118626819D01*
X148106060Y-118639912D01*
X148097913Y-118661605D01*
X149276104Y-113809299D02*
X149281141Y-113828778D01*
X149286115Y-113848332D01*
X149291026Y-113867962D01*
X149295874Y-113887669D01*
X149300659Y-113907452D01*
X149305380Y-113927312D01*
X149310037Y-113947249D01*
X149314630Y-113967263D01*
X149319159Y-113987354D01*
X149323624Y-114007523D01*
X149328024Y-114027770D01*
X149332359Y-114048095D01*
X149336629Y-114068498D01*
X149340834Y-114088979D01*
X149344974Y-114109539D01*
X149349048Y-114130178D01*
X149353057Y-114150896D01*
X149356999Y-114171694D01*
X149360876Y-114192571D01*
X149364686Y-114213527D01*
X149368429Y-114234564D01*
X149372105Y-114255680D01*
X149375715Y-114276877D01*
X149379257Y-114298155D01*
X149382731Y-114319513D01*
X149386138Y-114340952D01*
X149389477Y-114362472D01*
X149392748Y-114384074D01*
X149395951Y-114405757D01*
X149399084Y-114427522D01*
X149402149Y-114449368D01*
X149405145Y-114471297D01*
X149408072Y-114493308D01*
X149410929Y-114515402D01*
X149413716Y-114537578D01*
X149416433Y-114559837D01*
X149419080Y-114582178D01*
X149421657Y-114604604D01*
X149424162Y-114627112D01*
X149426597Y-114649704D01*
X149428960Y-114672380D01*
X149431252Y-114695139D01*
X149433472Y-114717983D01*
X149435621Y-114740911D01*
X149437697Y-114763923D01*
X149439700Y-114787019D01*
X149441631Y-114810201D01*
X149443489Y-114833467D01*
X149445273Y-114856818D01*
X149446984Y-114880254D01*
X149448621Y-114903776D01*
X149450184Y-114927382D01*
X149451673Y-114951075D01*
X149453088Y-114974853D01*
X149454427Y-114998717D01*
X149455692Y-115022667D01*
X149456881Y-115046703D01*
X149457994Y-115070826D01*
X149459032Y-115095034D01*
X149459994Y-115119329D01*
X149460879Y-115143711D01*
X149461688Y-115168179D01*
X149462419Y-115192735D01*
X149463074Y-115217377D01*
X149463651Y-115242106D01*
X149464150Y-115266923D01*
X149464571Y-115291826D01*
X149464914Y-115316817D01*
X149465179Y-115341896D01*
X149465365Y-115367062D01*
X149465471Y-115392315D01*
X149465499Y-115417656D01*
X149465446Y-115443086D01*
X149465314Y-115468603D01*
X149465102Y-115494208D01*
X149464809Y-115519901D01*
X149464436Y-115545682D01*
X149463981Y-115571551D01*
X149463446Y-115597509D01*
X149462829Y-115623555D01*
X149462130Y-115649690D01*
X149461349Y-115675913D01*
X149460485Y-115702225D01*
X149459539Y-115728625D01*
X149458511Y-115755114D01*
X149457399Y-115781692D01*
X149456203Y-115808359D01*
X149454924Y-115835115D01*
X149453561Y-115861960D01*
X149452114Y-115888894D01*
X149450582Y-115915918D01*
X149448965Y-115943030D01*
X149447264Y-115970233D01*
X149445477Y-115997525D01*
X149443604Y-116024906D01*
X149441646Y-116052378D01*
X149439601Y-116079939D01*
X149437470Y-116107591D01*
X149435252Y-116135333D01*
X149432947Y-116163165D01*
X149430555Y-116191089D01*
X149428075Y-116219103D01*
X149425507Y-116247209D01*
X149422851Y-116275406D01*
X149420107Y-116303696D01*
X149417274Y-116332077D01*
X149414351Y-116360552D01*
X149411340Y-116389120D01*
X149408238Y-116417781D01*
X149405046Y-116446537D01*
X149401764Y-116475388D01*
X149398392Y-116504335D01*
X149394928Y-116533379D01*
X149391372Y-116562520D01*
X149387724Y-116591760D01*
X149383984Y-116621101D01*
X149380152Y-116650542D01*
X149376225Y-116680087D01*
X149372205Y-116709737D01*
X149368091Y-116739493D01*
X149363881Y-116769359D01*
X149359576Y-116799337D01*
X149355174Y-116829430D01*
X149350675Y-116859641D01*
X149346078Y-116889974D01*
X149341382Y-116920434D01*
X149336585Y-116951026D01*
X149331687Y-116981757D01*
X149326685Y-117012633D01*
X149321579Y-117043662D01*
X149316367Y-117074854D01*
X149311045Y-117106222D01*
X149305611Y-117137777D01*
X149300063Y-117169536D01*
X149294395Y-117201520D01*
X149288604Y-117233751D01*
X149282684Y-117266259D01*
X149276628Y-117299080D01*
X149270425Y-117332260D01*
X149264066Y-117365857D01*
X149257533Y-117399950D01*
X149250807Y-117434643D01*
X149243858Y-117470079D01*
X149236644Y-117506472D01*
X149229099Y-117544144D01*
X149221112Y-117583636D01*
X149212476Y-117625969D01*
X149202704Y-117673521D01*
X149193417Y-117718517D01*
X149183015Y-117768937D01*
X149178161Y-117792578D01*
X149173557Y-117815152D01*
X149169214Y-117836645D01*
X149165145Y-117857042D01*
X149161363Y-117876328D01*
X149159583Y-117885549D01*
X149157879Y-117894487D01*
X149156254Y-117903140D01*
X149154708Y-117911506D01*
X149153243Y-117919582D01*
X149151861Y-117927368D01*
X149150563Y-117934860D01*
X149149351Y-117942059D01*
X149148226Y-117948960D01*
X149147191Y-117955563D01*
X149146246Y-117961866D01*
X149145393Y-117967866D01*
X149144633Y-117973563D01*
X149143969Y-117978954D01*
X149143402Y-117984036D01*
X149142934Y-117988809D01*
X149142565Y-117993271D01*
X149142419Y-117995384D01*
X149142298Y-117997419D01*
D11*
%TO.C,D2*%
X108730000Y-117000000D03*
D12*
X111270000Y-117000000D03*
%TD*%
D11*
%TO.C,D3*%
X103500000Y-98000000D03*
D12*
X106040000Y-98000000D03*
%TD*%
D11*
%TO.C,D1*%
X108500000Y-89500000D03*
D12*
X111040000Y-89500000D03*
%TD*%
D11*
%TO.C,D4*%
X116230000Y-94000000D03*
D12*
X118770000Y-94000000D03*
%TD*%
D13*
%TO.C,J1*%
X177292000Y-75692000D03*
D14*
X177292000Y-78232000D03*
X179832000Y-75692000D03*
X179832000Y-78232000D03*
X182372000Y-75692000D03*
X182372000Y-78232000D03*
%TD*%
M02*
