%TF.GenerationSoftware,KiCad,Pcbnew,10.0.5*%
%TF.CreationDate,2026-08-15T07:42:58-07:00*%
%TF.ProjectId,bsidesorl-v1,62736964-6573-46f7-926c-2d76312e6b69,R0*%
%TF.SameCoordinates,Original*%
%TF.FileFunction,Legend,Bot*%
%TF.FilePolarity,Positive*%
%FSLAX46Y46*%
G04 Gerber Fmt 4.6, Leading zero omitted, Abs format (unit mm)*
G04 Created by KiCad (PCBNEW 10.0.5) date 2026-08-15 07:42:58*
%MOMM*%
%LPD*%
G01*
G04 APERTURE LIST*
G04 Aperture macros list*
%AMRoundRect*
0 Rectangle with rounded corners*
0 $1 Rounding radius*
0 $2 $3 $4 $5 $6 $7 $8 $9 X,Y pos of 4 corners*
0 Add a 4 corners polygon primitive as box body*
4,1,4,$2,$3,$4,$5,$6,$7,$8,$9,$2,$3,0*
0 Add four circle primitives for the rounded corners*
1,1,$1+$1,$2,$3*
1,1,$1+$1,$4,$5*
1,1,$1+$1,$6,$7*
1,1,$1+$1,$8,$9*
0 Add four rect primitives between the rounded corners*
20,1,$1+$1,$2,$3,$4,$5,0*
20,1,$1+$1,$4,$5,$6,$7,0*
20,1,$1+$1,$6,$7,$8,$9,0*
20,1,$1+$1,$8,$9,$2,$3,0*%
G04 Aperture macros list end*
%ADD10C,0.150000*%
%ADD11C,0.120000*%
%ADD12C,0.254001*%
%ADD13C,0.152400*%
%ADD14C,0.150013*%
%ADD15R,1.800000X1.800000*%
%ADD16C,1.800000*%
%ADD17R,1.700000X1.700000*%
%ADD18C,1.700000*%
%ADD19RoundRect,0.238000X-0.275000X0.200000X-0.275000X-0.200000X0.275000X-0.200000X0.275000X0.200000X0*%
%ADD20RoundRect,0.225000X-0.250000X0.225000X-0.250000X-0.225000X0.250000X-0.225000X0.250000X0.225000X0*%
%ADD21RoundRect,0.238000X-0.200000X-0.275000X0.200000X-0.275000X0.200000X0.275000X-0.200000X0.275000X0*%
%ADD22R,1.199898X2.000000*%
%ADD23RoundRect,0.205000X0.205000X-0.470000X0.205000X0.470000X-0.205000X0.470000X-0.205000X-0.470000X0*%
%ADD24RoundRect,0.100000X0.637500X0.100000X-0.637500X0.100000X-0.637500X-0.100000X0.637500X-0.100000X0*%
%ADD25RoundRect,0.238000X0.200000X0.275000X-0.200000X0.275000X-0.200000X-0.275000X0.200000X-0.275000X0*%
%ADD26RoundRect,0.238000X0.275000X-0.200000X0.275000X0.200000X-0.275000X0.200000X-0.275000X-0.200000X0*%
%ADD27R,0.664999X0.200000*%
%ADD28R,0.664999X0.400000*%
%ADD29RoundRect,0.225000X0.250000X-0.225000X0.250000X0.225000X-0.250000X0.225000X-0.250000X-0.225000X0*%
%ADD30R,5.100000X5.100000*%
%ADD31C,17.800000*%
G04 APERTURE END LIST*
D10*
X187035887Y-116436177D02*
X186893030Y-116483796D01*
X186893030Y-116483796D02*
X186845411Y-116531415D01*
X186845411Y-116531415D02*
X186797792Y-116626653D01*
X186797792Y-116626653D02*
X186797792Y-116769510D01*
X186797792Y-116769510D02*
X186845411Y-116864748D01*
X186845411Y-116864748D02*
X186893030Y-116912368D01*
X186893030Y-116912368D02*
X186988268Y-116959987D01*
X186988268Y-116959987D02*
X187369220Y-116959987D01*
X187369220Y-116959987D02*
X187369220Y-115959987D01*
X187369220Y-115959987D02*
X187035887Y-115959987D01*
X187035887Y-115959987D02*
X186940649Y-116007606D01*
X186940649Y-116007606D02*
X186893030Y-116055225D01*
X186893030Y-116055225D02*
X186845411Y-116150463D01*
X186845411Y-116150463D02*
X186845411Y-116245701D01*
X186845411Y-116245701D02*
X186893030Y-116340939D01*
X186893030Y-116340939D02*
X186940649Y-116388558D01*
X186940649Y-116388558D02*
X187035887Y-116436177D01*
X187035887Y-116436177D02*
X187369220Y-116436177D01*
X186416839Y-116912368D02*
X186273982Y-116959987D01*
X186273982Y-116959987D02*
X186035887Y-116959987D01*
X186035887Y-116959987D02*
X185940649Y-116912368D01*
X185940649Y-116912368D02*
X185893030Y-116864748D01*
X185893030Y-116864748D02*
X185845411Y-116769510D01*
X185845411Y-116769510D02*
X185845411Y-116674272D01*
X185845411Y-116674272D02*
X185893030Y-116579034D01*
X185893030Y-116579034D02*
X185940649Y-116531415D01*
X185940649Y-116531415D02*
X186035887Y-116483796D01*
X186035887Y-116483796D02*
X186226363Y-116436177D01*
X186226363Y-116436177D02*
X186321601Y-116388558D01*
X186321601Y-116388558D02*
X186369220Y-116340939D01*
X186369220Y-116340939D02*
X186416839Y-116245701D01*
X186416839Y-116245701D02*
X186416839Y-116150463D01*
X186416839Y-116150463D02*
X186369220Y-116055225D01*
X186369220Y-116055225D02*
X186321601Y-116007606D01*
X186321601Y-116007606D02*
X186226363Y-115959987D01*
X186226363Y-115959987D02*
X185988268Y-115959987D01*
X185988268Y-115959987D02*
X185845411Y-116007606D01*
X185416839Y-116959987D02*
X185416839Y-116293320D01*
X185416839Y-115959987D02*
X185464458Y-116007606D01*
X185464458Y-116007606D02*
X185416839Y-116055225D01*
X185416839Y-116055225D02*
X185369220Y-116007606D01*
X185369220Y-116007606D02*
X185416839Y-115959987D01*
X185416839Y-115959987D02*
X185416839Y-116055225D01*
X184512078Y-116959987D02*
X184512078Y-115959987D01*
X184512078Y-116912368D02*
X184607316Y-116959987D01*
X184607316Y-116959987D02*
X184797792Y-116959987D01*
X184797792Y-116959987D02*
X184893030Y-116912368D01*
X184893030Y-116912368D02*
X184940649Y-116864748D01*
X184940649Y-116864748D02*
X184988268Y-116769510D01*
X184988268Y-116769510D02*
X184988268Y-116483796D01*
X184988268Y-116483796D02*
X184940649Y-116388558D01*
X184940649Y-116388558D02*
X184893030Y-116340939D01*
X184893030Y-116340939D02*
X184797792Y-116293320D01*
X184797792Y-116293320D02*
X184607316Y-116293320D01*
X184607316Y-116293320D02*
X184512078Y-116340939D01*
X183654935Y-116912368D02*
X183750173Y-116959987D01*
X183750173Y-116959987D02*
X183940649Y-116959987D01*
X183940649Y-116959987D02*
X184035887Y-116912368D01*
X184035887Y-116912368D02*
X184083506Y-116817129D01*
X184083506Y-116817129D02*
X184083506Y-116436177D01*
X184083506Y-116436177D02*
X184035887Y-116340939D01*
X184035887Y-116340939D02*
X183940649Y-116293320D01*
X183940649Y-116293320D02*
X183750173Y-116293320D01*
X183750173Y-116293320D02*
X183654935Y-116340939D01*
X183654935Y-116340939D02*
X183607316Y-116436177D01*
X183607316Y-116436177D02*
X183607316Y-116531415D01*
X183607316Y-116531415D02*
X184083506Y-116626653D01*
X183226363Y-116912368D02*
X183131125Y-116959987D01*
X183131125Y-116959987D02*
X182940649Y-116959987D01*
X182940649Y-116959987D02*
X182845411Y-116912368D01*
X182845411Y-116912368D02*
X182797792Y-116817129D01*
X182797792Y-116817129D02*
X182797792Y-116769510D01*
X182797792Y-116769510D02*
X182845411Y-116674272D01*
X182845411Y-116674272D02*
X182940649Y-116626653D01*
X182940649Y-116626653D02*
X183083506Y-116626653D01*
X183083506Y-116626653D02*
X183178744Y-116579034D01*
X183178744Y-116579034D02*
X183226363Y-116483796D01*
X183226363Y-116483796D02*
X183226363Y-116436177D01*
X183226363Y-116436177D02*
X183178744Y-116340939D01*
X183178744Y-116340939D02*
X183083506Y-116293320D01*
X183083506Y-116293320D02*
X182940649Y-116293320D01*
X182940649Y-116293320D02*
X182845411Y-116340939D01*
X181416839Y-115959987D02*
X181226363Y-115959987D01*
X181226363Y-115959987D02*
X181131125Y-116007606D01*
X181131125Y-116007606D02*
X181035887Y-116102844D01*
X181035887Y-116102844D02*
X180988268Y-116293320D01*
X180988268Y-116293320D02*
X180988268Y-116626653D01*
X180988268Y-116626653D02*
X181035887Y-116817129D01*
X181035887Y-116817129D02*
X181131125Y-116912368D01*
X181131125Y-116912368D02*
X181226363Y-116959987D01*
X181226363Y-116959987D02*
X181416839Y-116959987D01*
X181416839Y-116959987D02*
X181512077Y-116912368D01*
X181512077Y-116912368D02*
X181607315Y-116817129D01*
X181607315Y-116817129D02*
X181654934Y-116626653D01*
X181654934Y-116626653D02*
X181654934Y-116293320D01*
X181654934Y-116293320D02*
X181607315Y-116102844D01*
X181607315Y-116102844D02*
X181512077Y-116007606D01*
X181512077Y-116007606D02*
X181416839Y-115959987D01*
X180559696Y-116959987D02*
X180559696Y-116293320D01*
X180559696Y-116483796D02*
X180512077Y-116388558D01*
X180512077Y-116388558D02*
X180464458Y-116340939D01*
X180464458Y-116340939D02*
X180369220Y-116293320D01*
X180369220Y-116293320D02*
X180273982Y-116293320D01*
X179797791Y-116959987D02*
X179893029Y-116912368D01*
X179893029Y-116912368D02*
X179940648Y-116817129D01*
X179940648Y-116817129D02*
X179940648Y-115959987D01*
X178988267Y-116959987D02*
X178988267Y-116436177D01*
X178988267Y-116436177D02*
X179035886Y-116340939D01*
X179035886Y-116340939D02*
X179131124Y-116293320D01*
X179131124Y-116293320D02*
X179321600Y-116293320D01*
X179321600Y-116293320D02*
X179416838Y-116340939D01*
X178988267Y-116912368D02*
X179083505Y-116959987D01*
X179083505Y-116959987D02*
X179321600Y-116959987D01*
X179321600Y-116959987D02*
X179416838Y-116912368D01*
X179416838Y-116912368D02*
X179464457Y-116817129D01*
X179464457Y-116817129D02*
X179464457Y-116721891D01*
X179464457Y-116721891D02*
X179416838Y-116626653D01*
X179416838Y-116626653D02*
X179321600Y-116579034D01*
X179321600Y-116579034D02*
X179083505Y-116579034D01*
X179083505Y-116579034D02*
X178988267Y-116531415D01*
X178512076Y-116293320D02*
X178512076Y-116959987D01*
X178512076Y-116388558D02*
X178464457Y-116340939D01*
X178464457Y-116340939D02*
X178369219Y-116293320D01*
X178369219Y-116293320D02*
X178226362Y-116293320D01*
X178226362Y-116293320D02*
X178131124Y-116340939D01*
X178131124Y-116340939D02*
X178083505Y-116436177D01*
X178083505Y-116436177D02*
X178083505Y-116959987D01*
X177178743Y-116959987D02*
X177178743Y-115959987D01*
X177178743Y-116912368D02*
X177273981Y-116959987D01*
X177273981Y-116959987D02*
X177464457Y-116959987D01*
X177464457Y-116959987D02*
X177559695Y-116912368D01*
X177559695Y-116912368D02*
X177607314Y-116864748D01*
X177607314Y-116864748D02*
X177654933Y-116769510D01*
X177654933Y-116769510D02*
X177654933Y-116483796D01*
X177654933Y-116483796D02*
X177607314Y-116388558D01*
X177607314Y-116388558D02*
X177559695Y-116340939D01*
X177559695Y-116340939D02*
X177464457Y-116293320D01*
X177464457Y-116293320D02*
X177273981Y-116293320D01*
X177273981Y-116293320D02*
X177178743Y-116340939D01*
X176559695Y-116959987D02*
X176654933Y-116912368D01*
X176654933Y-116912368D02*
X176702552Y-116864748D01*
X176702552Y-116864748D02*
X176750171Y-116769510D01*
X176750171Y-116769510D02*
X176750171Y-116483796D01*
X176750171Y-116483796D02*
X176702552Y-116388558D01*
X176702552Y-116388558D02*
X176654933Y-116340939D01*
X176654933Y-116340939D02*
X176559695Y-116293320D01*
X176559695Y-116293320D02*
X176416838Y-116293320D01*
X176416838Y-116293320D02*
X176321600Y-116340939D01*
X176321600Y-116340939D02*
X176273981Y-116388558D01*
X176273981Y-116388558D02*
X176226362Y-116483796D01*
X176226362Y-116483796D02*
X176226362Y-116769510D01*
X176226362Y-116769510D02*
X176273981Y-116864748D01*
X176273981Y-116864748D02*
X176321600Y-116912368D01*
X176321600Y-116912368D02*
X176416838Y-116959987D01*
X176416838Y-116959987D02*
X176559695Y-116959987D01*
X174702552Y-116436177D02*
X174559695Y-116483796D01*
X174559695Y-116483796D02*
X174512076Y-116531415D01*
X174512076Y-116531415D02*
X174464457Y-116626653D01*
X174464457Y-116626653D02*
X174464457Y-116769510D01*
X174464457Y-116769510D02*
X174512076Y-116864748D01*
X174512076Y-116864748D02*
X174559695Y-116912368D01*
X174559695Y-116912368D02*
X174654933Y-116959987D01*
X174654933Y-116959987D02*
X175035885Y-116959987D01*
X175035885Y-116959987D02*
X175035885Y-115959987D01*
X175035885Y-115959987D02*
X174702552Y-115959987D01*
X174702552Y-115959987D02*
X174607314Y-116007606D01*
X174607314Y-116007606D02*
X174559695Y-116055225D01*
X174559695Y-116055225D02*
X174512076Y-116150463D01*
X174512076Y-116150463D02*
X174512076Y-116245701D01*
X174512076Y-116245701D02*
X174559695Y-116340939D01*
X174559695Y-116340939D02*
X174607314Y-116388558D01*
X174607314Y-116388558D02*
X174702552Y-116436177D01*
X174702552Y-116436177D02*
X175035885Y-116436177D01*
X173607314Y-116959987D02*
X173607314Y-116436177D01*
X173607314Y-116436177D02*
X173654933Y-116340939D01*
X173654933Y-116340939D02*
X173750171Y-116293320D01*
X173750171Y-116293320D02*
X173940647Y-116293320D01*
X173940647Y-116293320D02*
X174035885Y-116340939D01*
X173607314Y-116912368D02*
X173702552Y-116959987D01*
X173702552Y-116959987D02*
X173940647Y-116959987D01*
X173940647Y-116959987D02*
X174035885Y-116912368D01*
X174035885Y-116912368D02*
X174083504Y-116817129D01*
X174083504Y-116817129D02*
X174083504Y-116721891D01*
X174083504Y-116721891D02*
X174035885Y-116626653D01*
X174035885Y-116626653D02*
X173940647Y-116579034D01*
X173940647Y-116579034D02*
X173702552Y-116579034D01*
X173702552Y-116579034D02*
X173607314Y-116531415D01*
X172702552Y-116959987D02*
X172702552Y-115959987D01*
X172702552Y-116912368D02*
X172797790Y-116959987D01*
X172797790Y-116959987D02*
X172988266Y-116959987D01*
X172988266Y-116959987D02*
X173083504Y-116912368D01*
X173083504Y-116912368D02*
X173131123Y-116864748D01*
X173131123Y-116864748D02*
X173178742Y-116769510D01*
X173178742Y-116769510D02*
X173178742Y-116483796D01*
X173178742Y-116483796D02*
X173131123Y-116388558D01*
X173131123Y-116388558D02*
X173083504Y-116340939D01*
X173083504Y-116340939D02*
X172988266Y-116293320D01*
X172988266Y-116293320D02*
X172797790Y-116293320D01*
X172797790Y-116293320D02*
X172702552Y-116340939D01*
X171797790Y-116293320D02*
X171797790Y-117102844D01*
X171797790Y-117102844D02*
X171845409Y-117198082D01*
X171845409Y-117198082D02*
X171893028Y-117245701D01*
X171893028Y-117245701D02*
X171988266Y-117293320D01*
X171988266Y-117293320D02*
X172131123Y-117293320D01*
X172131123Y-117293320D02*
X172226361Y-117245701D01*
X171797790Y-116912368D02*
X171893028Y-116959987D01*
X171893028Y-116959987D02*
X172083504Y-116959987D01*
X172083504Y-116959987D02*
X172178742Y-116912368D01*
X172178742Y-116912368D02*
X172226361Y-116864748D01*
X172226361Y-116864748D02*
X172273980Y-116769510D01*
X172273980Y-116769510D02*
X172273980Y-116483796D01*
X172273980Y-116483796D02*
X172226361Y-116388558D01*
X172226361Y-116388558D02*
X172178742Y-116340939D01*
X172178742Y-116340939D02*
X172083504Y-116293320D01*
X172083504Y-116293320D02*
X171893028Y-116293320D01*
X171893028Y-116293320D02*
X171797790Y-116340939D01*
X170940647Y-116912368D02*
X171035885Y-116959987D01*
X171035885Y-116959987D02*
X171226361Y-116959987D01*
X171226361Y-116959987D02*
X171321599Y-116912368D01*
X171321599Y-116912368D02*
X171369218Y-116817129D01*
X171369218Y-116817129D02*
X171369218Y-116436177D01*
X171369218Y-116436177D02*
X171321599Y-116340939D01*
X171321599Y-116340939D02*
X171226361Y-116293320D01*
X171226361Y-116293320D02*
X171035885Y-116293320D01*
X171035885Y-116293320D02*
X170940647Y-116340939D01*
X170940647Y-116340939D02*
X170893028Y-116436177D01*
X170893028Y-116436177D02*
X170893028Y-116531415D01*
X170893028Y-116531415D02*
X171369218Y-116626653D01*
X169750170Y-116055225D02*
X169702551Y-116007606D01*
X169702551Y-116007606D02*
X169607313Y-115959987D01*
X169607313Y-115959987D02*
X169369218Y-115959987D01*
X169369218Y-115959987D02*
X169273980Y-116007606D01*
X169273980Y-116007606D02*
X169226361Y-116055225D01*
X169226361Y-116055225D02*
X169178742Y-116150463D01*
X169178742Y-116150463D02*
X169178742Y-116245701D01*
X169178742Y-116245701D02*
X169226361Y-116388558D01*
X169226361Y-116388558D02*
X169797789Y-116959987D01*
X169797789Y-116959987D02*
X169178742Y-116959987D01*
X168559694Y-115959987D02*
X168464456Y-115959987D01*
X168464456Y-115959987D02*
X168369218Y-116007606D01*
X168369218Y-116007606D02*
X168321599Y-116055225D01*
X168321599Y-116055225D02*
X168273980Y-116150463D01*
X168273980Y-116150463D02*
X168226361Y-116340939D01*
X168226361Y-116340939D02*
X168226361Y-116579034D01*
X168226361Y-116579034D02*
X168273980Y-116769510D01*
X168273980Y-116769510D02*
X168321599Y-116864748D01*
X168321599Y-116864748D02*
X168369218Y-116912368D01*
X168369218Y-116912368D02*
X168464456Y-116959987D01*
X168464456Y-116959987D02*
X168559694Y-116959987D01*
X168559694Y-116959987D02*
X168654932Y-116912368D01*
X168654932Y-116912368D02*
X168702551Y-116864748D01*
X168702551Y-116864748D02*
X168750170Y-116769510D01*
X168750170Y-116769510D02*
X168797789Y-116579034D01*
X168797789Y-116579034D02*
X168797789Y-116340939D01*
X168797789Y-116340939D02*
X168750170Y-116150463D01*
X168750170Y-116150463D02*
X168702551Y-116055225D01*
X168702551Y-116055225D02*
X168654932Y-116007606D01*
X168654932Y-116007606D02*
X168559694Y-115959987D01*
X167845408Y-116055225D02*
X167797789Y-116007606D01*
X167797789Y-116007606D02*
X167702551Y-115959987D01*
X167702551Y-115959987D02*
X167464456Y-115959987D01*
X167464456Y-115959987D02*
X167369218Y-116007606D01*
X167369218Y-116007606D02*
X167321599Y-116055225D01*
X167321599Y-116055225D02*
X167273980Y-116150463D01*
X167273980Y-116150463D02*
X167273980Y-116245701D01*
X167273980Y-116245701D02*
X167321599Y-116388558D01*
X167321599Y-116388558D02*
X167893027Y-116959987D01*
X167893027Y-116959987D02*
X167273980Y-116959987D01*
X166416837Y-115959987D02*
X166607313Y-115959987D01*
X166607313Y-115959987D02*
X166702551Y-116007606D01*
X166702551Y-116007606D02*
X166750170Y-116055225D01*
X166750170Y-116055225D02*
X166845408Y-116198082D01*
X166845408Y-116198082D02*
X166893027Y-116388558D01*
X166893027Y-116388558D02*
X166893027Y-116769510D01*
X166893027Y-116769510D02*
X166845408Y-116864748D01*
X166845408Y-116864748D02*
X166797789Y-116912368D01*
X166797789Y-116912368D02*
X166702551Y-116959987D01*
X166702551Y-116959987D02*
X166512075Y-116959987D01*
X166512075Y-116959987D02*
X166416837Y-116912368D01*
X166416837Y-116912368D02*
X166369218Y-116864748D01*
X166369218Y-116864748D02*
X166321599Y-116769510D01*
X166321599Y-116769510D02*
X166321599Y-116531415D01*
X166321599Y-116531415D02*
X166369218Y-116436177D01*
X166369218Y-116436177D02*
X166416837Y-116388558D01*
X166416837Y-116388558D02*
X166512075Y-116340939D01*
X166512075Y-116340939D02*
X166702551Y-116340939D01*
X166702551Y-116340939D02*
X166797789Y-116388558D01*
X166797789Y-116388558D02*
X166845408Y-116436177D01*
X166845408Y-116436177D02*
X166893027Y-116531415D01*
X165131122Y-116959987D02*
X165131122Y-115959987D01*
X165131122Y-115959987D02*
X164893027Y-115959987D01*
X164893027Y-115959987D02*
X164750170Y-116007606D01*
X164750170Y-116007606D02*
X164654932Y-116102844D01*
X164654932Y-116102844D02*
X164607313Y-116198082D01*
X164607313Y-116198082D02*
X164559694Y-116388558D01*
X164559694Y-116388558D02*
X164559694Y-116531415D01*
X164559694Y-116531415D02*
X164607313Y-116721891D01*
X164607313Y-116721891D02*
X164654932Y-116817129D01*
X164654932Y-116817129D02*
X164750170Y-116912368D01*
X164750170Y-116912368D02*
X164893027Y-116959987D01*
X164893027Y-116959987D02*
X165131122Y-116959987D01*
X164273979Y-115959987D02*
X163940646Y-116959987D01*
X163940646Y-116959987D02*
X163607313Y-115959987D01*
X163416836Y-115959987D02*
X162845408Y-115959987D01*
X163131122Y-116959987D02*
X163131122Y-115959987D01*
X186797792Y-118569931D02*
X187131125Y-118093740D01*
X187369220Y-118569931D02*
X187369220Y-117569931D01*
X187369220Y-117569931D02*
X186988268Y-117569931D01*
X186988268Y-117569931D02*
X186893030Y-117617550D01*
X186893030Y-117617550D02*
X186845411Y-117665169D01*
X186845411Y-117665169D02*
X186797792Y-117760407D01*
X186797792Y-117760407D02*
X186797792Y-117903264D01*
X186797792Y-117903264D02*
X186845411Y-117998502D01*
X186845411Y-117998502D02*
X186893030Y-118046121D01*
X186893030Y-118046121D02*
X186988268Y-118093740D01*
X186988268Y-118093740D02*
X187369220Y-118093740D01*
X186178744Y-117569931D02*
X186083506Y-117569931D01*
X186083506Y-117569931D02*
X185988268Y-117617550D01*
X185988268Y-117617550D02*
X185940649Y-117665169D01*
X185940649Y-117665169D02*
X185893030Y-117760407D01*
X185893030Y-117760407D02*
X185845411Y-117950883D01*
X185845411Y-117950883D02*
X185845411Y-118188978D01*
X185845411Y-118188978D02*
X185893030Y-118379454D01*
X185893030Y-118379454D02*
X185940649Y-118474692D01*
X185940649Y-118474692D02*
X185988268Y-118522312D01*
X185988268Y-118522312D02*
X186083506Y-118569931D01*
X186083506Y-118569931D02*
X186178744Y-118569931D01*
X186178744Y-118569931D02*
X186273982Y-118522312D01*
X186273982Y-118522312D02*
X186321601Y-118474692D01*
X186321601Y-118474692D02*
X186369220Y-118379454D01*
X186369220Y-118379454D02*
X186416839Y-118188978D01*
X186416839Y-118188978D02*
X186416839Y-117950883D01*
X186416839Y-117950883D02*
X186369220Y-117760407D01*
X186369220Y-117760407D02*
X186321601Y-117665169D01*
X186321601Y-117665169D02*
X186273982Y-117617550D01*
X186273982Y-117617550D02*
X186178744Y-117569931D01*
X184654934Y-118188978D02*
X183893030Y-118188978D01*
X182464458Y-117569931D02*
X182369220Y-117569931D01*
X182369220Y-117569931D02*
X182273982Y-117617550D01*
X182273982Y-117617550D02*
X182226363Y-117665169D01*
X182226363Y-117665169D02*
X182178744Y-117760407D01*
X182178744Y-117760407D02*
X182131125Y-117950883D01*
X182131125Y-117950883D02*
X182131125Y-118188978D01*
X182131125Y-118188978D02*
X182178744Y-118379454D01*
X182178744Y-118379454D02*
X182226363Y-118474692D01*
X182226363Y-118474692D02*
X182273982Y-118522312D01*
X182273982Y-118522312D02*
X182369220Y-118569931D01*
X182369220Y-118569931D02*
X182464458Y-118569931D01*
X182464458Y-118569931D02*
X182559696Y-118522312D01*
X182559696Y-118522312D02*
X182607315Y-118474692D01*
X182607315Y-118474692D02*
X182654934Y-118379454D01*
X182654934Y-118379454D02*
X182702553Y-118188978D01*
X182702553Y-118188978D02*
X182702553Y-117950883D01*
X182702553Y-117950883D02*
X182654934Y-117760407D01*
X182654934Y-117760407D02*
X182607315Y-117665169D01*
X182607315Y-117665169D02*
X182559696Y-117617550D01*
X182559696Y-117617550D02*
X182464458Y-117569931D01*
X181559696Y-117998502D02*
X181654934Y-117950883D01*
X181654934Y-117950883D02*
X181702553Y-117903264D01*
X181702553Y-117903264D02*
X181750172Y-117808026D01*
X181750172Y-117808026D02*
X181750172Y-117760407D01*
X181750172Y-117760407D02*
X181702553Y-117665169D01*
X181702553Y-117665169D02*
X181654934Y-117617550D01*
X181654934Y-117617550D02*
X181559696Y-117569931D01*
X181559696Y-117569931D02*
X181369220Y-117569931D01*
X181369220Y-117569931D02*
X181273982Y-117617550D01*
X181273982Y-117617550D02*
X181226363Y-117665169D01*
X181226363Y-117665169D02*
X181178744Y-117760407D01*
X181178744Y-117760407D02*
X181178744Y-117808026D01*
X181178744Y-117808026D02*
X181226363Y-117903264D01*
X181226363Y-117903264D02*
X181273982Y-117950883D01*
X181273982Y-117950883D02*
X181369220Y-117998502D01*
X181369220Y-117998502D02*
X181559696Y-117998502D01*
X181559696Y-117998502D02*
X181654934Y-118046121D01*
X181654934Y-118046121D02*
X181702553Y-118093740D01*
X181702553Y-118093740D02*
X181750172Y-118188978D01*
X181750172Y-118188978D02*
X181750172Y-118379454D01*
X181750172Y-118379454D02*
X181702553Y-118474692D01*
X181702553Y-118474692D02*
X181654934Y-118522312D01*
X181654934Y-118522312D02*
X181559696Y-118569931D01*
X181559696Y-118569931D02*
X181369220Y-118569931D01*
X181369220Y-118569931D02*
X181273982Y-118522312D01*
X181273982Y-118522312D02*
X181226363Y-118474692D01*
X181226363Y-118474692D02*
X181178744Y-118379454D01*
X181178744Y-118379454D02*
X181178744Y-118188978D01*
X181178744Y-118188978D02*
X181226363Y-118093740D01*
X181226363Y-118093740D02*
X181273982Y-118046121D01*
X181273982Y-118046121D02*
X181369220Y-117998502D01*
X180035887Y-117522312D02*
X180893029Y-118808026D01*
X179750172Y-117665169D02*
X179702553Y-117617550D01*
X179702553Y-117617550D02*
X179607315Y-117569931D01*
X179607315Y-117569931D02*
X179369220Y-117569931D01*
X179369220Y-117569931D02*
X179273982Y-117617550D01*
X179273982Y-117617550D02*
X179226363Y-117665169D01*
X179226363Y-117665169D02*
X179178744Y-117760407D01*
X179178744Y-117760407D02*
X179178744Y-117855645D01*
X179178744Y-117855645D02*
X179226363Y-117998502D01*
X179226363Y-117998502D02*
X179797791Y-118569931D01*
X179797791Y-118569931D02*
X179178744Y-118569931D01*
X178559696Y-117569931D02*
X178464458Y-117569931D01*
X178464458Y-117569931D02*
X178369220Y-117617550D01*
X178369220Y-117617550D02*
X178321601Y-117665169D01*
X178321601Y-117665169D02*
X178273982Y-117760407D01*
X178273982Y-117760407D02*
X178226363Y-117950883D01*
X178226363Y-117950883D02*
X178226363Y-118188978D01*
X178226363Y-118188978D02*
X178273982Y-118379454D01*
X178273982Y-118379454D02*
X178321601Y-118474692D01*
X178321601Y-118474692D02*
X178369220Y-118522312D01*
X178369220Y-118522312D02*
X178464458Y-118569931D01*
X178464458Y-118569931D02*
X178559696Y-118569931D01*
X178559696Y-118569931D02*
X178654934Y-118522312D01*
X178654934Y-118522312D02*
X178702553Y-118474692D01*
X178702553Y-118474692D02*
X178750172Y-118379454D01*
X178750172Y-118379454D02*
X178797791Y-118188978D01*
X178797791Y-118188978D02*
X178797791Y-117950883D01*
X178797791Y-117950883D02*
X178750172Y-117760407D01*
X178750172Y-117760407D02*
X178702553Y-117665169D01*
X178702553Y-117665169D02*
X178654934Y-117617550D01*
X178654934Y-117617550D02*
X178559696Y-117569931D01*
X177845410Y-117665169D02*
X177797791Y-117617550D01*
X177797791Y-117617550D02*
X177702553Y-117569931D01*
X177702553Y-117569931D02*
X177464458Y-117569931D01*
X177464458Y-117569931D02*
X177369220Y-117617550D01*
X177369220Y-117617550D02*
X177321601Y-117665169D01*
X177321601Y-117665169D02*
X177273982Y-117760407D01*
X177273982Y-117760407D02*
X177273982Y-117855645D01*
X177273982Y-117855645D02*
X177321601Y-117998502D01*
X177321601Y-117998502D02*
X177893029Y-118569931D01*
X177893029Y-118569931D02*
X177273982Y-118569931D01*
X176416839Y-117569931D02*
X176607315Y-117569931D01*
X176607315Y-117569931D02*
X176702553Y-117617550D01*
X176702553Y-117617550D02*
X176750172Y-117665169D01*
X176750172Y-117665169D02*
X176845410Y-117808026D01*
X176845410Y-117808026D02*
X176893029Y-117998502D01*
X176893029Y-117998502D02*
X176893029Y-118379454D01*
X176893029Y-118379454D02*
X176845410Y-118474692D01*
X176845410Y-118474692D02*
X176797791Y-118522312D01*
X176797791Y-118522312D02*
X176702553Y-118569931D01*
X176702553Y-118569931D02*
X176512077Y-118569931D01*
X176512077Y-118569931D02*
X176416839Y-118522312D01*
X176416839Y-118522312D02*
X176369220Y-118474692D01*
X176369220Y-118474692D02*
X176321601Y-118379454D01*
X176321601Y-118379454D02*
X176321601Y-118141359D01*
X176321601Y-118141359D02*
X176369220Y-118046121D01*
X176369220Y-118046121D02*
X176416839Y-117998502D01*
X176416839Y-117998502D02*
X176512077Y-117950883D01*
X176512077Y-117950883D02*
X176702553Y-117950883D01*
X176702553Y-117950883D02*
X176797791Y-117998502D01*
X176797791Y-117998502D02*
X176845410Y-118046121D01*
X176845410Y-118046121D02*
X176893029Y-118141359D01*
X187369220Y-120179875D02*
X187369220Y-119179875D01*
X187273982Y-119798922D02*
X186988268Y-120179875D01*
X186988268Y-119513208D02*
X187369220Y-119894160D01*
X186131125Y-120132256D02*
X186226363Y-120179875D01*
X186226363Y-120179875D02*
X186416839Y-120179875D01*
X186416839Y-120179875D02*
X186512077Y-120132256D01*
X186512077Y-120132256D02*
X186559696Y-120084636D01*
X186559696Y-120084636D02*
X186607315Y-119989398D01*
X186607315Y-119989398D02*
X186607315Y-119703684D01*
X186607315Y-119703684D02*
X186559696Y-119608446D01*
X186559696Y-119608446D02*
X186512077Y-119560827D01*
X186512077Y-119560827D02*
X186416839Y-119513208D01*
X186416839Y-119513208D02*
X186226363Y-119513208D01*
X186226363Y-119513208D02*
X186131125Y-119560827D01*
X185559696Y-120179875D02*
X185654934Y-120132256D01*
X185654934Y-120132256D02*
X185702553Y-120084636D01*
X185702553Y-120084636D02*
X185750172Y-119989398D01*
X185750172Y-119989398D02*
X185750172Y-119703684D01*
X185750172Y-119703684D02*
X185702553Y-119608446D01*
X185702553Y-119608446D02*
X185654934Y-119560827D01*
X185654934Y-119560827D02*
X185559696Y-119513208D01*
X185559696Y-119513208D02*
X185416839Y-119513208D01*
X185416839Y-119513208D02*
X185321601Y-119560827D01*
X185321601Y-119560827D02*
X185273982Y-119608446D01*
X185273982Y-119608446D02*
X185226363Y-119703684D01*
X185226363Y-119703684D02*
X185226363Y-119989398D01*
X185226363Y-119989398D02*
X185273982Y-120084636D01*
X185273982Y-120084636D02*
X185321601Y-120132256D01*
X185321601Y-120132256D02*
X185416839Y-120179875D01*
X185416839Y-120179875D02*
X185559696Y-120179875D01*
X184654934Y-120179875D02*
X184750172Y-120132256D01*
X184750172Y-120132256D02*
X184797791Y-120037017D01*
X184797791Y-120037017D02*
X184797791Y-119179875D01*
X184131124Y-120179875D02*
X184226362Y-120132256D01*
X184226362Y-120132256D02*
X184273981Y-120037017D01*
X184273981Y-120037017D02*
X184273981Y-119179875D01*
X183369219Y-120132256D02*
X183464457Y-120179875D01*
X183464457Y-120179875D02*
X183654933Y-120179875D01*
X183654933Y-120179875D02*
X183750171Y-120132256D01*
X183750171Y-120132256D02*
X183797790Y-120037017D01*
X183797790Y-120037017D02*
X183797790Y-119656065D01*
X183797790Y-119656065D02*
X183750171Y-119560827D01*
X183750171Y-119560827D02*
X183654933Y-119513208D01*
X183654933Y-119513208D02*
X183464457Y-119513208D01*
X183464457Y-119513208D02*
X183369219Y-119560827D01*
X183369219Y-119560827D02*
X183321600Y-119656065D01*
X183321600Y-119656065D02*
X183321600Y-119751303D01*
X183321600Y-119751303D02*
X183797790Y-119846541D01*
X182988266Y-119513208D02*
X182750171Y-120179875D01*
X182512076Y-119513208D02*
X182750171Y-120179875D01*
X182750171Y-120179875D02*
X182845409Y-120417970D01*
X182845409Y-120417970D02*
X182893028Y-120465589D01*
X182893028Y-120465589D02*
X182988266Y-120513208D01*
X187369220Y-121123152D02*
X187369220Y-121980295D01*
X187369220Y-121980295D02*
X187416839Y-122075533D01*
X187416839Y-122075533D02*
X187512077Y-122123152D01*
X187512077Y-122123152D02*
X187559696Y-122123152D01*
X187369220Y-120789819D02*
X187416839Y-120837438D01*
X187416839Y-120837438D02*
X187369220Y-120885057D01*
X187369220Y-120885057D02*
X187321601Y-120837438D01*
X187321601Y-120837438D02*
X187369220Y-120789819D01*
X187369220Y-120789819D02*
X187369220Y-120885057D01*
X186750173Y-121789819D02*
X186845411Y-121742200D01*
X186845411Y-121742200D02*
X186893030Y-121694580D01*
X186893030Y-121694580D02*
X186940649Y-121599342D01*
X186940649Y-121599342D02*
X186940649Y-121313628D01*
X186940649Y-121313628D02*
X186893030Y-121218390D01*
X186893030Y-121218390D02*
X186845411Y-121170771D01*
X186845411Y-121170771D02*
X186750173Y-121123152D01*
X186750173Y-121123152D02*
X186607316Y-121123152D01*
X186607316Y-121123152D02*
X186512078Y-121170771D01*
X186512078Y-121170771D02*
X186464459Y-121218390D01*
X186464459Y-121218390D02*
X186416840Y-121313628D01*
X186416840Y-121313628D02*
X186416840Y-121599342D01*
X186416840Y-121599342D02*
X186464459Y-121694580D01*
X186464459Y-121694580D02*
X186512078Y-121742200D01*
X186512078Y-121742200D02*
X186607316Y-121789819D01*
X186607316Y-121789819D02*
X186750173Y-121789819D01*
X185607316Y-121742200D02*
X185702554Y-121789819D01*
X185702554Y-121789819D02*
X185893030Y-121789819D01*
X185893030Y-121789819D02*
X185988268Y-121742200D01*
X185988268Y-121742200D02*
X186035887Y-121646961D01*
X186035887Y-121646961D02*
X186035887Y-121266009D01*
X186035887Y-121266009D02*
X185988268Y-121170771D01*
X185988268Y-121170771D02*
X185893030Y-121123152D01*
X185893030Y-121123152D02*
X185702554Y-121123152D01*
X185702554Y-121123152D02*
X185607316Y-121170771D01*
X185607316Y-121170771D02*
X185559697Y-121266009D01*
X185559697Y-121266009D02*
X185559697Y-121361247D01*
X185559697Y-121361247D02*
X186035887Y-121456485D01*
X185131125Y-121789819D02*
X185131125Y-120789819D01*
X184702554Y-121789819D02*
X184702554Y-121266009D01*
X184702554Y-121266009D02*
X184750173Y-121170771D01*
X184750173Y-121170771D02*
X184845411Y-121123152D01*
X184845411Y-121123152D02*
X184988268Y-121123152D01*
X184988268Y-121123152D02*
X185083506Y-121170771D01*
X185083506Y-121170771D02*
X185131125Y-121218390D01*
X183797792Y-121789819D02*
X183797792Y-121266009D01*
X183797792Y-121266009D02*
X183845411Y-121170771D01*
X183845411Y-121170771D02*
X183940649Y-121123152D01*
X183940649Y-121123152D02*
X184131125Y-121123152D01*
X184131125Y-121123152D02*
X184226363Y-121170771D01*
X183797792Y-121742200D02*
X183893030Y-121789819D01*
X183893030Y-121789819D02*
X184131125Y-121789819D01*
X184131125Y-121789819D02*
X184226363Y-121742200D01*
X184226363Y-121742200D02*
X184273982Y-121646961D01*
X184273982Y-121646961D02*
X184273982Y-121551723D01*
X184273982Y-121551723D02*
X184226363Y-121456485D01*
X184226363Y-121456485D02*
X184131125Y-121408866D01*
X184131125Y-121408866D02*
X183893030Y-121408866D01*
X183893030Y-121408866D02*
X183797792Y-121361247D01*
X182893030Y-121742200D02*
X182988268Y-121789819D01*
X182988268Y-121789819D02*
X183178744Y-121789819D01*
X183178744Y-121789819D02*
X183273982Y-121742200D01*
X183273982Y-121742200D02*
X183321601Y-121694580D01*
X183321601Y-121694580D02*
X183369220Y-121599342D01*
X183369220Y-121599342D02*
X183369220Y-121313628D01*
X183369220Y-121313628D02*
X183321601Y-121218390D01*
X183321601Y-121218390D02*
X183273982Y-121170771D01*
X183273982Y-121170771D02*
X183178744Y-121123152D01*
X183178744Y-121123152D02*
X182988268Y-121123152D01*
X182988268Y-121123152D02*
X182893030Y-121170771D01*
X182464458Y-121789819D02*
X182464458Y-120789819D01*
X182369220Y-121408866D02*
X182083506Y-121789819D01*
X182083506Y-121123152D02*
X182464458Y-121504104D01*
X181702553Y-121742200D02*
X181607315Y-121789819D01*
X181607315Y-121789819D02*
X181416839Y-121789819D01*
X181416839Y-121789819D02*
X181321601Y-121742200D01*
X181321601Y-121742200D02*
X181273982Y-121646961D01*
X181273982Y-121646961D02*
X181273982Y-121599342D01*
X181273982Y-121599342D02*
X181321601Y-121504104D01*
X181321601Y-121504104D02*
X181416839Y-121456485D01*
X181416839Y-121456485D02*
X181559696Y-121456485D01*
X181559696Y-121456485D02*
X181654934Y-121408866D01*
X181654934Y-121408866D02*
X181702553Y-121313628D01*
X181702553Y-121313628D02*
X181702553Y-121266009D01*
X181702553Y-121266009D02*
X181654934Y-121170771D01*
X181654934Y-121170771D02*
X181559696Y-121123152D01*
X181559696Y-121123152D02*
X181416839Y-121123152D01*
X181416839Y-121123152D02*
X181321601Y-121170771D01*
X180416839Y-121789819D02*
X180416839Y-121266009D01*
X180416839Y-121266009D02*
X180464458Y-121170771D01*
X180464458Y-121170771D02*
X180559696Y-121123152D01*
X180559696Y-121123152D02*
X180750172Y-121123152D01*
X180750172Y-121123152D02*
X180845410Y-121170771D01*
X180416839Y-121742200D02*
X180512077Y-121789819D01*
X180512077Y-121789819D02*
X180750172Y-121789819D01*
X180750172Y-121789819D02*
X180845410Y-121742200D01*
X180845410Y-121742200D02*
X180893029Y-121646961D01*
X180893029Y-121646961D02*
X180893029Y-121551723D01*
X180893029Y-121551723D02*
X180845410Y-121456485D01*
X180845410Y-121456485D02*
X180750172Y-121408866D01*
X180750172Y-121408866D02*
X180512077Y-121408866D01*
X180512077Y-121408866D02*
X180416839Y-121361247D01*
X179797791Y-121789819D02*
X179893029Y-121742200D01*
X179893029Y-121742200D02*
X179940648Y-121646961D01*
X179940648Y-121646961D02*
X179940648Y-120789819D01*
X179273981Y-121789819D02*
X179369219Y-121742200D01*
X179369219Y-121742200D02*
X179416838Y-121694580D01*
X179416838Y-121694580D02*
X179464457Y-121599342D01*
X179464457Y-121599342D02*
X179464457Y-121313628D01*
X179464457Y-121313628D02*
X179416838Y-121218390D01*
X179416838Y-121218390D02*
X179369219Y-121170771D01*
X179369219Y-121170771D02*
X179273981Y-121123152D01*
X179273981Y-121123152D02*
X179131124Y-121123152D01*
X179131124Y-121123152D02*
X179035886Y-121170771D01*
X179035886Y-121170771D02*
X178988267Y-121218390D01*
X178988267Y-121218390D02*
X178940648Y-121313628D01*
X178940648Y-121313628D02*
X178940648Y-121599342D01*
X178940648Y-121599342D02*
X178988267Y-121694580D01*
X178988267Y-121694580D02*
X179035886Y-121742200D01*
X179035886Y-121742200D02*
X179131124Y-121789819D01*
X179131124Y-121789819D02*
X179273981Y-121789819D01*
X178654933Y-121123152D02*
X178273981Y-121123152D01*
X178512076Y-120789819D02*
X178512076Y-121646961D01*
X178512076Y-121646961D02*
X178464457Y-121742200D01*
X178464457Y-121742200D02*
X178369219Y-121789819D01*
X178369219Y-121789819D02*
X178273981Y-121789819D01*
%TO.C,C3*%
D11*
X173226000Y-76313420D02*
X173226000Y-76594580D01*
X174246000Y-76313420D02*
X174246000Y-76594580D01*
%TO.C,C1*%
X118616000Y-77837420D02*
X118616000Y-78118580D01*
X119636000Y-77837420D02*
X119636000Y-78118580D01*
%TO.C,S1*%
D12*
X130007864Y-78795890D02*
X130007864Y-75217861D01*
X130007864Y-78795890D02*
X131260417Y-78795890D01*
X131254321Y-75217861D02*
X130007864Y-75240009D01*
X131531867Y-75747883D02*
X131531867Y-78287889D01*
X131531867Y-78287889D02*
X137627879Y-78287889D01*
X132899329Y-78795890D02*
X133760417Y-78795890D01*
X133754321Y-75217861D02*
X132905425Y-75217861D01*
X135399329Y-78795890D02*
X136260417Y-78795890D01*
X136103876Y-76509885D02*
X136103876Y-77525887D01*
X136103876Y-77525887D02*
X137119878Y-77525887D01*
X136254295Y-75217861D02*
X135405425Y-75217861D01*
X137119878Y-76509885D02*
X136103876Y-76509885D01*
X137119878Y-77525887D02*
X137119878Y-76509885D01*
X137627879Y-75747883D02*
X131531867Y-75747883D01*
X137627879Y-78287889D02*
X137627879Y-75747883D01*
X137899329Y-78795890D02*
X139179848Y-78795890D01*
X139179848Y-75217861D02*
X137905451Y-75217861D01*
X139179848Y-75217861D02*
X139179848Y-78796017D01*
%TO.C,D7*%
D11*
X154081000Y-104808000D02*
X154081000Y-111383000D01*
X154806000Y-112108000D02*
X154081000Y-111383000D01*
X154806000Y-112108000D02*
X157831000Y-112108000D01*
X157831000Y-104808000D02*
X154081000Y-104808000D01*
X157831000Y-112108000D02*
X157831000Y-104808000D01*
X154506000Y-111183000D02*
X154306000Y-111033000D01*
X154306000Y-111333000D01*
X154506000Y-111183000D01*
G36*
X154506000Y-111183000D02*
G01*
X154306000Y-111333000D01*
X154306000Y-111033000D01*
X154506000Y-111183000D01*
G37*
%TO.C,U1*%
X111296500Y-79626000D02*
X115916500Y-79626000D01*
X115916500Y-72856000D02*
X111296500Y-72856000D01*
X117466500Y-73311000D02*
X117796500Y-73551000D01*
X117796500Y-73071000D01*
X117466500Y-73311000D01*
G36*
X117796500Y-73551000D02*
G01*
X117466500Y-73311000D01*
X117796500Y-73071000D01*
X117796500Y-73551000D01*
G37*
%TO.C,D5*%
D13*
X172713017Y-80191787D02*
X171560617Y-80191787D01*
X172713017Y-82844213D02*
X171560617Y-82844213D01*
D14*
X173251879Y-80518000D02*
G75*
G02*
X173102019Y-80518000I-74930J0D01*
G01*
X173102019Y-80518000D02*
G75*
G02*
X173251879Y-80518000I74930J0D01*
G01*
%TO.C,D6*%
D11*
X146715000Y-100490000D02*
X146715000Y-107065000D01*
X147440000Y-107790000D02*
X146715000Y-107065000D01*
X147440000Y-107790000D02*
X150465000Y-107790000D01*
X150465000Y-100490000D02*
X146715000Y-100490000D01*
X150465000Y-107790000D02*
X150465000Y-100490000D01*
X147140000Y-106865000D02*
X146940000Y-106715000D01*
X146940000Y-107015000D01*
X147140000Y-106865000D01*
G36*
X147140000Y-106865000D02*
G01*
X146940000Y-107015000D01*
X146940000Y-106715000D01*
X147140000Y-106865000D01*
G37*
%TO.C,C2*%
X120394000Y-78118580D02*
X120394000Y-77837420D01*
X121414000Y-78118580D02*
X121414000Y-77837420D01*
%TO.C,BT1*%
X127044000Y-115868000D02*
X131844000Y-115868000D01*
X127044000Y-121368000D02*
X127044000Y-115868000D01*
X131844000Y-121368000D02*
X127044000Y-121368000D01*
X132044000Y-109118000D02*
X138744000Y-109118000D01*
X138644000Y-129468000D02*
X131844000Y-124668000D01*
X146544000Y-129468000D02*
X138644000Y-129468000D01*
X153144000Y-109118000D02*
X146444000Y-109118000D01*
X153344000Y-115868000D02*
X158144000Y-115868000D01*
X153394000Y-124668000D02*
X146544000Y-129468000D01*
X158144000Y-115868000D02*
X158144000Y-121368000D01*
X158144000Y-121368000D02*
X153344000Y-121368000D01*
X138744000Y-109118000D02*
G75*
G02*
X146440385Y-109116536I3850000J-9500000D01*
G01*
%TD*%
%LPC*%
D15*
%TO.C,D2*%
X108730000Y-117000000D03*
D16*
X111270000Y-117000000D03*
%TD*%
D15*
%TO.C,D3*%
X103500000Y-98000000D03*
D16*
X106040000Y-98000000D03*
%TD*%
D15*
%TO.C,D1*%
X108500000Y-89500000D03*
D16*
X111040000Y-89500000D03*
%TD*%
D15*
%TO.C,D4*%
X116230000Y-94000000D03*
D16*
X118770000Y-94000000D03*
%TD*%
D17*
%TO.C,J1*%
X177292000Y-75692000D03*
D18*
X177292000Y-78232000D03*
X179832000Y-75692000D03*
X179832000Y-78232000D03*
X182372000Y-75692000D03*
X182372000Y-78232000D03*
%TD*%
D19*
%TO.C,R7*%
X145796000Y-103378000D03*
X145796000Y-105018000D03*
%TD*%
D20*
%TO.C,C3*%
X173736000Y-75679000D03*
X173736000Y-77229000D03*
%TD*%
%TO.C,C1*%
X119126000Y-77203000D03*
X119126000Y-78753000D03*
%TD*%
D21*
%TO.C,R4*%
X166311999Y-80518000D03*
X167952001Y-80518000D03*
%TD*%
%TO.C,R6*%
X166311999Y-83820000D03*
X167952001Y-83820000D03*
%TD*%
D22*
%TO.C,S1*%
X137079746Y-74168000D03*
X134579873Y-74168000D03*
X132080000Y-74168000D03*
X137079746Y-79868026D03*
X134579873Y-79867772D03*
X132080000Y-79868026D03*
%TD*%
D23*
%TO.C,D7*%
X155206000Y-111183000D03*
X156706000Y-111183000D03*
X156706000Y-105733000D03*
X155206000Y-105733000D03*
%TD*%
D24*
%TO.C,U1*%
X116469000Y-73316000D03*
X116469000Y-73966000D03*
X116469000Y-74616000D03*
X116469000Y-75266000D03*
X116469000Y-75916000D03*
X116469000Y-76566000D03*
X116469000Y-77216000D03*
X116469000Y-77866000D03*
X116469000Y-78516000D03*
X116469000Y-79166000D03*
X110744000Y-79166000D03*
X110744000Y-78516000D03*
X110744000Y-77866000D03*
X110744000Y-77216000D03*
X110744000Y-76566000D03*
X110744000Y-75916000D03*
X110744000Y-75266000D03*
X110744000Y-74616000D03*
X110744000Y-73966000D03*
X110744000Y-73316000D03*
%TD*%
D25*
%TO.C,R3*%
X167952001Y-79248000D03*
X166311999Y-79248000D03*
%TD*%
D21*
%TO.C,R5*%
X166311999Y-82550000D03*
X167952001Y-82550000D03*
%TD*%
D26*
%TO.C,R1*%
X120650000Y-85656001D03*
X120650000Y-84015999D03*
%TD*%
D27*
%TO.C,D5*%
X172569634Y-80518000D03*
X172569634Y-81018127D03*
D28*
X172569634Y-81518000D03*
D27*
X172569634Y-82018127D03*
X172569634Y-82518000D03*
X171704000Y-82518000D03*
X171704000Y-82018127D03*
D28*
X171704000Y-81518000D03*
D27*
X171704000Y-81018127D03*
X171704000Y-80518000D03*
%TD*%
D19*
%TO.C,R2*%
X120650000Y-81221999D03*
X120650000Y-82862001D03*
%TD*%
D23*
%TO.C,D6*%
X147840000Y-106865000D03*
X149340000Y-106865000D03*
X149340000Y-101415000D03*
X147840000Y-101415000D03*
%TD*%
D29*
%TO.C,C2*%
X120904000Y-78753000D03*
X120904000Y-77203000D03*
%TD*%
D30*
%TO.C,BT1*%
X155394000Y-118618000D03*
X129794000Y-118618000D03*
D31*
X142594000Y-118618000D03*
%TD*%
%LPD*%
M02*
