%TF.GenerationSoftware,KiCad,Pcbnew,10.0.5*%
%TF.CreationDate,2026-08-15T07:42:58-07:00*%
%TF.ProjectId,bsidesorl-v1,62736964-6573-46f7-926c-2d76312e6b69,R0*%
%TF.SameCoordinates,Original*%
%TF.FileFunction,Profile,NP*%
%FSLAX46Y46*%
G04 Gerber Fmt 4.6, Leading zero omitted, Abs format (unit mm)*
G04 Created by KiCad (PCBNEW 10.0.5) date 2026-08-15 07:42:58*
%MOMM*%
%LPD*%
G01*
G04 APERTURE LIST*
%TA.AperFunction,Profile*%
%ADD10C,0.200000*%
%TD*%
%TA.AperFunction,Profile*%
%ADD11C,0.120000*%
%TD*%
G04 APERTURE END LIST*
D10*
%TO.C,G\u002A\u002A\u002A*%
X130221134Y-66888893D02*
X130549785Y-66893429D01*
X130802369Y-66910563D01*
X130999237Y-66947323D01*
X131160739Y-67010733D01*
X131307225Y-67107820D01*
X131459046Y-67245609D01*
X131562269Y-67351909D01*
X131739259Y-67559240D01*
X131859578Y-67756697D01*
X131936509Y-67947494D01*
X131990214Y-68118860D01*
X132028049Y-68262700D01*
X132041444Y-68344017D01*
X132079653Y-68414229D01*
X132201237Y-68470819D01*
X132246672Y-68483882D01*
X132956578Y-68696167D01*
X133698672Y-68961395D01*
X134435834Y-69265252D01*
X135130942Y-69593422D01*
X135153259Y-69604767D01*
X135726363Y-69916330D01*
X136233215Y-70237093D01*
X136703401Y-70588199D01*
X137166506Y-70990789D01*
X137387925Y-71201648D01*
X137684879Y-71495332D01*
X137922287Y-71740900D01*
X138112960Y-71954205D01*
X138269708Y-72151100D01*
X138405342Y-72347437D01*
X138532671Y-72559070D01*
X138633353Y-72742871D01*
X138858089Y-73165399D01*
X149232319Y-73165399D01*
X150227130Y-73165265D01*
X151196702Y-73164869D01*
X152136581Y-73164225D01*
X153042313Y-73163346D01*
X153909444Y-73162243D01*
X154733519Y-73160929D01*
X155510085Y-73159417D01*
X156234686Y-73157719D01*
X156902870Y-73155848D01*
X157510182Y-73153816D01*
X158052168Y-73151635D01*
X158524373Y-73149318D01*
X158922344Y-73146879D01*
X159241626Y-73144328D01*
X159477765Y-73141678D01*
X159626307Y-73138943D01*
X159682798Y-73136135D01*
X159682932Y-73136088D01*
X159749424Y-73082491D01*
X159759353Y-73051583D01*
X159789713Y-72927186D01*
X159871014Y-72755184D01*
X159988777Y-72559021D01*
X160128524Y-72362140D01*
X160275777Y-72187984D01*
X160321301Y-72141676D01*
X160506686Y-71970757D01*
X160672610Y-71846502D01*
X160840503Y-71761667D01*
X161031794Y-71709009D01*
X161267913Y-71681283D01*
X161570290Y-71671247D01*
X161715018Y-71670562D01*
X162049994Y-71675539D01*
X162310117Y-71695299D01*
X162516816Y-71737087D01*
X162691520Y-71808145D01*
X162855660Y-71915718D01*
X163030665Y-72067049D01*
X163108736Y-72141676D01*
X163257959Y-72306792D01*
X163402963Y-72501530D01*
X163529317Y-72702391D01*
X163622589Y-72885874D01*
X163668347Y-73028479D01*
X163670684Y-73056749D01*
X163678746Y-73121392D01*
X163682794Y-73128825D01*
X163731534Y-73130128D01*
X163872250Y-73131661D01*
X164100339Y-73133405D01*
X164411199Y-73135341D01*
X164800228Y-73137451D01*
X165262824Y-73139715D01*
X165794385Y-73142115D01*
X166390308Y-73144633D01*
X167045991Y-73147250D01*
X167756832Y-73149946D01*
X168518229Y-73152704D01*
X169325580Y-73155505D01*
X170174283Y-73158329D01*
X171059735Y-73161159D01*
X171977334Y-73163975D01*
X172922478Y-73166759D01*
X173256083Y-73167714D01*
X174414912Y-73171039D01*
X175481297Y-73174213D01*
X176459369Y-73177320D01*
X177353262Y-73180445D01*
X178167109Y-73183673D01*
X178905041Y-73187088D01*
X179571193Y-73190774D01*
X180169696Y-73194817D01*
X180704684Y-73199300D01*
X181180289Y-73204310D01*
X181600644Y-73209929D01*
X181969881Y-73216243D01*
X182292135Y-73223337D01*
X182571536Y-73231294D01*
X182812219Y-73240200D01*
X183018315Y-73250140D01*
X183193958Y-73261197D01*
X183343280Y-73273456D01*
X183470415Y-73287003D01*
X183579494Y-73301921D01*
X183674651Y-73318296D01*
X183760018Y-73336211D01*
X183839729Y-73355752D01*
X183917915Y-73377002D01*
X183952090Y-73386685D01*
X184344336Y-73521082D01*
X184735537Y-73695773D01*
X185097886Y-73896281D01*
X185403573Y-74108127D01*
X185508269Y-74196903D01*
X185693043Y-74364250D01*
X185887815Y-74538597D01*
X186055752Y-74687010D01*
X186082837Y-74710646D01*
X186232923Y-74861305D01*
X186361381Y-75025401D01*
X186425766Y-75136579D01*
X186511575Y-75308578D01*
X186608899Y-75476450D01*
X186632409Y-75512423D01*
X186715276Y-75659653D01*
X186773032Y-75806605D01*
X186778657Y-75828859D01*
X186826936Y-75974675D01*
X186900228Y-76128361D01*
X186906849Y-76139802D01*
X186966659Y-76263298D01*
X187014548Y-76417021D01*
X187052010Y-76612784D01*
X187080541Y-76862403D01*
X187101635Y-77177689D01*
X187116788Y-77570457D01*
X187123763Y-77853642D01*
X187144451Y-78847779D01*
X187463134Y-78906498D01*
X187903785Y-79010343D01*
X188379687Y-79161706D01*
X188851387Y-79346897D01*
X189191444Y-79506239D01*
X189406285Y-79620927D01*
X189586734Y-79732371D01*
X189757048Y-79858735D01*
X189941481Y-80018182D01*
X190164291Y-80228874D01*
X190190593Y-80254412D01*
X190516927Y-80594903D01*
X190769510Y-80915720D01*
X190961797Y-81238694D01*
X191107242Y-81585658D01*
X191196959Y-81887510D01*
X191237951Y-82112393D01*
X191268375Y-82410481D01*
X191288029Y-82758960D01*
X191296709Y-83135014D01*
X191294215Y-83515828D01*
X191280342Y-83878589D01*
X191254890Y-84200481D01*
X191219674Y-84448299D01*
X191056191Y-85096722D01*
X190807458Y-85783311D01*
X190475441Y-86504759D01*
X190062109Y-87257757D01*
X189569428Y-88038996D01*
X188999368Y-88845169D01*
X188353895Y-89672967D01*
X187634977Y-90519082D01*
X187556548Y-90607462D01*
X187139163Y-91075950D01*
X187139163Y-98683792D01*
X187139359Y-99761084D01*
X187139963Y-100744635D01*
X187140994Y-101637284D01*
X187142472Y-102441868D01*
X187144417Y-103161224D01*
X187146851Y-103798189D01*
X187149792Y-104355601D01*
X187153262Y-104836297D01*
X187157280Y-105243115D01*
X187161867Y-105578891D01*
X187167043Y-105846464D01*
X187172828Y-106048669D01*
X187179242Y-106188346D01*
X187186306Y-106268330D01*
X187193393Y-106291635D01*
X187251789Y-106312204D01*
X187382200Y-106369483D01*
X187570339Y-106456830D01*
X187801919Y-106567603D01*
X188062653Y-106695160D01*
X188083366Y-106705406D01*
X188374174Y-106850142D01*
X188597093Y-106965130D01*
X188770919Y-107063201D01*
X188914450Y-107157182D01*
X189046483Y-107259904D01*
X189185816Y-107384195D01*
X189351245Y-107542885D01*
X189445366Y-107634969D01*
X189647625Y-107834232D01*
X189795352Y-107987777D01*
X189902599Y-108117882D01*
X189983416Y-108246826D01*
X190051854Y-108396890D01*
X190121963Y-108590353D01*
X190203968Y-108837845D01*
X190214344Y-108873745D01*
X190223776Y-108918212D01*
X190232290Y-108975549D01*
X190239910Y-109050062D01*
X190246661Y-109146056D01*
X190252570Y-109267834D01*
X190257660Y-109419703D01*
X190261959Y-109605966D01*
X190265490Y-109830929D01*
X190268279Y-110098896D01*
X190270352Y-110414172D01*
X190271733Y-110781062D01*
X190272448Y-111203871D01*
X190272523Y-111686903D01*
X190271982Y-112234463D01*
X190270851Y-112850856D01*
X190269154Y-113540387D01*
X190266919Y-114307360D01*
X190264168Y-115156081D01*
X190260929Y-116090854D01*
X190257226Y-117115983D01*
X190255436Y-117602294D01*
X190223969Y-126114259D01*
X190056533Y-126548859D01*
X189925952Y-126847541D01*
X189781680Y-127088340D01*
X189640650Y-127265990D01*
X189234521Y-127664980D01*
X188743558Y-128038504D01*
X188177372Y-128381297D01*
X187545569Y-128688090D01*
X186857761Y-128953617D01*
X186197528Y-129153291D01*
X185947012Y-129220902D01*
X185705594Y-129288118D01*
X185502405Y-129346708D01*
X185376615Y-129385163D01*
X185210873Y-129432162D01*
X184992459Y-129485226D01*
X184763900Y-129534142D01*
X184724714Y-129541765D01*
X184502582Y-129584712D01*
X184225792Y-129638980D01*
X183934339Y-129696697D01*
X183734790Y-129736589D01*
X183312347Y-129818448D01*
X182915011Y-129888306D01*
X182521842Y-129948978D01*
X182111901Y-130003282D01*
X181664248Y-130054034D01*
X181157943Y-130104050D01*
X180692585Y-130145774D01*
X180314926Y-130177493D01*
X179948581Y-130205897D01*
X179586924Y-130231096D01*
X179223327Y-130253199D01*
X178851164Y-130272317D01*
X178463809Y-130288560D01*
X178054635Y-130302036D01*
X177617016Y-130312858D01*
X177144325Y-130321133D01*
X176629935Y-130326972D01*
X176067221Y-130330485D01*
X175449555Y-130331781D01*
X174770311Y-130330972D01*
X174022862Y-130328165D01*
X173200583Y-130323472D01*
X172296846Y-130317002D01*
X171305025Y-130308866D01*
X171010646Y-130306304D01*
X170794918Y-130304382D01*
X170490668Y-130301634D01*
X170105947Y-130298134D01*
X169648808Y-130293956D01*
X169127302Y-130289175D01*
X168549481Y-130283864D01*
X167923396Y-130278097D01*
X167257098Y-130271949D01*
X166558641Y-130265494D01*
X165836074Y-130258806D01*
X165097451Y-130251958D01*
X164350822Y-130245026D01*
X164322623Y-130244764D01*
X163466599Y-130236849D01*
X162530982Y-130228271D01*
X161532754Y-130219182D01*
X160488898Y-130209734D01*
X159416395Y-130200079D01*
X158332226Y-130190369D01*
X157253375Y-130180757D01*
X156196822Y-130171394D01*
X155179550Y-130162432D01*
X154218540Y-130154024D01*
X153330775Y-130146321D01*
X153240303Y-130145540D01*
X150795536Y-130124423D01*
X148445491Y-130104052D01*
X146188320Y-130084406D01*
X144022169Y-130065466D01*
X141945189Y-130047211D01*
X139955527Y-130029621D01*
X138051333Y-130012677D01*
X136230756Y-129996358D01*
X134491943Y-129980644D01*
X132833044Y-129965515D01*
X131252209Y-129950951D01*
X129747584Y-129936932D01*
X128317320Y-129923438D01*
X126959565Y-129910449D01*
X125672467Y-129897944D01*
X124454176Y-129885905D01*
X123302841Y-129874310D01*
X122216609Y-129863139D01*
X121193631Y-129852374D01*
X120232054Y-129841992D01*
X119330028Y-129831976D01*
X118485700Y-129822304D01*
X117697221Y-129812956D01*
X116962739Y-129803912D01*
X116280402Y-129795153D01*
X115648360Y-129786658D01*
X115064760Y-129778407D01*
X114527753Y-129770380D01*
X114035486Y-129762557D01*
X113586109Y-129754918D01*
X113177769Y-129747443D01*
X112808617Y-129740112D01*
X112476801Y-129732904D01*
X112180469Y-129725801D01*
X111917771Y-129718781D01*
X111686854Y-129711825D01*
X111485869Y-129704912D01*
X111312963Y-129698023D01*
X111166286Y-129691137D01*
X111132319Y-129689350D01*
X110498357Y-129652628D01*
X109903046Y-129613104D01*
X109355917Y-129571613D01*
X108866506Y-129528989D01*
X108444344Y-129486068D01*
X108098966Y-129443685D01*
X107839905Y-129402673D01*
X107824524Y-129399734D01*
X107615514Y-129361278D01*
X107409126Y-129326664D01*
X107269201Y-129306028D01*
X106848375Y-129243059D01*
X106360336Y-129155911D01*
X105826673Y-129049519D01*
X105268974Y-128928819D01*
X104708828Y-128798746D01*
X104167823Y-128664238D01*
X103667549Y-128530230D01*
X103229592Y-128401658D01*
X103024575Y-128335544D01*
X102295132Y-128067809D01*
X101659443Y-127786166D01*
X101115556Y-127489672D01*
X100717075Y-127220070D01*
X100398842Y-126972176D01*
X100145763Y-126753014D01*
X99940272Y-126541471D01*
X99764803Y-126316431D01*
X99601791Y-126056779D01*
X99433670Y-125741398D01*
X99355280Y-125583080D01*
X99343573Y-125557656D01*
X99332909Y-125528717D01*
X99323266Y-125491986D01*
X99314619Y-125443189D01*
X99306945Y-125378049D01*
X99300221Y-125292293D01*
X99294423Y-125181643D01*
X99289527Y-125041826D01*
X99285511Y-124868565D01*
X99282350Y-124657584D01*
X99280021Y-124404610D01*
X99278501Y-124105365D01*
X99277766Y-123755576D01*
X99277793Y-123350966D01*
X99278557Y-122887259D01*
X99280037Y-122360182D01*
X99282207Y-121765457D01*
X99285045Y-121098811D01*
X99288528Y-120355967D01*
X99292631Y-119532649D01*
X99297331Y-118624584D01*
X99302605Y-117627494D01*
X99307021Y-116800244D01*
X99352963Y-108210565D01*
X99529746Y-107803528D01*
X99758558Y-107389746D01*
X100078749Y-106987559D01*
X100485322Y-106602328D01*
X100973282Y-106239412D01*
X101011516Y-106214225D01*
X101158953Y-106129513D01*
X101376141Y-106019567D01*
X101642540Y-105893430D01*
X101937612Y-105760145D01*
X102240815Y-105628753D01*
X102531612Y-105508298D01*
X102789461Y-105407822D01*
X102993824Y-105336368D01*
X103031843Y-105324772D01*
X103406083Y-105215209D01*
X103404886Y-104920437D01*
X103405223Y-104826827D01*
X103402588Y-104751031D01*
X103390212Y-104681593D01*
X103361327Y-104607059D01*
X103309165Y-104515976D01*
X103226958Y-104396888D01*
X103107938Y-104238342D01*
X102945337Y-104028883D01*
X102732387Y-103757056D01*
X102671671Y-103679522D01*
X102303855Y-103209716D01*
X101990656Y-102809540D01*
X101727398Y-102472394D01*
X101509402Y-102191675D01*
X101331990Y-101960784D01*
X101190484Y-101773118D01*
X101080206Y-101622077D01*
X100996478Y-101501058D01*
X100934623Y-101403462D01*
X100889962Y-101322686D01*
X100857817Y-101252129D01*
X100833510Y-101185191D01*
X100812364Y-101115269D01*
X100789700Y-101035764D01*
X100783795Y-101015477D01*
X100716909Y-100784984D01*
X100648836Y-100546203D01*
X100593133Y-100346741D01*
X100587989Y-100327947D01*
X100538394Y-100146840D01*
X100474189Y-99913281D01*
X100406547Y-99667890D01*
X100382122Y-99579468D01*
X100323004Y-99364487D01*
X100269864Y-99169252D01*
X100230599Y-99022874D01*
X100218321Y-98975855D01*
X100196735Y-98894865D01*
X100152878Y-98733150D01*
X100090133Y-98503091D01*
X100011887Y-98217071D01*
X99921525Y-97887472D01*
X99822432Y-97526677D01*
X99765569Y-97319911D01*
X99642437Y-96872851D01*
X99540356Y-96493849D01*
X99459392Y-96169070D01*
X99399608Y-95884678D01*
X99361069Y-95626838D01*
X99343839Y-95381716D01*
X99347983Y-95135475D01*
X99373565Y-94874281D01*
X99420650Y-94584299D01*
X99489302Y-94251693D01*
X99579585Y-93862629D01*
X99691565Y-93403270D01*
X99785594Y-93021510D01*
X99927249Y-92446026D01*
X100048080Y-91956528D01*
X100150149Y-91545172D01*
X100235516Y-91204116D01*
X100306240Y-90925519D01*
X100364383Y-90701537D01*
X100412004Y-90524329D01*
X100451165Y-90386051D01*
X100483924Y-90278862D01*
X100512343Y-90194919D01*
X100538482Y-90126379D01*
X100558969Y-90077751D01*
X100623074Y-89966911D01*
X100737512Y-89803643D01*
X100887895Y-89607207D01*
X101059839Y-89396860D01*
X101122094Y-89323927D01*
X101320522Y-89092926D01*
X101557302Y-88815249D01*
X101809022Y-88518469D01*
X102052270Y-88230156D01*
X102174714Y-88084286D01*
X102373807Y-87847278D01*
X102566217Y-87619519D01*
X102737570Y-87417929D01*
X102873494Y-87259427D01*
X102949615Y-87172141D01*
X103082649Y-87019845D01*
X103212148Y-86867817D01*
X103275565Y-86791257D01*
X103406083Y-86630613D01*
X103406083Y-82933053D01*
X103406083Y-79235493D01*
X102812998Y-78626967D01*
X102584507Y-78389450D01*
X102410943Y-78199441D01*
X102277463Y-78037668D01*
X102169226Y-77884860D01*
X102071390Y-77721745D01*
X101972440Y-77535551D01*
X101834287Y-77259453D01*
X101729631Y-77027376D01*
X101653865Y-76817890D01*
X101602385Y-76609566D01*
X101570585Y-76380973D01*
X101553860Y-76110681D01*
X101547604Y-75777262D01*
X101546957Y-75555703D01*
X101549987Y-75173609D01*
X101562263Y-74865716D01*
X101588564Y-74609752D01*
X101633670Y-74383443D01*
X101702360Y-74164517D01*
X101799414Y-73930700D01*
X101929610Y-73659720D01*
X101971793Y-73575855D01*
X102047766Y-73433991D01*
X102129497Y-73303253D01*
X102228526Y-73169748D01*
X102356390Y-73019581D01*
X102524631Y-72838856D01*
X102744785Y-72613680D01*
X102900570Y-72457473D01*
X103133199Y-72229353D01*
X103358540Y-72015881D01*
X103562372Y-71829964D01*
X103730475Y-71684510D01*
X103848631Y-71592425D01*
X103866941Y-71580341D01*
X104100004Y-71435279D01*
X104087263Y-70686149D01*
X104085171Y-70342998D01*
X104095987Y-70077195D01*
X104125541Y-69869770D01*
X104179666Y-69701751D01*
X104264192Y-69554169D01*
X104384951Y-69408053D01*
X104523116Y-69268242D01*
X104623010Y-69171974D01*
X104712432Y-69092356D01*
X104801488Y-69027542D01*
X104900281Y-68975688D01*
X105018919Y-68934948D01*
X105167505Y-68903479D01*
X105356145Y-68879434D01*
X105594945Y-68860969D01*
X105894009Y-68846238D01*
X106263443Y-68833398D01*
X106713352Y-68820603D01*
X107020230Y-68812339D01*
X107844242Y-68791893D01*
X108620557Y-68776100D01*
X109343661Y-68764959D01*
X110008040Y-68758470D01*
X110608183Y-68756630D01*
X111138575Y-68759439D01*
X111593705Y-68766895D01*
X111968058Y-68778998D01*
X112256122Y-68795745D01*
X112428368Y-68813540D01*
X112879361Y-68877000D01*
X113321714Y-68444797D01*
X113516303Y-68258064D01*
X113683846Y-68111443D01*
X113839836Y-68000162D01*
X113999765Y-67919446D01*
X114179126Y-67864521D01*
X114393410Y-67830614D01*
X114658111Y-67812950D01*
X114988720Y-67806755D01*
X115390807Y-67807207D01*
X115780316Y-67806703D01*
X116092498Y-67801186D01*
X116322262Y-67790862D01*
X116464519Y-67775940D01*
X116511060Y-67761582D01*
X116612947Y-67691182D01*
X116735136Y-67639006D01*
X116892756Y-67602620D01*
X117100941Y-67579592D01*
X117374821Y-67567489D01*
X117729528Y-67563881D01*
X117741023Y-67563878D01*
X118241646Y-67573172D01*
X118668123Y-67602917D01*
X119041257Y-67655911D01*
X119381851Y-67734949D01*
X119649386Y-67820420D01*
X119765981Y-67860295D01*
X119867460Y-67887058D01*
X119973855Y-67901630D01*
X120105199Y-67904933D01*
X120281527Y-67897888D01*
X120522870Y-67881416D01*
X120693535Y-67868445D01*
X121472151Y-67815723D01*
X122296330Y-67773114D01*
X123146873Y-67740934D01*
X124004583Y-67719496D01*
X124850262Y-67709115D01*
X125664711Y-67710105D01*
X126428733Y-67722781D01*
X127123128Y-67747455D01*
X127353642Y-67759409D01*
X128243216Y-67810017D01*
X128512577Y-67543749D01*
X128730572Y-67357433D01*
X128991578Y-67177916D01*
X129158776Y-67082657D01*
X129535614Y-66887833D01*
X130221134Y-66888893D01*
%TO.C,D7*%
D11*
X154456000Y-108458000D02*
X154456000Y-107557647D01*
X154456000Y-108458000D02*
X154456000Y-109358353D01*
X155956000Y-106758000D02*
X155255647Y-106758000D01*
X155956000Y-106758000D02*
X156656353Y-106758000D01*
X155956000Y-110158000D02*
X155255647Y-110158000D01*
X155956000Y-110158000D02*
X156656353Y-110158000D01*
X157456000Y-108458000D02*
X157456000Y-107557647D01*
X157456000Y-108458000D02*
X157456000Y-109358353D01*
X154412066Y-107401345D02*
G75*
G02*
X154455976Y-107557647I-256066J-156255D01*
G01*
X154412066Y-107401345D02*
G75*
G02*
X155099345Y-106714066I426774J260505D01*
G01*
X154456000Y-109358353D02*
G75*
G02*
X154412066Y-109514655I-299992J-3D01*
G01*
X155099345Y-110201934D02*
G75*
G02*
X154412066Y-109514655I-260503J426776D01*
G01*
X155099345Y-110201934D02*
G75*
G02*
X155255647Y-110158000I156299J-256058D01*
G01*
X155255647Y-106758000D02*
G75*
G02*
X155099346Y-106714065I-87J299680D01*
G01*
X156656353Y-110158000D02*
G75*
G02*
X156812655Y-110201934I3J-299992D01*
G01*
X156812655Y-106714066D02*
G75*
G02*
X156656353Y-106757976I-156255J256066D01*
G01*
X156812655Y-106714066D02*
G75*
G02*
X157499934Y-107401345I260505J-426774D01*
G01*
X157456000Y-107557647D02*
G75*
G02*
X157499933Y-107401344I300020J-3D01*
G01*
X157499934Y-109514655D02*
G75*
G02*
X156812655Y-110201934I-426776J-260503D01*
G01*
X157499934Y-109514655D02*
G75*
G02*
X157456000Y-109358353I256058J156299D01*
G01*
%TO.C,D6*%
X147090000Y-104140000D02*
X147090000Y-103239647D01*
X147090000Y-104140000D02*
X147090000Y-105040353D01*
X148590000Y-102440000D02*
X147889647Y-102440000D01*
X148590000Y-102440000D02*
X149290353Y-102440000D01*
X148590000Y-105840000D02*
X147889647Y-105840000D01*
X148590000Y-105840000D02*
X149290353Y-105840000D01*
X150090000Y-104140000D02*
X150090000Y-103239647D01*
X150090000Y-104140000D02*
X150090000Y-105040353D01*
X147046066Y-103083345D02*
G75*
G02*
X147089976Y-103239647I-256066J-156255D01*
G01*
X147046066Y-103083345D02*
G75*
G02*
X147733345Y-102396066I426774J260505D01*
G01*
X147090000Y-105040353D02*
G75*
G02*
X147046066Y-105196655I-299992J-3D01*
G01*
X147733345Y-105883934D02*
G75*
G02*
X147046066Y-105196655I-260503J426776D01*
G01*
X147733345Y-105883934D02*
G75*
G02*
X147889647Y-105840000I156299J-256058D01*
G01*
X147889647Y-102440000D02*
G75*
G02*
X147733346Y-102396065I-87J299680D01*
G01*
X149290353Y-105840000D02*
G75*
G02*
X149446655Y-105883934I3J-299992D01*
G01*
X149446655Y-102396066D02*
G75*
G02*
X149290353Y-102439976I-156255J256066D01*
G01*
X149446655Y-102396066D02*
G75*
G02*
X150133934Y-103083345I260505J-426774D01*
G01*
X150090000Y-103239647D02*
G75*
G02*
X150133933Y-103083344I300020J-3D01*
G01*
X150133934Y-105196655D02*
G75*
G02*
X149446655Y-105883934I-426776J-260503D01*
G01*
X150133934Y-105196655D02*
G75*
G02*
X150090000Y-105040353I256058J156299D01*
G01*
%TD*%
M02*
