%TF.GenerationSoftware,KiCad,Pcbnew,10.0.5*%
%TF.CreationDate,2026-08-15T10:53:29-07:00*%
%TF.ProjectId,bsidesorl-v1,62736964-6573-46f7-926c-2d76312e6b69,R0*%
%TF.SameCoordinates,Original*%
%TF.FileFunction,Paste,Bot*%
%TF.FilePolarity,Positive*%
%FSLAX46Y46*%
G04 Gerber Fmt 4.6, Leading zero omitted, Abs format (unit mm)*
G04 Created by KiCad (PCBNEW 10.0.5) date 2026-08-15 10:53:29*
%MOMM*%
%LPD*%
G01*
G04 APERTURE LIST*
G04 Aperture macros list*
%AMRoundRect*
0 Rectangle with rounded corners*
0 $1 Rounding radius*
0 $2 $3 $4 $5 $6 $7 $8 $9 X,Y pos of 4 corners*
0 Add a 4 corners polygon primitive as box body*
4,1,4,$2,$3,$4,$5,$6,$7,$8,$9,$2,$3,0*
0 Add four circle primitives for the rounded corners*
1,1,$1+$1,$2,$3*
1,1,$1+$1,$4,$5*
1,1,$1+$1,$6,$7*
1,1,$1+$1,$8,$9*
0 Add four rect primitives between the rounded corners*
20,1,$1+$1,$2,$3,$4,$5,0*
20,1,$1+$1,$4,$5,$6,$7,0*
20,1,$1+$1,$6,$7,$8,$9,0*
20,1,$1+$1,$8,$9,$2,$3,0*%
G04 Aperture macros list end*
%ADD10C,0.150000*%
%ADD11RoundRect,0.200000X-0.275000X0.200000X-0.275000X-0.200000X0.275000X-0.200000X0.275000X0.200000X0*%
%ADD12RoundRect,0.225000X-0.250000X0.225000X-0.250000X-0.225000X0.250000X-0.225000X0.250000X0.225000X0*%
%ADD13RoundRect,0.200000X-0.200000X-0.275000X0.200000X-0.275000X0.200000X0.275000X-0.200000X0.275000X0*%
%ADD14R,1.199898X2.000000*%
%ADD15RoundRect,0.205000X0.205000X-0.470000X0.205000X0.470000X-0.205000X0.470000X-0.205000X-0.470000X0*%
%ADD16RoundRect,0.100000X0.637500X0.100000X-0.637500X0.100000X-0.637500X-0.100000X0.637500X-0.100000X0*%
%ADD17RoundRect,0.200000X0.200000X0.275000X-0.200000X0.275000X-0.200000X-0.275000X0.200000X-0.275000X0*%
%ADD18RoundRect,0.200000X0.275000X-0.200000X0.275000X0.200000X-0.275000X0.200000X-0.275000X-0.200000X0*%
%ADD19R,0.664999X0.200000*%
%ADD20R,0.664999X0.400000*%
%ADD21RoundRect,0.225000X0.250000X-0.225000X0.250000X0.225000X-0.250000X0.225000X-0.250000X-0.225000X0*%
%ADD22R,5.100000X5.100000*%
G04 APERTURE END LIST*
D10*
%TO.C,D5*%
X165783386Y-81318102D02*
X165783386Y-81717797D01*
X166448639Y-81717797D01*
X166448639Y-81318203D01*
X166448792Y-81318203D01*
X165783386Y-81318102D01*
G36*
X166448792Y-81318203D02*
G01*
X166448639Y-81318203D01*
X166448639Y-81717797D01*
X165783386Y-81717797D01*
X165783386Y-81318102D01*
X166448792Y-81318203D01*
G37*
X166649046Y-81318178D02*
X166649046Y-81717873D01*
X167314298Y-81717873D01*
X167314298Y-81318279D01*
X167314425Y-81318279D01*
X166649046Y-81318178D01*
G36*
X167314425Y-81318279D02*
G01*
X167314298Y-81318279D01*
X167314298Y-81717873D01*
X166649046Y-81717873D01*
X166649046Y-81318178D01*
X167314425Y-81318279D01*
G37*
X165783564Y-80917187D02*
X165783564Y-81118330D01*
X166448284Y-81118330D01*
X166448284Y-80918178D01*
X166448030Y-80918178D01*
X166448030Y-80917924D01*
X165783564Y-80917187D01*
G36*
X166448030Y-80917924D02*
G01*
X166448030Y-80918178D01*
X166448284Y-80918178D01*
X166448284Y-81118330D01*
X165783564Y-81118330D01*
X165783564Y-80917187D01*
X166448030Y-80917924D01*
G37*
X165783564Y-81917187D02*
X165783564Y-82118330D01*
X166448284Y-82118330D01*
X166448284Y-81918178D01*
X166448030Y-81918178D01*
X166448030Y-81917924D01*
X165783564Y-81917187D01*
G36*
X166448030Y-81917924D02*
G01*
X166448030Y-81918178D01*
X166448284Y-81918178D01*
X166448284Y-82118330D01*
X165783564Y-82118330D01*
X165783564Y-81917187D01*
X166448030Y-81917924D01*
G37*
X165783564Y-82417060D02*
X165783564Y-82618203D01*
X166448284Y-82618203D01*
X166448284Y-82418051D01*
X166448030Y-82418051D01*
X166448030Y-82417797D01*
X165783564Y-82417060D01*
G36*
X166448030Y-82417797D02*
G01*
X166448030Y-82418051D01*
X166448284Y-82418051D01*
X166448284Y-82618203D01*
X165783564Y-82618203D01*
X165783564Y-82417060D01*
X166448030Y-82417797D01*
G37*
X165783590Y-80417060D02*
X165783590Y-80618203D01*
X166448309Y-80618203D01*
X166448309Y-80418051D01*
X166448055Y-80418051D01*
X166448055Y-80417797D01*
X165783590Y-80417060D01*
G36*
X166448055Y-80417797D02*
G01*
X166448055Y-80418051D01*
X166448309Y-80418051D01*
X166448309Y-80618203D01*
X165783590Y-80618203D01*
X165783590Y-80417060D01*
X166448055Y-80417797D01*
G37*
X166649198Y-80917187D02*
X166649198Y-81118330D01*
X167313917Y-81118330D01*
X167313917Y-80918178D01*
X167313663Y-80918178D01*
X167313663Y-80917924D01*
X166649198Y-80917187D01*
G36*
X167313663Y-80917924D02*
G01*
X167313663Y-80918178D01*
X167313917Y-80918178D01*
X167313917Y-81118330D01*
X166649198Y-81118330D01*
X166649198Y-80917187D01*
X167313663Y-80917924D01*
G37*
X166649198Y-81917213D02*
X166649198Y-82118356D01*
X167313917Y-82118356D01*
X167313917Y-81918203D01*
X167313663Y-81918203D01*
X167313663Y-81917949D01*
X166649198Y-81917213D01*
G36*
X167313663Y-81917949D02*
G01*
X167313663Y-81918203D01*
X167313917Y-81918203D01*
X167313917Y-82118356D01*
X166649198Y-82118356D01*
X166649198Y-81917213D01*
X167313663Y-81917949D01*
G37*
X166649198Y-82417060D02*
X166649198Y-82618203D01*
X167313917Y-82618203D01*
X167313917Y-82418051D01*
X167313663Y-82418051D01*
X167313663Y-82417797D01*
X166649198Y-82417060D01*
G36*
X167313663Y-82417797D02*
G01*
X167313663Y-82418051D01*
X167313917Y-82418051D01*
X167313917Y-82618203D01*
X166649198Y-82618203D01*
X166649198Y-82417060D01*
X167313663Y-82417797D01*
G37*
X166649223Y-80417060D02*
X166649223Y-80618203D01*
X167313943Y-80618203D01*
X167313943Y-80418051D01*
X167313689Y-80418051D01*
X167313689Y-80417797D01*
X166649223Y-80417060D01*
G36*
X167313689Y-80417797D02*
G01*
X167313689Y-80418051D01*
X167313943Y-80418051D01*
X167313943Y-80618203D01*
X166649223Y-80618203D01*
X166649223Y-80417060D01*
X167313689Y-80417797D01*
G37*
%TD*%
D11*
%TO.C,R7*%
X145796000Y-103378000D03*
X145796000Y-105018000D03*
%TD*%
D12*
%TO.C,C3*%
X168656000Y-77965000D03*
X168656000Y-79515000D03*
%TD*%
%TO.C,C1*%
X119126000Y-77203000D03*
X119126000Y-78753000D03*
%TD*%
D13*
%TO.C,R4*%
X160723999Y-80518000D03*
X162364001Y-80518000D03*
%TD*%
%TO.C,R6*%
X160735973Y-83820000D03*
X162375975Y-83820000D03*
%TD*%
D14*
%TO.C,S1*%
X137079746Y-74168000D03*
X134579873Y-74168000D03*
X132080000Y-74168000D03*
X137079746Y-79868026D03*
X134579873Y-79867772D03*
X132080000Y-79868026D03*
%TD*%
D15*
%TO.C,D7*%
X155206000Y-111183000D03*
X156706000Y-111183000D03*
X156706000Y-105733000D03*
X155206000Y-105733000D03*
%TD*%
D16*
%TO.C,U1*%
X116469000Y-73316000D03*
X116469000Y-73966000D03*
X116469000Y-74616000D03*
X116469000Y-75266000D03*
X116469000Y-75916000D03*
X116469000Y-76566000D03*
X116469000Y-77216000D03*
X116469000Y-77866000D03*
X116469000Y-78516000D03*
X116469000Y-79166000D03*
X110744000Y-79166000D03*
X110744000Y-78516000D03*
X110744000Y-77866000D03*
X110744000Y-77216000D03*
X110744000Y-76566000D03*
X110744000Y-75916000D03*
X110744000Y-75266000D03*
X110744000Y-74616000D03*
X110744000Y-73966000D03*
X110744000Y-73316000D03*
%TD*%
D17*
%TO.C,R3*%
X162364001Y-79248000D03*
X160723999Y-79248000D03*
%TD*%
D13*
%TO.C,R5*%
X160723999Y-82550000D03*
X162364001Y-82550000D03*
%TD*%
D18*
%TO.C,R1*%
X120650000Y-85656001D03*
X120650000Y-84015999D03*
%TD*%
D19*
%TO.C,D5*%
X166981634Y-80518000D03*
X166981634Y-81018127D03*
D20*
X166981634Y-81518000D03*
D19*
X166981634Y-82018127D03*
X166981634Y-82518000D03*
X166116000Y-82518000D03*
X166116000Y-82018127D03*
D20*
X166116000Y-81518000D03*
D19*
X166116000Y-81018127D03*
X166116000Y-80518000D03*
%TD*%
D11*
%TO.C,R2*%
X120650000Y-81221999D03*
X120650000Y-82862001D03*
%TD*%
D15*
%TO.C,D6*%
X147840000Y-106865000D03*
X149340000Y-106865000D03*
X149340000Y-101415000D03*
X147840000Y-101415000D03*
%TD*%
D21*
%TO.C,C2*%
X120904000Y-78753000D03*
X120904000Y-77203000D03*
%TD*%
D22*
%TO.C,BT1*%
X155394000Y-118618000D03*
X129794000Y-118618000D03*
%TD*%
M02*
